M48
; DRILL file {KiCad 8.0.2} date 2024-05-15T22:32:35+0200
; FORMAT={-:-/ absolute / metric / decimal}
; #@! TF.CreationDate,2024-05-15T22:32:35+02:00
; #@! TF.GenerationSoftware,Kicad,Pcbnew,8.0.2
; #@! TF.FileFunction,Plated,1,2,PTH
FMAT,2
METRIC
; #@! TA.AperFunction,Plated,PTH,ViaDrill
T1C0.400
; #@! TA.AperFunction,Plated,PTH,ComponentDrill
T2C0.600
; #@! TA.AperFunction,Plated,PTH,ComponentDrill
T3C1.000
; #@! TA.AperFunction,Plated,PTH,ComponentDrill
T4C1.500
; #@! TA.AperFunction,Plated,PTH,ComponentDrill
T5C3.000
; #@! TA.AperFunction,Plated,PTH,ComponentDrill
T6C3.048
%
G90
G05
T1
X28.9Y-35.5
X28.9Y-56.5
X28.9Y-77.5
X28.9Y-98.5
X28.9Y-119.3
X28.9Y-140.3
X57.5Y-35.5
X57.5Y-64.3
X57.5Y-83.3
X57.5Y-102.3
X57.5Y-140.3
X78.5Y-66.1
X85.7Y-83.1
X86.3Y-138.1
X89.9Y-102.1
X95.5Y-64.1
X95.7Y-35.5
X99.7Y-121.3
X105.1Y-83.1
X107.3Y-140.3
X109.9Y-102.1
X119.3Y-121.1
X359.494Y-101.25
X361.994Y-104.0
X361.994Y-107.25
X368.244Y-103.0
X368.494Y-101.75
X371.494Y-110.25
X372.994Y-109.25
X373.744Y-101.5
X381.494Y-102.25
X383.994Y-101.25
X384.73Y-108.763
X385.944Y-105.8
X386.23Y-109.013
X389.494Y-109.75
X390.494Y-108.75
X421.7Y-42.9
X459.7Y-43.1
T3
X421.7Y-35.6
X421.7Y-40.6
X436.2Y-35.6
X436.2Y-38.1
X436.2Y-40.6
X459.7Y-35.6
X459.7Y-40.6
X474.2Y-35.6
X474.2Y-38.1
X474.2Y-40.6
T5
X34.29Y-35.56
X34.29Y-56.515
X34.29Y-77.47
X34.29Y-98.425
X34.29Y-119.38
X34.29Y-140.335
X40.64Y-33.02
X40.64Y-53.975
X40.64Y-74.93
X40.64Y-95.885
X40.64Y-116.84
X40.64Y-137.795
X62.865Y-35.56
X62.865Y-64.135
X65.246Y-140.335
X67.627Y-83.185
X69.215Y-33.02
X69.215Y-61.595
X70.009Y-102.235
X71.596Y-137.795
X73.977Y-80.645
X74.771Y-121.285
X76.359Y-99.695
X81.121Y-118.745
X81.915Y-64.135
X88.265Y-61.595
X89.059Y-140.335
X91.44Y-83.185
X95.409Y-137.795
X96.203Y-102.235
X97.79Y-80.645
X100.965Y-35.56
X100.965Y-64.135
X102.552Y-99.695
X105.727Y-121.285
X107.315Y-33.02
X107.315Y-61.595
X110.49Y-83.185
X112.078Y-118.745
X112.871Y-140.335
X115.252Y-102.235
X116.84Y-80.645
X119.221Y-137.795
X120.015Y-35.56
X120.015Y-64.135
X121.602Y-99.695
X124.777Y-121.285
X126.365Y-33.02
X126.365Y-61.595
X129.54Y-83.185
X131.127Y-118.745
X134.302Y-102.235
X135.89Y-80.645
X139.065Y-35.56
X139.065Y-64.135
X140.653Y-99.695
X143.827Y-121.285
X145.415Y-33.02
X145.415Y-61.595
X148.59Y-83.185
X150.177Y-118.745
X153.352Y-102.235
X154.94Y-80.645
X158.115Y-35.56
X158.115Y-64.135
X159.702Y-99.695
X162.877Y-121.285
X164.465Y-33.02
X164.465Y-61.595
X167.64Y-83.185
X169.227Y-118.745
X172.403Y-102.235
X173.99Y-80.645
X177.165Y-64.135
X178.752Y-99.695
X181.927Y-121.285
X183.515Y-61.595
X184.309Y-140.335
X186.69Y-35.56
X186.69Y-83.185
X188.278Y-118.745
X190.659Y-137.795
X191.452Y-102.235
X193.04Y-33.02
X193.04Y-80.645
X196.215Y-64.135
X197.802Y-99.695
X200.977Y-121.285
X202.565Y-61.595
X205.74Y-35.56
X205.74Y-83.185
X207.327Y-118.745
X210.502Y-102.235
X212.09Y-33.02
X212.09Y-80.645
X215.265Y-64.135
X216.852Y-99.695
X220.028Y-121.285
X221.615Y-61.595
X224.79Y-35.56
X224.79Y-83.185
X226.377Y-118.745
X229.552Y-102.235
X231.14Y-33.02
X231.14Y-80.645
X234.315Y-64.135
X235.903Y-99.695
X239.077Y-121.285
X240.665Y-61.595
X243.84Y-35.56
X243.84Y-83.185
X245.427Y-118.745
X248.602Y-102.235
X250.19Y-33.02
X250.19Y-80.645
X253.365Y-64.135
X254.952Y-99.695
X255.746Y-140.335
X258.127Y-121.285
X259.715Y-61.595
X262.096Y-137.795
X262.89Y-83.185
X264.477Y-118.745
X267.652Y-102.235
X269.24Y-80.645
X272.415Y-35.56
X272.415Y-64.135
X274.002Y-99.695
X277.178Y-121.285
X278.765Y-33.02
X278.765Y-61.595
X279.559Y-140.335
X281.94Y-83.185
X283.527Y-118.745
X285.909Y-137.795
X286.702Y-102.235
X288.29Y-80.645
X291.465Y-35.56
X291.465Y-64.135
X293.053Y-99.695
X297.815Y-33.02
X297.815Y-61.595
X300.99Y-83.185
X303.371Y-140.335
X307.34Y-80.645
X309.721Y-137.795
X310.515Y-35.56
X312.896Y-121.285
X316.865Y-33.02
X317.659Y-102.235
X319.246Y-118.745
X320.04Y-64.135
X324.009Y-99.695
X324.803Y-83.185
X326.39Y-61.595
X327.184Y-140.335
X329.565Y-35.56
X331.152Y-80.645
X333.534Y-137.795
X335.915Y-33.02
X353.377Y-35.56
X353.377Y-64.135
X353.377Y-83.185
X353.377Y-140.335
X359.727Y-33.02
X359.727Y-61.595
X359.727Y-80.645
X359.727Y-137.795
X372.428Y-35.56
X372.428Y-64.135
X372.428Y-83.185
X372.428Y-121.285
X372.428Y-140.335
X378.777Y-33.02
X378.777Y-61.595
X378.777Y-80.645
X378.777Y-118.745
X378.777Y-137.795
X391.477Y-35.56
X391.477Y-64.135
X391.477Y-83.185
X391.477Y-140.335
X397.827Y-33.02
X397.827Y-61.595
X397.827Y-80.645
X397.827Y-137.795
X415.29Y-64.135
X415.29Y-83.185
X415.29Y-102.235
X415.29Y-121.285
X421.64Y-61.595
X421.64Y-80.645
X421.64Y-99.695
X421.64Y-118.745
X424.815Y-140.335
X431.165Y-137.795
X434.34Y-64.135
X434.34Y-83.185
X434.34Y-102.235
X434.34Y-121.285
X440.69Y-61.595
X440.69Y-80.645
X440.69Y-99.695
X440.69Y-118.745
X453.39Y-64.135
X453.39Y-83.185
X453.39Y-102.235
X453.39Y-121.285
X453.39Y-140.335
X459.74Y-61.595
X459.74Y-80.645
X459.74Y-99.695
X459.74Y-118.745
X459.74Y-137.795
X472.44Y-64.135
X472.44Y-92.71
X472.44Y-130.81
X478.79Y-61.595
X478.79Y-90.17
X478.79Y-128.27
T6
X66.675Y-130.81
X90.487Y-130.81
X138.112Y-149.86
X238.125Y-149.86
X304.8Y-130.731
X309.562Y-111.76
X311.944Y-73.66
X328.613Y-130.731
X333.375Y-111.76
X335.756Y-73.66
X416.719Y-149.86
X440.531Y-149.86
X483.235Y-83.344
X483.235Y-107.156
X483.235Y-121.444
X483.235Y-145.256
T2
X257.58Y-30.15G85X257.58Y-30.75
G05
X257.58Y-34.08G85X257.58Y-35.18
G05
X266.22Y-30.15G85X266.22Y-30.75
G05
X266.22Y-34.08G85X266.22Y-35.18
G05
T4
X429.35Y-32.5G85X428.05Y-32.5
G05
X429.35Y-43.7G85X428.05Y-43.7
G05
X467.35Y-32.5G85X466.05Y-32.5
G05
X467.35Y-43.7G85X466.05Y-43.7
G05
M30
