M48
; DRILL file {KiCad 8.0.2} date 2024-05-15T22:32:35+0200
; FORMAT={-:-/ absolute / metric / decimal}
; #@! TF.CreationDate,2024-05-15T22:32:35+02:00
; #@! TF.GenerationSoftware,Kicad,Pcbnew,8.0.2
; #@! TF.FileFunction,NonPlated,1,2,NPTH
FMAT,2
METRIC
; #@! TA.AperFunction,NonPlated,NPTH,ComponentDrill
T1C0.650
; #@! TA.AperFunction,NonPlated,NPTH,ComponentDrill
T2C1.750
; #@! TA.AperFunction,NonPlated,NPTH,ComponentDrill
T3C3.988
%
G90
G05
T1
X259.01Y-34.1
X264.79Y-34.1
T2
X33.02Y-38.1
X33.02Y-59.055
X33.02Y-80.01
X33.02Y-100.965
X33.02Y-121.92
X33.02Y-142.875
X43.18Y-38.1
X43.18Y-59.055
X43.18Y-80.01
X43.18Y-100.965
X43.18Y-121.92
X43.18Y-142.875
X61.595Y-38.1
X61.595Y-66.675
X63.976Y-142.875
X66.358Y-85.725
X68.739Y-104.775
X71.755Y-38.1
X71.755Y-66.675
X73.501Y-123.825
X74.136Y-142.875
X76.517Y-85.725
X78.899Y-104.775
X80.645Y-66.675
X83.661Y-123.825
X87.789Y-142.875
X90.17Y-85.725
X90.805Y-66.675
X94.932Y-104.775
X97.949Y-142.875
X99.695Y-38.1
X99.695Y-66.675
X100.33Y-85.725
X104.457Y-123.825
X105.093Y-104.775
X109.22Y-85.725
X109.855Y-38.1
X109.855Y-66.675
X111.601Y-142.875
X113.983Y-104.775
X114.617Y-123.825
X118.745Y-38.1
X118.745Y-66.675
X119.38Y-85.725
X121.761Y-142.875
X123.507Y-123.825
X124.142Y-104.775
X128.27Y-85.725
X128.905Y-38.1
X128.905Y-66.675
X133.032Y-104.775
X133.667Y-123.825
X137.795Y-38.1
X137.795Y-66.675
X138.43Y-85.725
X142.558Y-123.825
X143.192Y-104.775
X147.32Y-85.725
X147.955Y-38.1
X147.955Y-66.675
X152.082Y-104.775
X152.718Y-123.825
X156.845Y-38.1
X156.845Y-66.675
X157.48Y-85.725
X161.607Y-123.825
X162.243Y-104.775
X166.37Y-85.725
X167.005Y-38.1
X167.005Y-66.675
X171.132Y-104.775
X171.767Y-123.825
X175.895Y-66.675
X176.53Y-85.725
X180.657Y-123.825
X181.292Y-104.775
X183.039Y-142.875
X185.42Y-38.1
X185.42Y-85.725
X186.055Y-66.675
X190.183Y-104.775
X190.817Y-123.825
X193.199Y-142.875
X194.945Y-66.675
X195.58Y-38.1
X195.58Y-85.725
X199.707Y-123.825
X200.343Y-104.775
X204.47Y-38.1
X204.47Y-85.725
X205.105Y-66.675
X209.232Y-104.775
X209.867Y-123.825
X213.995Y-66.675
X214.63Y-38.1
X214.63Y-85.725
X218.757Y-123.825
X219.392Y-104.775
X223.52Y-38.1
X223.52Y-85.725
X224.155Y-66.675
X228.282Y-104.775
X228.917Y-123.825
X233.045Y-66.675
X233.68Y-38.1
X233.68Y-85.725
X237.807Y-123.825
X238.442Y-104.775
X242.57Y-38.1
X242.57Y-85.725
X243.205Y-66.675
X247.332Y-104.775
X247.968Y-123.825
X252.095Y-66.675
X252.73Y-38.1
X252.73Y-85.725
X254.476Y-142.875
X256.858Y-123.825
X257.493Y-104.775
X261.62Y-85.725
X262.255Y-66.675
X264.636Y-142.875
X266.382Y-104.775
X267.017Y-123.825
X271.145Y-38.1
X271.145Y-66.675
X271.78Y-85.725
X275.907Y-123.825
X276.542Y-104.775
X278.289Y-142.875
X280.67Y-85.725
X281.305Y-38.1
X281.305Y-66.675
X285.433Y-104.775
X286.067Y-123.825
X288.449Y-142.875
X290.195Y-38.1
X290.195Y-66.675
X290.83Y-85.725
X295.592Y-104.775
X299.72Y-85.725
X300.355Y-38.1
X300.355Y-66.675
X302.101Y-142.875
X309.245Y-38.1
X309.88Y-85.725
X311.626Y-123.825
X312.261Y-142.875
X316.389Y-104.775
X318.77Y-66.675
X319.405Y-38.1
X321.786Y-123.825
X323.532Y-85.725
X325.914Y-142.875
X326.549Y-104.775
X328.295Y-38.1
X328.93Y-66.675
X333.692Y-85.725
X336.074Y-142.875
X338.455Y-38.1
X352.107Y-38.1
X352.107Y-66.675
X352.107Y-85.725
X352.107Y-142.875
X362.267Y-38.1
X362.267Y-66.675
X362.267Y-85.725
X362.267Y-142.875
X371.157Y-38.1
X371.157Y-66.675
X371.157Y-85.725
X371.157Y-123.825
X371.157Y-142.875
X381.317Y-38.1
X381.317Y-66.675
X381.317Y-85.725
X381.317Y-123.825
X381.317Y-142.875
X390.207Y-38.1
X390.207Y-66.675
X390.207Y-85.725
X390.207Y-142.875
X400.368Y-38.1
X400.368Y-66.675
X400.368Y-85.725
X400.368Y-142.875
X414.02Y-66.675
X414.02Y-85.725
X414.02Y-104.775
X414.02Y-123.825
X423.545Y-142.875
X424.18Y-66.675
X424.18Y-85.725
X424.18Y-104.775
X424.18Y-123.825
X433.07Y-66.675
X433.07Y-85.725
X433.07Y-104.775
X433.07Y-123.825
X433.705Y-142.875
X443.23Y-66.675
X443.23Y-85.725
X443.23Y-104.775
X443.23Y-123.825
X452.12Y-66.675
X452.12Y-85.725
X452.12Y-104.775
X452.12Y-123.825
X452.12Y-142.875
X462.28Y-66.675
X462.28Y-85.725
X462.28Y-104.775
X462.28Y-123.825
X462.28Y-142.875
X471.17Y-66.675
X471.17Y-95.25
X471.17Y-133.35
X481.33Y-66.675
X481.33Y-95.25
X481.33Y-133.35
T3
X38.1Y-38.1
X38.1Y-59.055
X38.1Y-80.01
X38.1Y-100.965
X38.1Y-121.92
X38.1Y-142.875
X66.675Y-38.1
X66.675Y-66.675
X66.675Y-115.57
X69.056Y-142.875
X71.438Y-85.725
X73.819Y-104.775
X78.581Y-123.825
X85.725Y-66.675
X90.487Y-115.57
X92.869Y-142.875
X95.25Y-85.725
X100.012Y-104.775
X104.775Y-38.1
X104.775Y-66.675
X109.537Y-123.825
X114.3Y-85.725
X116.681Y-142.875
X119.062Y-104.775
X123.825Y-38.1
X123.825Y-66.675
X128.588Y-123.825
X133.35Y-85.725
X138.112Y-104.775
X138.112Y-134.62
X142.875Y-38.1
X142.875Y-66.675
X147.637Y-123.825
X152.4Y-85.725
X157.162Y-104.775
X161.925Y-38.1
X161.925Y-66.675
X166.688Y-123.825
X171.45Y-85.725
X176.213Y-104.775
X180.975Y-66.675
X185.737Y-123.825
X188.119Y-142.875
X190.5Y-38.1
X190.5Y-85.725
X195.262Y-104.775
X200.025Y-66.675
X204.787Y-123.825
X209.55Y-38.1
X209.55Y-85.725
X214.312Y-104.775
X219.075Y-66.675
X223.837Y-123.825
X228.6Y-38.1
X228.6Y-85.725
X233.362Y-104.775
X238.125Y-66.675
X238.125Y-134.62
X242.887Y-123.825
X247.65Y-38.1
X247.65Y-85.725
X252.412Y-104.775
X257.175Y-66.675
X259.556Y-142.875
X261.938Y-123.825
X266.7Y-85.725
X271.462Y-104.775
X276.225Y-38.1
X276.225Y-66.675
X280.988Y-123.825
X283.369Y-142.875
X285.75Y-85.725
X290.512Y-104.775
X295.275Y-38.1
X295.275Y-66.675
X304.8Y-85.725
X304.8Y-115.491
X307.181Y-142.875
X309.562Y-96.52
X311.944Y-58.42
X314.325Y-38.1
X316.706Y-123.825
X321.469Y-104.775
X323.85Y-66.675
X328.613Y-85.725
X328.613Y-115.491
X330.994Y-142.875
X333.375Y-38.1
X333.375Y-96.52
X335.756Y-58.42
X357.188Y-38.1
X357.188Y-66.675
X357.188Y-85.725
X357.188Y-142.875
X376.238Y-38.1
X376.238Y-66.675
X376.238Y-85.725
X376.238Y-123.825
X376.238Y-142.875
X395.287Y-38.1
X395.287Y-66.675
X395.287Y-85.725
X395.287Y-142.875
X416.719Y-134.62
X419.1Y-66.675
X419.1Y-85.725
X419.1Y-104.775
X419.1Y-123.825
X428.625Y-142.875
X438.15Y-66.675
X438.15Y-85.725
X438.15Y-104.775
X438.15Y-123.825
X440.531Y-134.62
X457.2Y-66.675
X457.2Y-85.725
X457.2Y-104.775
X457.2Y-123.825
X457.2Y-142.875
X467.995Y-83.344
X467.995Y-107.156
X467.995Y-121.444
X467.995Y-145.256
X476.25Y-66.675
X476.25Y-95.25
X476.25Y-133.35
M30
