%TF.GenerationSoftware,KiCad,Pcbnew,8.0.2*%
%TF.CreationDate,2024-05-15T22:30:45+02:00*%
%TF.ProjectId,micha_board,6d696368-615f-4626-9f61-72642e6b6963,rev?*%
%TF.SameCoordinates,Original*%
%TF.FileFunction,Legend,Top*%
%TF.FilePolarity,Positive*%
%FSLAX46Y46*%
G04 Gerber Fmt 4.6, Leading zero omitted, Abs format (unit mm)*
G04 Created by KiCad (PCBNEW 8.0.2) date 2024-05-15 22:30:45*
%MOMM*%
%LPD*%
G01*
G04 APERTURE LIST*
%ADD10C,0.150000*%
%ADD11C,0.120000*%
G04 APERTURE END LIST*
D10*
X460107200Y-33683332D02*
X460154819Y-33540475D01*
X460154819Y-33540475D02*
X460154819Y-33302380D01*
X460154819Y-33302380D02*
X460107200Y-33207142D01*
X460107200Y-33207142D02*
X460059580Y-33159523D01*
X460059580Y-33159523D02*
X459964342Y-33111904D01*
X459964342Y-33111904D02*
X459869104Y-33111904D01*
X459869104Y-33111904D02*
X459773866Y-33159523D01*
X459773866Y-33159523D02*
X459726247Y-33207142D01*
X459726247Y-33207142D02*
X459678628Y-33302380D01*
X459678628Y-33302380D02*
X459631009Y-33492856D01*
X459631009Y-33492856D02*
X459583390Y-33588094D01*
X459583390Y-33588094D02*
X459535771Y-33635713D01*
X459535771Y-33635713D02*
X459440533Y-33683332D01*
X459440533Y-33683332D02*
X459345295Y-33683332D01*
X459345295Y-33683332D02*
X459250057Y-33635713D01*
X459250057Y-33635713D02*
X459202438Y-33588094D01*
X459202438Y-33588094D02*
X459154819Y-33492856D01*
X459154819Y-33492856D02*
X459154819Y-33254761D01*
X459154819Y-33254761D02*
X459202438Y-33111904D01*
X459154819Y-32778570D02*
X460154819Y-32540475D01*
X460154819Y-32540475D02*
X459440533Y-32349999D01*
X459440533Y-32349999D02*
X460154819Y-32159523D01*
X460154819Y-32159523D02*
X459154819Y-31921428D01*
X459250057Y-31588094D02*
X459202438Y-31540475D01*
X459202438Y-31540475D02*
X459154819Y-31445237D01*
X459154819Y-31445237D02*
X459154819Y-31207142D01*
X459154819Y-31207142D02*
X459202438Y-31111904D01*
X459202438Y-31111904D02*
X459250057Y-31064285D01*
X459250057Y-31064285D02*
X459345295Y-31016666D01*
X459345295Y-31016666D02*
X459440533Y-31016666D01*
X459440533Y-31016666D02*
X459583390Y-31064285D01*
X459583390Y-31064285D02*
X460154819Y-31635713D01*
X460154819Y-31635713D02*
X460154819Y-31016666D01*
X422107200Y-33683332D02*
X422154819Y-33540475D01*
X422154819Y-33540475D02*
X422154819Y-33302380D01*
X422154819Y-33302380D02*
X422107200Y-33207142D01*
X422107200Y-33207142D02*
X422059580Y-33159523D01*
X422059580Y-33159523D02*
X421964342Y-33111904D01*
X421964342Y-33111904D02*
X421869104Y-33111904D01*
X421869104Y-33111904D02*
X421773866Y-33159523D01*
X421773866Y-33159523D02*
X421726247Y-33207142D01*
X421726247Y-33207142D02*
X421678628Y-33302380D01*
X421678628Y-33302380D02*
X421631009Y-33492856D01*
X421631009Y-33492856D02*
X421583390Y-33588094D01*
X421583390Y-33588094D02*
X421535771Y-33635713D01*
X421535771Y-33635713D02*
X421440533Y-33683332D01*
X421440533Y-33683332D02*
X421345295Y-33683332D01*
X421345295Y-33683332D02*
X421250057Y-33635713D01*
X421250057Y-33635713D02*
X421202438Y-33588094D01*
X421202438Y-33588094D02*
X421154819Y-33492856D01*
X421154819Y-33492856D02*
X421154819Y-33254761D01*
X421154819Y-33254761D02*
X421202438Y-33111904D01*
X421154819Y-32778570D02*
X422154819Y-32540475D01*
X422154819Y-32540475D02*
X421440533Y-32349999D01*
X421440533Y-32349999D02*
X422154819Y-32159523D01*
X422154819Y-32159523D02*
X421154819Y-31921428D01*
X422154819Y-31016666D02*
X422154819Y-31588094D01*
X422154819Y-31302380D02*
X421154819Y-31302380D01*
X421154819Y-31302380D02*
X421297676Y-31397618D01*
X421297676Y-31397618D02*
X421392914Y-31492856D01*
X421392914Y-31492856D02*
X421440533Y-31588094D01*
D11*
%TO.C,SW2*%
X460600000Y-44000000D02*
X460600000Y-41600000D01*
X464700000Y-44000000D02*
X460600000Y-44000000D01*
X468700000Y-44000000D02*
X472800000Y-44000000D01*
X472800000Y-44000000D02*
X472800000Y-32200000D01*
X460600000Y-39400000D02*
X460600000Y-36800000D01*
X460600000Y-34600000D02*
X460600000Y-32200000D01*
X460600000Y-32200000D02*
X464700000Y-32200000D01*
X468700000Y-32200000D02*
X472800000Y-32200000D01*
X468700000Y-38100000D02*
G75*
G02*
X464700000Y-38100000I-2000000J0D01*
G01*
X464700000Y-38100000D02*
G75*
G02*
X468700000Y-38100000I2000000J0D01*
G01*
X472598108Y-38100000D02*
X472268108Y-38340000D01*
X472268108Y-37860000D01*
X472598108Y-38100000D01*
G36*
X472598108Y-38100000D02*
G01*
X472268108Y-38340000D01*
X472268108Y-37860000D01*
X472598108Y-38100000D01*
G37*
%TO.C,SW1*%
X422600000Y-44000000D02*
X422600000Y-41600000D01*
X426700000Y-44000000D02*
X422600000Y-44000000D01*
X430700000Y-44000000D02*
X434800000Y-44000000D01*
X434800000Y-44000000D02*
X434800000Y-32200000D01*
X422600000Y-39400000D02*
X422600000Y-36800000D01*
X422600000Y-34600000D02*
X422600000Y-32200000D01*
X422600000Y-32200000D02*
X426700000Y-32200000D01*
X430700000Y-32200000D02*
X434800000Y-32200000D01*
X430700000Y-38100000D02*
G75*
G02*
X426700000Y-38100000I-2000000J0D01*
G01*
X426700000Y-38100000D02*
G75*
G02*
X430700000Y-38100000I2000000J0D01*
G01*
X434598108Y-38100000D02*
X434268108Y-38340000D01*
X434268108Y-37860000D01*
X434598108Y-38100000D01*
G36*
X434598108Y-38100000D02*
G01*
X434268108Y-38340000D01*
X434268108Y-37860000D01*
X434598108Y-38100000D01*
G37*
%TD*%
M02*
