%TF.GenerationSoftware,KiCad,Pcbnew,8.0.2*%
%TF.CreationDate,2024-05-15T22:30:45+02:00*%
%TF.ProjectId,micha_board,6d696368-615f-4626-9f61-72642e6b6963,rev?*%
%TF.SameCoordinates,Original*%
%TF.FileFunction,Copper,L2,Bot*%
%TF.FilePolarity,Positive*%
%FSLAX46Y46*%
G04 Gerber Fmt 4.6, Leading zero omitted, Abs format (unit mm)*
G04 Created by KiCad (PCBNEW 8.0.2) date 2024-05-15 22:30:45*
%MOMM*%
%LPD*%
G01*
G04 APERTURE LIST*
G04 Aperture macros list*
%AMRoundRect*
0 Rectangle with rounded corners*
0 $1 Rounding radius*
0 $2 $3 $4 $5 $6 $7 $8 $9 X,Y pos of 4 corners*
0 Add a 4 corners polygon primitive as box body*
4,1,4,$2,$3,$4,$5,$6,$7,$8,$9,$2,$3,0*
0 Add four circle primitives for the rounded corners*
1,1,$1+$1,$2,$3*
1,1,$1+$1,$4,$5*
1,1,$1+$1,$6,$7*
1,1,$1+$1,$8,$9*
0 Add four rect primitives between the rounded corners*
20,1,$1+$1,$2,$3,$4,$5,0*
20,1,$1+$1,$4,$5,$6,$7,0*
20,1,$1+$1,$6,$7,$8,$9,0*
20,1,$1+$1,$8,$9,$2,$3,0*%
%AMFreePoly0*
4,1,18,-0.410000,0.593000,-0.403758,0.624380,-0.385983,0.650983,-0.359380,0.668758,-0.328000,0.675000,0.328000,0.675000,0.359380,0.668758,0.385983,0.650983,0.403758,0.624380,0.410000,0.593000,0.410000,-0.593000,0.403758,-0.624380,0.385983,-0.650983,0.359380,-0.668758,0.328000,-0.675000,0.000000,-0.675000,-0.410000,-0.265000,-0.410000,0.593000,-0.410000,0.593000,$1*%
G04 Aperture macros list end*
%TA.AperFunction,SMDPad,CuDef*%
%ADD10R,0.600000X1.450000*%
%TD*%
%TA.AperFunction,SMDPad,CuDef*%
%ADD11R,0.300000X1.450000*%
%TD*%
%TA.AperFunction,ComponentPad*%
%ADD12O,1.000000X2.100000*%
%TD*%
%TA.AperFunction,ComponentPad*%
%ADD13O,1.000000X1.600000*%
%TD*%
%TA.AperFunction,ComponentPad*%
%ADD14C,2.000000*%
%TD*%
%TA.AperFunction,ComponentPad*%
%ADD15RoundRect,0.500000X0.500000X0.500000X-0.500000X0.500000X-0.500000X-0.500000X0.500000X-0.500000X0*%
%TD*%
%TA.AperFunction,ComponentPad*%
%ADD16RoundRect,0.550000X1.150000X0.550000X-1.150000X0.550000X-1.150000X-0.550000X1.150000X-0.550000X0*%
%TD*%
%TA.AperFunction,SMDPad,CuDef*%
%ADD17RoundRect,0.225000X0.375000X-0.225000X0.375000X0.225000X-0.375000X0.225000X-0.375000X-0.225000X0*%
%TD*%
%TA.AperFunction,ComponentPad*%
%ADD18C,4.000000*%
%TD*%
%TA.AperFunction,ComponentPad*%
%ADD19C,3.300000*%
%TD*%
%TA.AperFunction,SMDPad,CuDef*%
%ADD20R,1.650000X2.500000*%
%TD*%
%TA.AperFunction,SMDPad,CuDef*%
%ADD21RoundRect,0.250000X1.025000X1.000000X-1.025000X1.000000X-1.025000X-1.000000X1.025000X-1.000000X0*%
%TD*%
%TA.AperFunction,SMDPad,CuDef*%
%ADD22RoundRect,0.082000X0.593000X-0.328000X0.593000X0.328000X-0.593000X0.328000X-0.593000X-0.328000X0*%
%TD*%
%TA.AperFunction,SMDPad,CuDef*%
%ADD23FreePoly0,90.000000*%
%TD*%
%TA.AperFunction,SMDPad,CuDef*%
%ADD24RoundRect,0.140000X0.140000X0.170000X-0.140000X0.170000X-0.140000X-0.170000X0.140000X-0.170000X0*%
%TD*%
%TA.AperFunction,SMDPad,CuDef*%
%ADD25RoundRect,0.075000X0.662500X0.075000X-0.662500X0.075000X-0.662500X-0.075000X0.662500X-0.075000X0*%
%TD*%
%TA.AperFunction,SMDPad,CuDef*%
%ADD26RoundRect,0.075000X0.075000X0.662500X-0.075000X0.662500X-0.075000X-0.662500X0.075000X-0.662500X0*%
%TD*%
%TA.AperFunction,SMDPad,CuDef*%
%ADD27RoundRect,0.140000X0.170000X-0.140000X0.170000X0.140000X-0.170000X0.140000X-0.170000X-0.140000X0*%
%TD*%
%TA.AperFunction,SMDPad,CuDef*%
%ADD28R,1.700000X1.000000*%
%TD*%
%TA.AperFunction,SMDPad,CuDef*%
%ADD29R,1.000000X0.700000*%
%TD*%
%TA.AperFunction,SMDPad,CuDef*%
%ADD30R,0.600000X0.700000*%
%TD*%
%TA.AperFunction,SMDPad,CuDef*%
%ADD31RoundRect,0.140000X-0.140000X-0.170000X0.140000X-0.170000X0.140000X0.170000X-0.140000X0.170000X0*%
%TD*%
%TA.AperFunction,SMDPad,CuDef*%
%ADD32RoundRect,0.150000X-0.150000X0.587500X-0.150000X-0.587500X0.150000X-0.587500X0.150000X0.587500X0*%
%TD*%
%TA.AperFunction,SMDPad,CuDef*%
%ADD33RoundRect,0.135000X-0.185000X0.135000X-0.185000X-0.135000X0.185000X-0.135000X0.185000X0.135000X0*%
%TD*%
%TA.AperFunction,SMDPad,CuDef*%
%ADD34RoundRect,0.140000X-0.170000X0.140000X-0.170000X-0.140000X0.170000X-0.140000X0.170000X0.140000X0*%
%TD*%
%TA.AperFunction,SMDPad,CuDef*%
%ADD35RoundRect,0.250000X0.625000X-0.375000X0.625000X0.375000X-0.625000X0.375000X-0.625000X-0.375000X0*%
%TD*%
%TA.AperFunction,SMDPad,CuDef*%
%ADD36RoundRect,0.135000X0.185000X-0.135000X0.185000X0.135000X-0.185000X0.135000X-0.185000X-0.135000X0*%
%TD*%
%TA.AperFunction,SMDPad,CuDef*%
%ADD37RoundRect,0.225000X0.250000X-0.225000X0.250000X0.225000X-0.250000X0.225000X-0.250000X-0.225000X0*%
%TD*%
%TA.AperFunction,ViaPad*%
%ADD38C,0.800000*%
%TD*%
%TA.AperFunction,Conductor*%
%ADD39C,0.250000*%
%TD*%
%TA.AperFunction,Conductor*%
%ADD40C,0.400000*%
%TD*%
%TA.AperFunction,Conductor*%
%ADD41C,0.300000*%
%TD*%
%TA.AperFunction,Conductor*%
%ADD42C,0.200000*%
%TD*%
G04 APERTURE END LIST*
D10*
%TO.P,J1,A1,GND*%
%TO.N,GND*%
X258650000Y-35545000D03*
%TO.P,J1,A4,VBUS*%
%TO.N,VBUS*%
X259450000Y-35545000D03*
D11*
%TO.P,J1,A5,CC1*%
%TO.N,Net-(J1-CC1)*%
X260650000Y-35545000D03*
%TO.P,J1,A6,D+*%
%TO.N,D+*%
X261650000Y-35545000D03*
%TO.P,J1,A7,D-*%
%TO.N,D-*%
X262150000Y-35545000D03*
%TO.P,J1,A8,SBU1*%
%TO.N,unconnected-(J1-SBU1-PadA8)*%
X263150000Y-35545000D03*
D10*
%TO.P,J1,A9,VBUS*%
%TO.N,VBUS*%
X264350000Y-35545000D03*
%TO.P,J1,A12,GND*%
%TO.N,GND*%
X265150000Y-35545000D03*
%TO.P,J1,B1,GND*%
X265150000Y-35545000D03*
%TO.P,J1,B4,VBUS*%
%TO.N,VBUS*%
X264350000Y-35545000D03*
D11*
%TO.P,J1,B5,CC2*%
%TO.N,Net-(J1-CC2)*%
X263650000Y-35545000D03*
%TO.P,J1,B6,D+*%
%TO.N,D+*%
X262650000Y-35545000D03*
%TO.P,J1,B7,D-*%
%TO.N,D-*%
X261150000Y-35545000D03*
%TO.P,J1,B8,SBU2*%
%TO.N,unconnected-(J1-SBU2-PadB8)*%
X260150000Y-35545000D03*
D10*
%TO.P,J1,B9,VBUS*%
%TO.N,VBUS*%
X259450000Y-35545000D03*
%TO.P,J1,B12,GND*%
%TO.N,GND*%
X258650000Y-35545000D03*
D12*
%TO.P,J1,S1,SHIELD*%
X257580000Y-34630000D03*
D13*
X257580000Y-30450000D03*
D12*
X266220000Y-34630000D03*
D13*
X266220000Y-30450000D03*
%TD*%
D14*
%TO.P,SW2,A,A*%
%TO.N,ENC1_B*%
X474200000Y-40600000D03*
%TO.P,SW2,B,B*%
%TO.N,ENC1_A*%
X474200000Y-35600000D03*
D15*
%TO.P,SW2,C,C*%
%TO.N,GND*%
X474200000Y-38100000D03*
D16*
%TO.P,SW2,MP*%
%TO.N,N/C*%
X466700000Y-43700000D03*
X466700000Y-32500000D03*
D14*
%TO.P,SW2,S1,S1*%
%TO.N,COL19*%
X459700000Y-35600000D03*
%TO.P,SW2,S2,S2*%
%TO.N,Net-(D112-A)*%
X459700000Y-40600000D03*
%TD*%
%TO.P,SW1,A,A*%
%TO.N,ENC0_B*%
X436200000Y-40600000D03*
%TO.P,SW1,B,B*%
%TO.N,ENC0_A*%
X436200000Y-35600000D03*
D15*
%TO.P,SW1,C,C*%
%TO.N,GND*%
X436200000Y-38100000D03*
D16*
%TO.P,SW1,MP*%
%TO.N,N/C*%
X428700000Y-43700000D03*
X428700000Y-32500000D03*
D14*
%TO.P,SW1,S1,S1*%
%TO.N,COL17*%
X421700000Y-35600000D03*
%TO.P,SW1,S2,S2*%
%TO.N,Net-(D111-A)*%
X421700000Y-40600000D03*
%TD*%
D17*
%TO.P,D112,1,K*%
%TO.N,ROW0*%
X459700000Y-49350000D03*
%TO.P,D112,2,A*%
%TO.N,Net-(D112-A)*%
X459700000Y-46050000D03*
%TD*%
%TO.P,D111,1,K*%
%TO.N,ROW0*%
X421700000Y-49350000D03*
%TO.P,D111,2,A*%
%TO.N,Net-(D111-A)*%
X421700000Y-46050000D03*
%TD*%
D18*
%TO.P,S8,*%
%TO.N,*%
X335756250Y-73660000D03*
X311943750Y-73660000D03*
%TD*%
%TO.P,S4,*%
%TO.N,*%
X328612500Y-130730625D03*
X304800000Y-130730625D03*
%TD*%
%TO.P,S7,*%
%TO.N,*%
X483235000Y-83343750D03*
X483235000Y-107156250D03*
%TD*%
%TO.P,S6,*%
%TO.N,*%
X483235000Y-121443750D03*
X483235000Y-145256250D03*
%TD*%
%TO.P,S5,*%
%TO.N,*%
X440531250Y-149860000D03*
X416718750Y-149860000D03*
%TD*%
%TO.P,S3,*%
%TO.N,*%
X333375000Y-111760000D03*
X309562500Y-111760000D03*
%TD*%
%TO.P,S2,*%
%TO.N,*%
X90487500Y-130810000D03*
X66675000Y-130810000D03*
%TD*%
%TO.P,S1,*%
%TO.N,*%
X238125000Y-149860000D03*
X138112500Y-149860000D03*
%TD*%
D19*
%TO.P,MX110,1,1*%
%TO.N,COL19*%
X453390000Y-140335000D03*
D20*
X451565000Y-140335000D03*
D21*
X449840000Y-140335000D03*
%TO.P,MX110,2,2*%
%TO.N,Net-(D110-A)*%
X463290000Y-137795000D03*
D20*
X461540000Y-137795000D03*
D19*
X459740000Y-137795000D03*
%TD*%
%TO.P,MX109,1,1*%
%TO.N,COL17*%
X424815000Y-140335000D03*
D20*
X422990000Y-140335000D03*
D21*
X421265000Y-140335000D03*
%TO.P,MX109,2,2*%
%TO.N,Net-(D109-A)*%
X434715000Y-137795000D03*
D20*
X432965000Y-137795000D03*
D19*
X431165000Y-137795000D03*
%TD*%
%TO.P,MX108,1,1*%
%TO.N,COL16*%
X391477500Y-140335000D03*
D20*
X389652500Y-140335000D03*
D21*
X387927500Y-140335000D03*
%TO.P,MX108,2,2*%
%TO.N,Net-(D108-A)*%
X401377500Y-137795000D03*
D20*
X399627500Y-137795000D03*
D19*
X397827500Y-137795000D03*
%TD*%
%TO.P,MX107,1,1*%
%TO.N,COL15*%
X372427500Y-140335000D03*
D20*
X370602500Y-140335000D03*
D21*
X368877500Y-140335000D03*
%TO.P,MX107,2,2*%
%TO.N,Net-(D107-A)*%
X382327500Y-137795000D03*
D20*
X380577500Y-137795000D03*
D19*
X378777500Y-137795000D03*
%TD*%
%TO.P,MX106,1,1*%
%TO.N,COL14*%
X353377500Y-140335000D03*
D20*
X351552500Y-140335000D03*
D21*
X349827500Y-140335000D03*
%TO.P,MX106,2,2*%
%TO.N,Net-(D106-A)*%
X363277500Y-137795000D03*
D20*
X361527500Y-137795000D03*
D19*
X359727500Y-137795000D03*
%TD*%
%TO.P,MX105,1,1*%
%TO.N,COL13*%
X327183750Y-140335000D03*
D20*
X325358750Y-140335000D03*
D21*
X323633750Y-140335000D03*
%TO.P,MX105,2,2*%
%TO.N,Net-(D105-A)*%
X337083750Y-137795000D03*
D20*
X335333750Y-137795000D03*
D19*
X333533750Y-137795000D03*
%TD*%
%TO.P,MX104,1,1*%
%TO.N,COL12*%
X303371250Y-140335000D03*
D20*
X301546250Y-140335000D03*
D21*
X299821250Y-140335000D03*
%TO.P,MX104,2,2*%
%TO.N,Net-(D104-A)*%
X313271250Y-137795000D03*
D20*
X311521250Y-137795000D03*
D19*
X309721250Y-137795000D03*
%TD*%
%TO.P,MX103,1,1*%
%TO.N,COL10*%
X279558750Y-140335000D03*
D20*
X277733750Y-140335000D03*
D21*
X276008750Y-140335000D03*
%TO.P,MX103,2,2*%
%TO.N,Net-(D103-A)*%
X289458750Y-137795000D03*
D20*
X287708750Y-137795000D03*
D19*
X285908750Y-137795000D03*
%TD*%
%TO.P,MX102,1,1*%
%TO.N,COL09*%
X255746250Y-140335000D03*
D20*
X253921250Y-140335000D03*
D21*
X252196250Y-140335000D03*
%TO.P,MX102,2,2*%
%TO.N,Net-(D102-A)*%
X265646250Y-137795000D03*
D20*
X263896250Y-137795000D03*
D19*
X262096250Y-137795000D03*
%TD*%
%TO.P,MX101,1,1*%
%TO.N,COL05*%
X184308750Y-140335000D03*
D20*
X182483750Y-140335000D03*
D21*
X180758750Y-140335000D03*
%TO.P,MX101,2,2*%
%TO.N,Net-(D101-A)*%
X194208750Y-137795000D03*
D20*
X192458750Y-137795000D03*
D19*
X190658750Y-137795000D03*
%TD*%
%TO.P,MX100,1,1*%
%TO.N,COL02*%
X112871250Y-140335000D03*
D20*
X111046250Y-140335000D03*
D21*
X109321250Y-140335000D03*
%TO.P,MX100,2,2*%
%TO.N,Net-(D100-A)*%
X122771250Y-137795000D03*
D20*
X121021250Y-137795000D03*
D19*
X119221250Y-137795000D03*
%TD*%
%TO.P,MX99,1,1*%
%TO.N,Net-(MX20-Pad1)*%
X89058750Y-140335000D03*
D20*
X87233750Y-140335000D03*
D21*
X85508750Y-140335000D03*
%TO.P,MX99,2,2*%
%TO.N,Net-(D99-A)*%
X98958750Y-137795000D03*
D20*
X97208750Y-137795000D03*
D19*
X95408750Y-137795000D03*
%TD*%
%TO.P,MX98,1,1*%
%TO.N,COL01*%
X65246250Y-140335000D03*
D20*
X63421250Y-140335000D03*
D21*
X61696250Y-140335000D03*
%TO.P,MX98,2,2*%
%TO.N,Net-(D98-A)*%
X75146250Y-137795000D03*
D20*
X73396250Y-137795000D03*
D19*
X71596250Y-137795000D03*
%TD*%
%TO.P,MX97,1,1*%
%TO.N,COL00*%
X34290000Y-140335000D03*
D20*
X32465000Y-140335000D03*
D21*
X30740000Y-140335000D03*
%TO.P,MX97,2,2*%
%TO.N,Net-(D97-A)*%
X44190000Y-137795000D03*
D20*
X42440000Y-137795000D03*
D19*
X40640000Y-137795000D03*
%TD*%
%TO.P,MX96,1,1*%
%TO.N,COL08*%
X472440000Y-130810000D03*
D20*
X470615000Y-130810000D03*
D21*
X468890000Y-130810000D03*
%TO.P,MX96,2,2*%
%TO.N,Net-(D96-A)*%
X482340000Y-128270000D03*
D20*
X480590000Y-128270000D03*
D19*
X478790000Y-128270000D03*
%TD*%
%TO.P,MX95,1,1*%
%TO.N,COL19*%
X453390000Y-121285000D03*
D20*
X451565000Y-121285000D03*
D21*
X449840000Y-121285000D03*
%TO.P,MX95,2,2*%
%TO.N,Net-(D95-A)*%
X463290000Y-118745000D03*
D20*
X461540000Y-118745000D03*
D19*
X459740000Y-118745000D03*
%TD*%
%TO.P,MX94,1,1*%
%TO.N,COL14*%
X434340000Y-121285000D03*
D20*
X432515000Y-121285000D03*
D21*
X430790000Y-121285000D03*
%TO.P,MX94,2,2*%
%TO.N,Net-(D94-A)*%
X444240000Y-118745000D03*
D20*
X442490000Y-118745000D03*
D19*
X440690000Y-118745000D03*
%TD*%
%TO.P,MX93,1,1*%
%TO.N,COL17*%
X415290000Y-121285000D03*
D20*
X413465000Y-121285000D03*
D21*
X411740000Y-121285000D03*
%TO.P,MX93,2,2*%
%TO.N,Net-(D93-A)*%
X425190000Y-118745000D03*
D20*
X423440000Y-118745000D03*
D19*
X421640000Y-118745000D03*
%TD*%
%TO.P,MX92,1,1*%
%TO.N,COL15*%
X372427500Y-121285000D03*
D20*
X370602500Y-121285000D03*
D21*
X368877500Y-121285000D03*
%TO.P,MX92,2,2*%
%TO.N,Net-(D92-A)*%
X382327500Y-118745000D03*
D20*
X380577500Y-118745000D03*
D19*
X378777500Y-118745000D03*
%TD*%
%TO.P,MX91,1,1*%
%TO.N,COL13*%
X312896250Y-121285000D03*
D20*
X311071250Y-121285000D03*
D21*
X309346250Y-121285000D03*
%TO.P,MX91,2,2*%
%TO.N,Net-(D91-A)*%
X322796250Y-118745000D03*
D20*
X321046250Y-118745000D03*
D19*
X319246250Y-118745000D03*
%TD*%
%TO.P,MX90,1,1*%
%TO.N,COL10*%
X277177500Y-121285000D03*
D20*
X275352500Y-121285000D03*
D21*
X273627500Y-121285000D03*
%TO.P,MX90,2,2*%
%TO.N,Net-(D90-A)*%
X287077500Y-118745000D03*
D20*
X285327500Y-118745000D03*
D19*
X283527500Y-118745000D03*
%TD*%
%TO.P,MX89,1,1*%
%TO.N,COL09*%
X258127500Y-121285000D03*
D20*
X256302500Y-121285000D03*
D21*
X254577500Y-121285000D03*
%TO.P,MX89,2,2*%
%TO.N,Net-(D89-A)*%
X268027500Y-118745000D03*
D20*
X266277500Y-118745000D03*
D19*
X264477500Y-118745000D03*
%TD*%
%TO.P,MX88,1,1*%
%TO.N,COL08*%
X239077500Y-121285000D03*
D20*
X237252500Y-121285000D03*
D21*
X235527500Y-121285000D03*
%TO.P,MX88,2,2*%
%TO.N,Net-(D88-A)*%
X248977500Y-118745000D03*
D20*
X247227500Y-118745000D03*
D19*
X245427500Y-118745000D03*
%TD*%
%TO.P,MX87,1,1*%
%TO.N,COL07*%
X220027500Y-121285000D03*
D20*
X218202500Y-121285000D03*
D21*
X216477500Y-121285000D03*
%TO.P,MX87,2,2*%
%TO.N,Net-(D87-A)*%
X229927500Y-118745000D03*
D20*
X228177500Y-118745000D03*
D19*
X226377500Y-118745000D03*
%TD*%
%TO.P,MX86,1,1*%
%TO.N,COL06*%
X200977500Y-121285000D03*
D20*
X199152500Y-121285000D03*
D21*
X197427500Y-121285000D03*
%TO.P,MX86,2,2*%
%TO.N,Net-(D86-A)*%
X210877500Y-118745000D03*
D20*
X209127500Y-118745000D03*
D19*
X207327500Y-118745000D03*
%TD*%
%TO.P,MX85,1,1*%
%TO.N,COL05*%
X181927500Y-121285000D03*
D20*
X180102500Y-121285000D03*
D21*
X178377500Y-121285000D03*
%TO.P,MX85,2,2*%
%TO.N,Net-(D85-A)*%
X191827500Y-118745000D03*
D20*
X190077500Y-118745000D03*
D19*
X188277500Y-118745000D03*
%TD*%
%TO.P,MX84,1,1*%
%TO.N,COL04*%
X162877500Y-121285000D03*
D20*
X161052500Y-121285000D03*
D21*
X159327500Y-121285000D03*
%TO.P,MX84,2,2*%
%TO.N,Net-(D84-A)*%
X172777500Y-118745000D03*
D20*
X171027500Y-118745000D03*
D19*
X169227500Y-118745000D03*
%TD*%
%TO.P,MX83,1,1*%
%TO.N,COL03*%
X143827500Y-121285000D03*
D20*
X142002500Y-121285000D03*
D21*
X140277500Y-121285000D03*
%TO.P,MX83,2,2*%
%TO.N,Net-(D83-A)*%
X153727500Y-118745000D03*
D20*
X151977500Y-118745000D03*
D19*
X150177500Y-118745000D03*
%TD*%
%TO.P,MX82,1,1*%
%TO.N,COL02*%
X124777500Y-121285000D03*
D20*
X122952500Y-121285000D03*
D21*
X121227500Y-121285000D03*
%TO.P,MX82,2,2*%
%TO.N,Net-(D82-A)*%
X134677500Y-118745000D03*
D20*
X132927500Y-118745000D03*
D19*
X131127500Y-118745000D03*
%TD*%
%TO.P,MX81,1,1*%
%TO.N,Net-(MX20-Pad1)*%
X105727500Y-121285000D03*
D20*
X103902500Y-121285000D03*
D21*
X102177500Y-121285000D03*
%TO.P,MX81,2,2*%
%TO.N,Net-(D81-A)*%
X115627500Y-118745000D03*
D20*
X113877500Y-118745000D03*
D19*
X112077500Y-118745000D03*
%TD*%
%TO.P,MX80,1,1*%
%TO.N,COL01*%
X74771250Y-121285000D03*
D20*
X72946250Y-121285000D03*
D21*
X71221250Y-121285000D03*
%TO.P,MX80,2,2*%
%TO.N,Net-(D80-A)*%
X84671250Y-118745000D03*
D20*
X82921250Y-118745000D03*
D19*
X81121250Y-118745000D03*
%TD*%
%TO.P,MX79,1,1*%
%TO.N,COL00*%
X34290000Y-119380000D03*
D20*
X32465000Y-119380000D03*
D21*
X30740000Y-119380000D03*
%TO.P,MX79,2,2*%
%TO.N,Net-(D79-A)*%
X44190000Y-116840000D03*
D20*
X42440000Y-116840000D03*
D19*
X40640000Y-116840000D03*
%TD*%
%TO.P,MX78,1,1*%
%TO.N,COL19*%
X453390000Y-102235000D03*
D20*
X451565000Y-102235000D03*
D21*
X449840000Y-102235000D03*
%TO.P,MX78,2,2*%
%TO.N,Net-(D78-A)*%
X463290000Y-99695000D03*
D20*
X461540000Y-99695000D03*
D19*
X459740000Y-99695000D03*
%TD*%
%TO.P,MX77,1,1*%
%TO.N,COL14*%
X434340000Y-102235000D03*
D20*
X432515000Y-102235000D03*
D21*
X430790000Y-102235000D03*
%TO.P,MX77,2,2*%
%TO.N,Net-(D77-A)*%
X444240000Y-99695000D03*
D20*
X442490000Y-99695000D03*
D19*
X440690000Y-99695000D03*
%TD*%
%TO.P,MX76,1,1*%
%TO.N,COL17*%
X415290000Y-102235000D03*
D20*
X413465000Y-102235000D03*
D21*
X411740000Y-102235000D03*
%TO.P,MX76,2,2*%
%TO.N,Net-(D76-A)*%
X425190000Y-99695000D03*
D20*
X423440000Y-99695000D03*
D19*
X421640000Y-99695000D03*
%TD*%
%TO.P,MX75,1,1*%
%TO.N,COL13*%
X317658750Y-102235000D03*
D20*
X315833750Y-102235000D03*
D21*
X314108750Y-102235000D03*
%TO.P,MX75,2,2*%
%TO.N,Net-(D75-A)*%
X327558750Y-99695000D03*
D20*
X325808750Y-99695000D03*
D19*
X324008750Y-99695000D03*
%TD*%
%TO.P,MX74,1,1*%
%TO.N,COL11*%
X286702500Y-102235000D03*
D20*
X284877500Y-102235000D03*
D21*
X283152500Y-102235000D03*
%TO.P,MX74,2,2*%
%TO.N,Net-(D74-A)*%
X296602500Y-99695000D03*
D20*
X294852500Y-99695000D03*
D19*
X293052500Y-99695000D03*
%TD*%
%TO.P,MX73,1,1*%
%TO.N,COL10*%
X267652500Y-102235000D03*
D20*
X265827500Y-102235000D03*
D21*
X264102500Y-102235000D03*
%TO.P,MX73,2,2*%
%TO.N,Net-(D73-A)*%
X277552500Y-99695000D03*
D20*
X275802500Y-99695000D03*
D19*
X274002500Y-99695000D03*
%TD*%
%TO.P,MX72,1,1*%
%TO.N,COL09*%
X248602500Y-102235000D03*
D20*
X246777500Y-102235000D03*
D21*
X245052500Y-102235000D03*
%TO.P,MX72,2,2*%
%TO.N,Net-(D72-A)*%
X258502500Y-99695000D03*
D20*
X256752500Y-99695000D03*
D19*
X254952500Y-99695000D03*
%TD*%
%TO.P,MX71,1,1*%
%TO.N,COL08*%
X229552500Y-102235000D03*
D20*
X227727500Y-102235000D03*
D21*
X226002500Y-102235000D03*
%TO.P,MX71,2,2*%
%TO.N,Net-(D71-A)*%
X239452500Y-99695000D03*
D20*
X237702500Y-99695000D03*
D19*
X235902500Y-99695000D03*
%TD*%
%TO.P,MX70,1,1*%
%TO.N,COL07*%
X210502500Y-102235000D03*
D20*
X208677500Y-102235000D03*
D21*
X206952500Y-102235000D03*
%TO.P,MX70,2,2*%
%TO.N,Net-(D70-A)*%
X220402500Y-99695000D03*
D20*
X218652500Y-99695000D03*
D19*
X216852500Y-99695000D03*
%TD*%
%TO.P,MX69,1,1*%
%TO.N,COL06*%
X191452500Y-102235000D03*
D20*
X189627500Y-102235000D03*
D21*
X187902500Y-102235000D03*
%TO.P,MX69,2,2*%
%TO.N,Net-(D69-A)*%
X201352500Y-99695000D03*
D20*
X199602500Y-99695000D03*
D19*
X197802500Y-99695000D03*
%TD*%
%TO.P,MX68,1,1*%
%TO.N,COL05*%
X172402500Y-102235000D03*
D20*
X170577500Y-102235000D03*
D21*
X168852500Y-102235000D03*
%TO.P,MX68,2,2*%
%TO.N,Net-(D68-A)*%
X182302500Y-99695000D03*
D20*
X180552500Y-99695000D03*
D19*
X178752500Y-99695000D03*
%TD*%
%TO.P,MX67,1,1*%
%TO.N,COL04*%
X153352500Y-102235000D03*
D20*
X151527500Y-102235000D03*
D21*
X149802500Y-102235000D03*
%TO.P,MX67,2,2*%
%TO.N,Net-(D67-A)*%
X163252500Y-99695000D03*
D20*
X161502500Y-99695000D03*
D19*
X159702500Y-99695000D03*
%TD*%
%TO.P,MX66,1,1*%
%TO.N,COL03*%
X134302500Y-102235000D03*
D20*
X132477500Y-102235000D03*
D21*
X130752500Y-102235000D03*
%TO.P,MX66,2,2*%
%TO.N,Net-(D66-A)*%
X144202500Y-99695000D03*
D20*
X142452500Y-99695000D03*
D19*
X140652500Y-99695000D03*
%TD*%
%TO.P,MX65,1,1*%
%TO.N,COL02*%
X115252500Y-102235000D03*
D20*
X113427500Y-102235000D03*
D21*
X111702500Y-102235000D03*
%TO.P,MX65,2,2*%
%TO.N,Net-(D65-A)*%
X125152500Y-99695000D03*
D20*
X123402500Y-99695000D03*
D19*
X121602500Y-99695000D03*
%TD*%
%TO.P,MX64,1,1*%
%TO.N,Net-(MX20-Pad1)*%
X96202500Y-102235000D03*
D20*
X94377500Y-102235000D03*
D21*
X92652500Y-102235000D03*
%TO.P,MX64,2,2*%
%TO.N,Net-(D64-A)*%
X106102500Y-99695000D03*
D20*
X104352500Y-99695000D03*
D19*
X102552500Y-99695000D03*
%TD*%
%TO.P,MX63,1,1*%
%TO.N,COL01*%
X70008750Y-102235000D03*
D20*
X68183750Y-102235000D03*
D21*
X66458750Y-102235000D03*
%TO.P,MX63,2,2*%
%TO.N,Net-(D63-A)*%
X79908750Y-99695000D03*
D20*
X78158750Y-99695000D03*
D19*
X76358750Y-99695000D03*
%TD*%
%TO.P,MX62,1,1*%
%TO.N,COL00*%
X34290000Y-98425000D03*
D20*
X32465000Y-98425000D03*
D21*
X30740000Y-98425000D03*
%TO.P,MX62,2,2*%
%TO.N,Net-(D62-A)*%
X44190000Y-95885000D03*
D20*
X42440000Y-95885000D03*
D19*
X40640000Y-95885000D03*
%TD*%
%TO.P,MX61,1,1*%
%TO.N,COL07*%
X472440000Y-92710000D03*
D20*
X470615000Y-92710000D03*
D21*
X468890000Y-92710000D03*
%TO.P,MX61,2,2*%
%TO.N,Net-(D61-A)*%
X482340000Y-90170000D03*
D20*
X480590000Y-90170000D03*
D19*
X478790000Y-90170000D03*
%TD*%
%TO.P,MX60,1,1*%
%TO.N,COL19*%
X453390000Y-83185000D03*
D20*
X451565000Y-83185000D03*
D21*
X449840000Y-83185000D03*
%TO.P,MX60,2,2*%
%TO.N,Net-(D60-A)*%
X463290000Y-80645000D03*
D20*
X461540000Y-80645000D03*
D19*
X459740000Y-80645000D03*
%TD*%
%TO.P,MX59,1,1*%
%TO.N,COL16*%
X434340000Y-83185000D03*
D20*
X432515000Y-83185000D03*
D21*
X430790000Y-83185000D03*
%TO.P,MX59,2,2*%
%TO.N,Net-(D59-A)*%
X444240000Y-80645000D03*
D20*
X442490000Y-80645000D03*
D19*
X440690000Y-80645000D03*
%TD*%
%TO.P,MX58,1,1*%
%TO.N,COL17*%
X415290000Y-83185000D03*
D20*
X413465000Y-83185000D03*
D21*
X411740000Y-83185000D03*
%TO.P,MX58,2,2*%
%TO.N,Net-(D58-A)*%
X425190000Y-80645000D03*
D20*
X423440000Y-80645000D03*
D19*
X421640000Y-80645000D03*
%TD*%
%TO.P,MX57,1,1*%
%TO.N,COL16*%
X391477500Y-83185000D03*
D20*
X389652500Y-83185000D03*
D21*
X387927500Y-83185000D03*
%TO.P,MX57,2,2*%
%TO.N,Net-(D57-A)*%
X401377500Y-80645000D03*
D20*
X399627500Y-80645000D03*
D19*
X397827500Y-80645000D03*
%TD*%
%TO.P,MX56,1,1*%
%TO.N,COL15*%
X372427500Y-83185000D03*
D20*
X370602500Y-83185000D03*
D21*
X368877500Y-83185000D03*
%TO.P,MX56,2,2*%
%TO.N,Net-(D56-A)*%
X382327500Y-80645000D03*
D20*
X380577500Y-80645000D03*
D19*
X378777500Y-80645000D03*
%TD*%
%TO.P,MX55,1,1*%
%TO.N,COL14*%
X353377500Y-83185000D03*
D20*
X351552500Y-83185000D03*
D21*
X349827500Y-83185000D03*
%TO.P,MX55,2,2*%
%TO.N,Net-(D55-A)*%
X363277500Y-80645000D03*
D20*
X361527500Y-80645000D03*
D19*
X359727500Y-80645000D03*
%TD*%
%TO.P,MX53,1,1*%
%TO.N,COL12*%
X300990000Y-83185000D03*
D20*
X299165000Y-83185000D03*
D21*
X297440000Y-83185000D03*
%TO.P,MX53,2,2*%
%TO.N,Net-(D53-A)*%
X310890000Y-80645000D03*
D20*
X309140000Y-80645000D03*
D19*
X307340000Y-80645000D03*
%TD*%
%TO.P,MX52,1,1*%
%TO.N,COL11*%
X281940000Y-83185000D03*
D20*
X280115000Y-83185000D03*
D21*
X278390000Y-83185000D03*
%TO.P,MX52,2,2*%
%TO.N,Net-(D52-A)*%
X291840000Y-80645000D03*
D20*
X290090000Y-80645000D03*
D19*
X288290000Y-80645000D03*
%TD*%
%TO.P,MX51,1,1*%
%TO.N,COL10*%
X262890000Y-83185000D03*
D20*
X261065000Y-83185000D03*
D21*
X259340000Y-83185000D03*
%TO.P,MX51,2,2*%
%TO.N,Net-(D51-A)*%
X272790000Y-80645000D03*
D20*
X271040000Y-80645000D03*
D19*
X269240000Y-80645000D03*
%TD*%
%TO.P,MX50,1,1*%
%TO.N,COL09*%
X243840000Y-83185000D03*
D20*
X242015000Y-83185000D03*
D21*
X240290000Y-83185000D03*
%TO.P,MX50,2,2*%
%TO.N,Net-(D50-A)*%
X253740000Y-80645000D03*
D20*
X251990000Y-80645000D03*
D19*
X250190000Y-80645000D03*
%TD*%
%TO.P,MX49,1,1*%
%TO.N,COL08*%
X224790000Y-83185000D03*
D20*
X222965000Y-83185000D03*
D21*
X221240000Y-83185000D03*
%TO.P,MX49,2,2*%
%TO.N,Net-(D49-A)*%
X234690000Y-80645000D03*
D20*
X232940000Y-80645000D03*
D19*
X231140000Y-80645000D03*
%TD*%
%TO.P,MX48,1,1*%
%TO.N,COL07*%
X205740000Y-83185000D03*
D20*
X203915000Y-83185000D03*
D21*
X202190000Y-83185000D03*
%TO.P,MX48,2,2*%
%TO.N,Net-(D48-A)*%
X215640000Y-80645000D03*
D20*
X213890000Y-80645000D03*
D19*
X212090000Y-80645000D03*
%TD*%
%TO.P,MX47,1,1*%
%TO.N,COL06*%
X186690000Y-83185000D03*
D20*
X184865000Y-83185000D03*
D21*
X183140000Y-83185000D03*
%TO.P,MX47,2,2*%
%TO.N,Net-(D47-A)*%
X196590000Y-80645000D03*
D20*
X194840000Y-80645000D03*
D19*
X193040000Y-80645000D03*
%TD*%
%TO.P,MX46,1,1*%
%TO.N,COL05*%
X167640000Y-83185000D03*
D20*
X165815000Y-83185000D03*
D21*
X164090000Y-83185000D03*
%TO.P,MX46,2,2*%
%TO.N,Net-(D46-A)*%
X177540000Y-80645000D03*
D20*
X175790000Y-80645000D03*
D19*
X173990000Y-80645000D03*
%TD*%
%TO.P,MX45,1,1*%
%TO.N,COL04*%
X148590000Y-83185000D03*
D20*
X146765000Y-83185000D03*
D21*
X145040000Y-83185000D03*
%TO.P,MX45,2,2*%
%TO.N,Net-(D45-A)*%
X158490000Y-80645000D03*
D20*
X156740000Y-80645000D03*
D19*
X154940000Y-80645000D03*
%TD*%
%TO.P,MX44,1,1*%
%TO.N,COL03*%
X129540000Y-83185000D03*
D20*
X127715000Y-83185000D03*
D21*
X125990000Y-83185000D03*
%TO.P,MX44,2,2*%
%TO.N,Net-(D44-A)*%
X139440000Y-80645000D03*
D20*
X137690000Y-80645000D03*
D19*
X135890000Y-80645000D03*
%TD*%
%TO.P,MX43,1,1*%
%TO.N,COL02*%
X110490000Y-83185000D03*
D20*
X108665000Y-83185000D03*
D21*
X106940000Y-83185000D03*
%TO.P,MX43,2,2*%
%TO.N,Net-(D43-A)*%
X120390000Y-80645000D03*
D20*
X118640000Y-80645000D03*
D19*
X116840000Y-80645000D03*
%TD*%
%TO.P,MX42,1,1*%
%TO.N,Net-(MX20-Pad1)*%
X91440000Y-83185000D03*
D20*
X89615000Y-83185000D03*
D21*
X87890000Y-83185000D03*
%TO.P,MX42,2,2*%
%TO.N,Net-(D42-A)*%
X101340000Y-80645000D03*
D20*
X99590000Y-80645000D03*
D19*
X97790000Y-80645000D03*
%TD*%
%TO.P,MX41,1,1*%
%TO.N,COL01*%
X67627500Y-83185000D03*
D20*
X65802500Y-83185000D03*
D21*
X64077500Y-83185000D03*
%TO.P,MX41,2,2*%
%TO.N,Net-(D41-A)*%
X77527500Y-80645000D03*
D20*
X75777500Y-80645000D03*
D19*
X73977500Y-80645000D03*
%TD*%
%TO.P,MX40,1,1*%
%TO.N,COL00*%
X34290000Y-77470000D03*
D20*
X32465000Y-77470000D03*
D21*
X30740000Y-77470000D03*
%TO.P,MX40,2,2*%
%TO.N,Net-(D40-A)*%
X44190000Y-74930000D03*
D20*
X42440000Y-74930000D03*
D19*
X40640000Y-74930000D03*
%TD*%
%TO.P,MX39,1,1*%
%TO.N,COL06*%
X472440000Y-64135000D03*
D20*
X470615000Y-64135000D03*
D21*
X468890000Y-64135000D03*
%TO.P,MX39,2,2*%
%TO.N,Net-(D39-A)*%
X482340000Y-61595000D03*
D20*
X480590000Y-61595000D03*
D19*
X478790000Y-61595000D03*
%TD*%
%TO.P,MX38,1,1*%
%TO.N,COL19*%
X453390000Y-64135000D03*
D20*
X451565000Y-64135000D03*
D21*
X449840000Y-64135000D03*
%TO.P,MX38,2,2*%
%TO.N,Net-(D38-A)*%
X463290000Y-61595000D03*
D20*
X461540000Y-61595000D03*
D19*
X459740000Y-61595000D03*
%TD*%
%TO.P,MX37,1,1*%
%TO.N,COL16*%
X434340000Y-64135000D03*
D20*
X432515000Y-64135000D03*
D21*
X430790000Y-64135000D03*
%TO.P,MX37,2,2*%
%TO.N,Net-(D37-A)*%
X444240000Y-61595000D03*
D20*
X442490000Y-61595000D03*
D19*
X440690000Y-61595000D03*
%TD*%
%TO.P,MX36,1,1*%
%TO.N,COL17*%
X415290000Y-64135000D03*
D20*
X413465000Y-64135000D03*
D21*
X411740000Y-64135000D03*
%TO.P,MX36,2,2*%
%TO.N,Net-(D36-A)*%
X425190000Y-61595000D03*
D20*
X423440000Y-61595000D03*
D19*
X421640000Y-61595000D03*
%TD*%
%TO.P,MX35,1,1*%
%TO.N,COL16*%
X391477500Y-64135000D03*
D20*
X389652500Y-64135000D03*
D21*
X387927500Y-64135000D03*
%TO.P,MX35,2,2*%
%TO.N,Net-(D35-A)*%
X401377500Y-61595000D03*
D20*
X399627500Y-61595000D03*
D19*
X397827500Y-61595000D03*
%TD*%
%TO.P,MX34,1,1*%
%TO.N,COL15*%
X372427500Y-64135000D03*
D20*
X370602500Y-64135000D03*
D21*
X368877500Y-64135000D03*
%TO.P,MX34,2,2*%
%TO.N,Net-(D34-A)*%
X382327500Y-61595000D03*
D20*
X380577500Y-61595000D03*
D19*
X378777500Y-61595000D03*
%TD*%
%TO.P,MX33,1,1*%
%TO.N,COL14*%
X353377500Y-64135000D03*
D20*
X351552500Y-64135000D03*
D21*
X349827500Y-64135000D03*
%TO.P,MX33,2,2*%
%TO.N,Net-(D33-A)*%
X363277500Y-61595000D03*
D20*
X361527500Y-61595000D03*
D19*
X359727500Y-61595000D03*
%TD*%
%TO.P,MX32,1,1*%
%TO.N,COL13*%
X320040000Y-64135000D03*
D20*
X318215000Y-64135000D03*
D21*
X316490000Y-64135000D03*
%TO.P,MX32,2,2*%
%TO.N,Net-(D32-A)*%
X329940000Y-61595000D03*
D20*
X328190000Y-61595000D03*
D19*
X326390000Y-61595000D03*
%TD*%
%TO.P,MX31,1,1*%
%TO.N,COL12*%
X291465000Y-64135000D03*
D20*
X289640000Y-64135000D03*
D21*
X287915000Y-64135000D03*
%TO.P,MX31,2,2*%
%TO.N,Net-(D31-A)*%
X301365000Y-61595000D03*
D20*
X299615000Y-61595000D03*
D19*
X297815000Y-61595000D03*
%TD*%
%TO.P,MX30,1,1*%
%TO.N,COL11*%
X272415000Y-64135000D03*
D20*
X270590000Y-64135000D03*
D21*
X268865000Y-64135000D03*
%TO.P,MX30,2,2*%
%TO.N,Net-(D30-A)*%
X282315000Y-61595000D03*
D20*
X280565000Y-61595000D03*
D19*
X278765000Y-61595000D03*
%TD*%
%TO.P,MX29,1,1*%
%TO.N,COL10*%
X253365000Y-64135000D03*
D20*
X251540000Y-64135000D03*
D21*
X249815000Y-64135000D03*
%TO.P,MX29,2,2*%
%TO.N,Net-(D29-A)*%
X263265000Y-61595000D03*
D20*
X261515000Y-61595000D03*
D19*
X259715000Y-61595000D03*
%TD*%
%TO.P,MX28,1,1*%
%TO.N,COL09*%
X234315000Y-64135000D03*
D20*
X232490000Y-64135000D03*
D21*
X230765000Y-64135000D03*
%TO.P,MX28,2,2*%
%TO.N,Net-(D28-A)*%
X244215000Y-61595000D03*
D20*
X242465000Y-61595000D03*
D19*
X240665000Y-61595000D03*
%TD*%
%TO.P,MX27,1,1*%
%TO.N,COL08*%
X215265000Y-64135000D03*
D20*
X213440000Y-64135000D03*
D21*
X211715000Y-64135000D03*
%TO.P,MX27,2,2*%
%TO.N,Net-(D27-A)*%
X225165000Y-61595000D03*
D20*
X223415000Y-61595000D03*
D19*
X221615000Y-61595000D03*
%TD*%
%TO.P,MX26,1,1*%
%TO.N,COL07*%
X196215000Y-64135000D03*
D20*
X194390000Y-64135000D03*
D21*
X192665000Y-64135000D03*
%TO.P,MX26,2,2*%
%TO.N,Net-(D26-A)*%
X206115000Y-61595000D03*
D20*
X204365000Y-61595000D03*
D19*
X202565000Y-61595000D03*
%TD*%
%TO.P,MX25,1,1*%
%TO.N,COL06*%
X177165000Y-64135000D03*
D20*
X175340000Y-64135000D03*
D21*
X173615000Y-64135000D03*
%TO.P,MX25,2,2*%
%TO.N,Net-(D25-A)*%
X187065000Y-61595000D03*
D20*
X185315000Y-61595000D03*
D19*
X183515000Y-61595000D03*
%TD*%
%TO.P,MX24,1,1*%
%TO.N,COL05*%
X158115000Y-64135000D03*
D20*
X156290000Y-64135000D03*
D21*
X154565000Y-64135000D03*
%TO.P,MX24,2,2*%
%TO.N,Net-(D24-A)*%
X168015000Y-61595000D03*
D20*
X166265000Y-61595000D03*
D19*
X164465000Y-61595000D03*
%TD*%
%TO.P,MX23,1,1*%
%TO.N,COL04*%
X139065000Y-64135000D03*
D20*
X137240000Y-64135000D03*
D21*
X135515000Y-64135000D03*
%TO.P,MX23,2,2*%
%TO.N,Net-(D23-A)*%
X148965000Y-61595000D03*
D20*
X147215000Y-61595000D03*
D19*
X145415000Y-61595000D03*
%TD*%
%TO.P,MX22,1,1*%
%TO.N,COL03*%
X120015000Y-64135000D03*
D20*
X118190000Y-64135000D03*
D21*
X116465000Y-64135000D03*
%TO.P,MX22,2,2*%
%TO.N,Net-(D22-A)*%
X129915000Y-61595000D03*
D20*
X128165000Y-61595000D03*
D19*
X126365000Y-61595000D03*
%TD*%
%TO.P,MX21,1,1*%
%TO.N,COL02*%
X100965000Y-64135000D03*
D20*
X99140000Y-64135000D03*
D21*
X97415000Y-64135000D03*
%TO.P,MX21,2,2*%
%TO.N,Net-(D21-A)*%
X110865000Y-61595000D03*
D20*
X109115000Y-61595000D03*
D19*
X107315000Y-61595000D03*
%TD*%
%TO.P,MX20,1,1*%
%TO.N,Net-(MX20-Pad1)*%
X81915000Y-64135000D03*
D20*
X80090000Y-64135000D03*
D21*
X78365000Y-64135000D03*
%TO.P,MX20,2,2*%
%TO.N,Net-(D20-A)*%
X91815000Y-61595000D03*
D20*
X90065000Y-61595000D03*
D19*
X88265000Y-61595000D03*
%TD*%
%TO.P,MX19,1,1*%
%TO.N,COL01*%
X62865000Y-64135000D03*
D20*
X61040000Y-64135000D03*
D21*
X59315000Y-64135000D03*
%TO.P,MX19,2,2*%
%TO.N,Net-(D19-A)*%
X72765000Y-61595000D03*
D20*
X71015000Y-61595000D03*
D19*
X69215000Y-61595000D03*
%TD*%
%TO.P,MX18,1,1*%
%TO.N,COL00*%
X34290000Y-56515000D03*
D20*
X32465000Y-56515000D03*
D21*
X30740000Y-56515000D03*
%TO.P,MX18,2,2*%
%TO.N,Net-(D18-A)*%
X44190000Y-53975000D03*
D20*
X42440000Y-53975000D03*
D19*
X40640000Y-53975000D03*
%TD*%
%TO.P,MX17,1,1*%
%TO.N,COL16*%
X391477500Y-35560000D03*
D20*
X389652500Y-35560000D03*
D21*
X387927500Y-35560000D03*
%TO.P,MX17,2,2*%
%TO.N,Net-(D17-A)*%
X401377500Y-33020000D03*
D20*
X399627500Y-33020000D03*
D19*
X397827500Y-33020000D03*
%TD*%
%TO.P,MX16,1,1*%
%TO.N,COL15*%
X372427500Y-35560000D03*
D20*
X370602500Y-35560000D03*
D21*
X368877500Y-35560000D03*
%TO.P,MX16,2,2*%
%TO.N,Net-(D16-A)*%
X382327500Y-33020000D03*
D20*
X380577500Y-33020000D03*
D19*
X378777500Y-33020000D03*
%TD*%
%TO.P,MX15,1,1*%
%TO.N,COL14*%
X353377500Y-35560000D03*
D20*
X351552500Y-35560000D03*
D21*
X349827500Y-35560000D03*
%TO.P,MX15,2,2*%
%TO.N,Net-(D15-A)*%
X363277500Y-33020000D03*
D20*
X361527500Y-33020000D03*
D19*
X359727500Y-33020000D03*
%TD*%
%TO.P,MX14,1,1*%
%TO.N,COL13*%
X329565000Y-35560000D03*
D20*
X327740000Y-35560000D03*
D21*
X326015000Y-35560000D03*
%TO.P,MX14,2,2*%
%TO.N,Net-(D14-A)*%
X339465000Y-33020000D03*
D20*
X337715000Y-33020000D03*
D19*
X335915000Y-33020000D03*
%TD*%
%TO.P,MX13,1,1*%
%TO.N,COL12*%
X310515000Y-35560000D03*
D20*
X308690000Y-35560000D03*
D21*
X306965000Y-35560000D03*
%TO.P,MX13,2,2*%
%TO.N,Net-(D13-A)*%
X320415000Y-33020000D03*
D20*
X318665000Y-33020000D03*
D19*
X316865000Y-33020000D03*
%TD*%
%TO.P,MX12,1,1*%
%TO.N,COL11*%
X291465000Y-35560000D03*
D20*
X289640000Y-35560000D03*
D21*
X287915000Y-35560000D03*
%TO.P,MX12,2,2*%
%TO.N,Net-(D12-A)*%
X301365000Y-33020000D03*
D20*
X299615000Y-33020000D03*
D19*
X297815000Y-33020000D03*
%TD*%
%TO.P,MX11,1,1*%
%TO.N,COL10*%
X272415000Y-35560000D03*
D20*
X270590000Y-35560000D03*
D21*
X268865000Y-35560000D03*
%TO.P,MX11,2,2*%
%TO.N,Net-(D11-A)*%
X282315000Y-33020000D03*
D20*
X280565000Y-33020000D03*
D19*
X278765000Y-33020000D03*
%TD*%
%TO.P,MX10,1,1*%
%TO.N,COL09*%
X243840000Y-35560000D03*
D20*
X242015000Y-35560000D03*
D21*
X240290000Y-35560000D03*
%TO.P,MX10,2,2*%
%TO.N,Net-(D10-A)*%
X253740000Y-33020000D03*
D20*
X251990000Y-33020000D03*
D19*
X250190000Y-33020000D03*
%TD*%
%TO.P,MX9,1,1*%
%TO.N,COL08*%
X224790000Y-35560000D03*
D20*
X222965000Y-35560000D03*
D21*
X221240000Y-35560000D03*
%TO.P,MX9,2,2*%
%TO.N,Net-(D9-A)*%
X234690000Y-33020000D03*
D20*
X232940000Y-33020000D03*
D19*
X231140000Y-33020000D03*
%TD*%
%TO.P,MX8,1,1*%
%TO.N,COL07*%
X205740000Y-35560000D03*
D20*
X203915000Y-35560000D03*
D21*
X202190000Y-35560000D03*
%TO.P,MX8,2,2*%
%TO.N,Net-(D8-A)*%
X215640000Y-33020000D03*
D20*
X213890000Y-33020000D03*
D19*
X212090000Y-33020000D03*
%TD*%
%TO.P,MX7,1,1*%
%TO.N,COL06*%
X186690000Y-35560000D03*
D20*
X184865000Y-35560000D03*
D21*
X183140000Y-35560000D03*
%TO.P,MX7,2,2*%
%TO.N,Net-(D7-A)*%
X196590000Y-33020000D03*
D20*
X194840000Y-33020000D03*
D19*
X193040000Y-33020000D03*
%TD*%
%TO.P,MX6,1,1*%
%TO.N,COL05*%
X158115000Y-35560000D03*
D20*
X156290000Y-35560000D03*
D21*
X154565000Y-35560000D03*
%TO.P,MX6,2,2*%
%TO.N,Net-(D6-A)*%
X168015000Y-33020000D03*
D20*
X166265000Y-33020000D03*
D19*
X164465000Y-33020000D03*
%TD*%
%TO.P,MX5,1,1*%
%TO.N,COL04*%
X139065000Y-35560000D03*
D20*
X137240000Y-35560000D03*
D21*
X135515000Y-35560000D03*
%TO.P,MX5,2,2*%
%TO.N,Net-(D5-A)*%
X148965000Y-33020000D03*
D20*
X147215000Y-33020000D03*
D19*
X145415000Y-33020000D03*
%TD*%
%TO.P,MX4,1,1*%
%TO.N,COL03*%
X120015000Y-35560000D03*
D20*
X118190000Y-35560000D03*
D21*
X116465000Y-35560000D03*
%TO.P,MX4,2,2*%
%TO.N,Net-(D4-A)*%
X129915000Y-33020000D03*
D20*
X128165000Y-33020000D03*
D19*
X126365000Y-33020000D03*
%TD*%
%TO.P,MX3,1,1*%
%TO.N,COL02*%
X100965000Y-35560000D03*
D20*
X99140000Y-35560000D03*
D21*
X97415000Y-35560000D03*
%TO.P,MX3,2,2*%
%TO.N,Net-(D3-A)*%
X110865000Y-33020000D03*
D20*
X109115000Y-33020000D03*
D19*
X107315000Y-33020000D03*
%TD*%
%TO.P,MX2,1,1*%
%TO.N,COL01*%
X62865000Y-35560000D03*
D20*
X61040000Y-35560000D03*
D21*
X59315000Y-35560000D03*
%TO.P,MX2,2,2*%
%TO.N,Net-(D2-A)*%
X72765000Y-33020000D03*
D20*
X71015000Y-33020000D03*
D19*
X69215000Y-33020000D03*
%TD*%
%TO.P,MX1,1,1*%
%TO.N,COL00*%
X34290000Y-35560000D03*
D20*
X32465000Y-35560000D03*
D21*
X30740000Y-35560000D03*
%TO.P,MX1,2,2*%
%TO.N,Net-(D1-A)*%
X44190000Y-33020000D03*
D20*
X42440000Y-33020000D03*
D19*
X40640000Y-33020000D03*
%TD*%
D22*
%TO.P,LED110,1,VDD*%
%TO.N,VCC*%
X454475000Y-147205000D03*
%TO.P,LED110,2,DOUT*%
%TO.N,unconnected-(LED110-DOUT-Pad2)*%
X454475000Y-148705000D03*
%TO.P,LED110,3,DIN*%
%TO.N,Net-(LED109-DOUT)*%
X459925000Y-147205000D03*
D23*
%TO.P,LED110,4,VSS*%
%TO.N,GND*%
X459925000Y-148705000D03*
%TD*%
D22*
%TO.P,LED109,1,VDD*%
%TO.N,VCC*%
X425900000Y-147205000D03*
%TO.P,LED109,2,DOUT*%
%TO.N,Net-(LED109-DOUT)*%
X425900000Y-148705000D03*
%TO.P,LED109,3,DIN*%
%TO.N,Net-(LED108-DOUT)*%
X431350000Y-147205000D03*
D23*
%TO.P,LED109,4,VSS*%
%TO.N,GND*%
X431350000Y-148705000D03*
%TD*%
D22*
%TO.P,LED108,1,VDD*%
%TO.N,VCC*%
X392562500Y-147205000D03*
%TO.P,LED108,2,DOUT*%
%TO.N,Net-(LED108-DOUT)*%
X392562500Y-148705000D03*
%TO.P,LED108,3,DIN*%
%TO.N,Net-(LED107-DOUT)*%
X398012500Y-147205000D03*
D23*
%TO.P,LED108,4,VSS*%
%TO.N,GND*%
X398012500Y-148705000D03*
%TD*%
D22*
%TO.P,LED107,1,VDD*%
%TO.N,VCC*%
X373512500Y-147205000D03*
%TO.P,LED107,2,DOUT*%
%TO.N,Net-(LED107-DOUT)*%
X373512500Y-148705000D03*
%TO.P,LED107,3,DIN*%
%TO.N,Net-(LED106-DOUT)*%
X378962500Y-147205000D03*
D23*
%TO.P,LED107,4,VSS*%
%TO.N,GND*%
X378962500Y-148705000D03*
%TD*%
D22*
%TO.P,LED106,1,VDD*%
%TO.N,VCC*%
X354462500Y-147205000D03*
%TO.P,LED106,2,DOUT*%
%TO.N,Net-(LED106-DOUT)*%
X354462500Y-148705000D03*
%TO.P,LED106,3,DIN*%
%TO.N,Net-(LED105-DOUT)*%
X359912500Y-147205000D03*
D23*
%TO.P,LED106,4,VSS*%
%TO.N,GND*%
X359912500Y-148705000D03*
%TD*%
D22*
%TO.P,LED105,1,VDD*%
%TO.N,VCC*%
X328268750Y-147205000D03*
%TO.P,LED105,2,DOUT*%
%TO.N,Net-(LED105-DOUT)*%
X328268750Y-148705000D03*
%TO.P,LED105,3,DIN*%
%TO.N,Net-(LED104-DOUT)*%
X333718750Y-147205000D03*
D23*
%TO.P,LED105,4,VSS*%
%TO.N,GND*%
X333718750Y-148705000D03*
%TD*%
D22*
%TO.P,LED104,1,VDD*%
%TO.N,VCC*%
X304456250Y-147205000D03*
%TO.P,LED104,2,DOUT*%
%TO.N,Net-(LED104-DOUT)*%
X304456250Y-148705000D03*
%TO.P,LED104,3,DIN*%
%TO.N,Net-(LED103-DOUT)*%
X309906250Y-147205000D03*
D23*
%TO.P,LED104,4,VSS*%
%TO.N,GND*%
X309906250Y-148705000D03*
%TD*%
D22*
%TO.P,LED103,1,VDD*%
%TO.N,VCC*%
X280643750Y-147205000D03*
%TO.P,LED103,2,DOUT*%
%TO.N,Net-(LED103-DOUT)*%
X280643750Y-148705000D03*
%TO.P,LED103,3,DIN*%
%TO.N,Net-(LED102-DOUT)*%
X286093750Y-147205000D03*
D23*
%TO.P,LED103,4,VSS*%
%TO.N,GND*%
X286093750Y-148705000D03*
%TD*%
D22*
%TO.P,LED102,1,VDD*%
%TO.N,VCC*%
X256831250Y-147205000D03*
%TO.P,LED102,2,DOUT*%
%TO.N,Net-(LED102-DOUT)*%
X256831250Y-148705000D03*
%TO.P,LED102,3,DIN*%
%TO.N,Net-(LED101-DOUT)*%
X262281250Y-147205000D03*
D23*
%TO.P,LED102,4,VSS*%
%TO.N,GND*%
X262281250Y-148705000D03*
%TD*%
D22*
%TO.P,LED101,1,VDD*%
%TO.N,VCC*%
X185393750Y-147205000D03*
%TO.P,LED101,2,DOUT*%
%TO.N,Net-(LED101-DOUT)*%
X185393750Y-148705000D03*
%TO.P,LED101,3,DIN*%
%TO.N,Net-(LED100-DOUT)*%
X190843750Y-147205000D03*
D23*
%TO.P,LED101,4,VSS*%
%TO.N,GND*%
X190843750Y-148705000D03*
%TD*%
D22*
%TO.P,LED100,1,VDD*%
%TO.N,VCC*%
X113956250Y-147205000D03*
%TO.P,LED100,2,DOUT*%
%TO.N,Net-(LED100-DOUT)*%
X113956250Y-148705000D03*
%TO.P,LED100,3,DIN*%
%TO.N,Net-(LED100-DIN)*%
X119406250Y-147205000D03*
D23*
%TO.P,LED100,4,VSS*%
%TO.N,GND*%
X119406250Y-148705000D03*
%TD*%
D22*
%TO.P,LED99,1,VDD*%
%TO.N,VCC*%
X90143750Y-147205000D03*
%TO.P,LED99,2,DOUT*%
%TO.N,Net-(LED100-DIN)*%
X90143750Y-148705000D03*
%TO.P,LED99,3,DIN*%
%TO.N,Net-(LED98-DOUT)*%
X95593750Y-147205000D03*
D23*
%TO.P,LED99,4,VSS*%
%TO.N,GND*%
X95593750Y-148705000D03*
%TD*%
D22*
%TO.P,LED98,1,VDD*%
%TO.N,VCC*%
X66331250Y-147205000D03*
%TO.P,LED98,2,DOUT*%
%TO.N,Net-(LED98-DOUT)*%
X66331250Y-148705000D03*
%TO.P,LED98,3,DIN*%
%TO.N,Net-(LED97-DOUT)*%
X71781250Y-147205000D03*
D23*
%TO.P,LED98,4,VSS*%
%TO.N,GND*%
X71781250Y-148705000D03*
%TD*%
D22*
%TO.P,LED97,1,VDD*%
%TO.N,VCC*%
X35375000Y-147205000D03*
%TO.P,LED97,2,DOUT*%
%TO.N,Net-(LED97-DOUT)*%
X35375000Y-148705000D03*
%TO.P,LED97,3,DIN*%
%TO.N,Net-(LED96-DOUT)*%
X40825000Y-147205000D03*
D23*
%TO.P,LED97,4,VSS*%
%TO.N,GND*%
X40825000Y-148705000D03*
%TD*%
D22*
%TO.P,LED96,1,VDD*%
%TO.N,VCC*%
X473525000Y-137680000D03*
%TO.P,LED96,2,DOUT*%
%TO.N,Net-(LED96-DOUT)*%
X473525000Y-139180000D03*
%TO.P,LED96,3,DIN*%
%TO.N,Net-(LED95-DOUT)*%
X478975000Y-137680000D03*
D23*
%TO.P,LED96,4,VSS*%
%TO.N,GND*%
X478975000Y-139180000D03*
%TD*%
D22*
%TO.P,LED95,1,VDD*%
%TO.N,VCC*%
X454475000Y-128155000D03*
%TO.P,LED95,2,DOUT*%
%TO.N,Net-(LED95-DOUT)*%
X454475000Y-129655000D03*
%TO.P,LED95,3,DIN*%
%TO.N,Net-(LED94-DOUT)*%
X459925000Y-128155000D03*
D23*
%TO.P,LED95,4,VSS*%
%TO.N,GND*%
X459925000Y-129655000D03*
%TD*%
D22*
%TO.P,LED94,1,VDD*%
%TO.N,VCC*%
X435425000Y-128155000D03*
%TO.P,LED94,2,DOUT*%
%TO.N,Net-(LED94-DOUT)*%
X435425000Y-129655000D03*
%TO.P,LED94,3,DIN*%
%TO.N,Net-(LED93-DOUT)*%
X440875000Y-128155000D03*
D23*
%TO.P,LED94,4,VSS*%
%TO.N,GND*%
X440875000Y-129655000D03*
%TD*%
D22*
%TO.P,LED93,1,VDD*%
%TO.N,VCC*%
X416375000Y-128155000D03*
%TO.P,LED93,2,DOUT*%
%TO.N,Net-(LED93-DOUT)*%
X416375000Y-129655000D03*
%TO.P,LED93,3,DIN*%
%TO.N,Net-(LED92-DOUT)*%
X421825000Y-128155000D03*
D23*
%TO.P,LED93,4,VSS*%
%TO.N,GND*%
X421825000Y-129655000D03*
%TD*%
D22*
%TO.P,LED92,1,VDD*%
%TO.N,VCC*%
X373512500Y-128155000D03*
%TO.P,LED92,2,DOUT*%
%TO.N,Net-(LED92-DOUT)*%
X373512500Y-129655000D03*
%TO.P,LED92,3,DIN*%
%TO.N,Net-(LED91-DOUT)*%
X378962500Y-128155000D03*
D23*
%TO.P,LED92,4,VSS*%
%TO.N,GND*%
X378962500Y-129655000D03*
%TD*%
D22*
%TO.P,LED91,1,VDD*%
%TO.N,VCC*%
X313981250Y-128155000D03*
%TO.P,LED91,2,DOUT*%
%TO.N,Net-(LED91-DOUT)*%
X313981250Y-129655000D03*
%TO.P,LED91,3,DIN*%
%TO.N,Net-(LED90-DOUT)*%
X319431250Y-128155000D03*
D23*
%TO.P,LED91,4,VSS*%
%TO.N,GND*%
X319431250Y-129655000D03*
%TD*%
D22*
%TO.P,LED90,1,VDD*%
%TO.N,VCC*%
X278262500Y-128155000D03*
%TO.P,LED90,2,DOUT*%
%TO.N,Net-(LED90-DOUT)*%
X278262500Y-129655000D03*
%TO.P,LED90,3,DIN*%
%TO.N,Net-(LED89-DOUT)*%
X283712500Y-128155000D03*
D23*
%TO.P,LED90,4,VSS*%
%TO.N,GND*%
X283712500Y-129655000D03*
%TD*%
D22*
%TO.P,LED89,1,VDD*%
%TO.N,VCC*%
X259212500Y-128155000D03*
%TO.P,LED89,2,DOUT*%
%TO.N,Net-(LED89-DOUT)*%
X259212500Y-129655000D03*
%TO.P,LED89,3,DIN*%
%TO.N,Net-(LED88-DOUT)*%
X264662500Y-128155000D03*
D23*
%TO.P,LED89,4,VSS*%
%TO.N,GND*%
X264662500Y-129655000D03*
%TD*%
D22*
%TO.P,LED88,1,VDD*%
%TO.N,VCC*%
X240162500Y-128155000D03*
%TO.P,LED88,2,DOUT*%
%TO.N,Net-(LED88-DOUT)*%
X240162500Y-129655000D03*
%TO.P,LED88,3,DIN*%
%TO.N,Net-(LED87-DOUT)*%
X245612500Y-128155000D03*
D23*
%TO.P,LED88,4,VSS*%
%TO.N,GND*%
X245612500Y-129655000D03*
%TD*%
D22*
%TO.P,LED87,1,VDD*%
%TO.N,VCC*%
X221112500Y-128155000D03*
%TO.P,LED87,2,DOUT*%
%TO.N,Net-(LED87-DOUT)*%
X221112500Y-129655000D03*
%TO.P,LED87,3,DIN*%
%TO.N,Net-(LED86-DOUT)*%
X226562500Y-128155000D03*
D23*
%TO.P,LED87,4,VSS*%
%TO.N,GND*%
X226562500Y-129655000D03*
%TD*%
D22*
%TO.P,LED86,1,VDD*%
%TO.N,VCC*%
X202062500Y-128155000D03*
%TO.P,LED86,2,DOUT*%
%TO.N,Net-(LED86-DOUT)*%
X202062500Y-129655000D03*
%TO.P,LED86,3,DIN*%
%TO.N,Net-(LED85-DOUT)*%
X207512500Y-128155000D03*
D23*
%TO.P,LED86,4,VSS*%
%TO.N,GND*%
X207512500Y-129655000D03*
%TD*%
D22*
%TO.P,LED85,1,VDD*%
%TO.N,VCC*%
X183012500Y-128155000D03*
%TO.P,LED85,2,DOUT*%
%TO.N,Net-(LED85-DOUT)*%
X183012500Y-129655000D03*
%TO.P,LED85,3,DIN*%
%TO.N,Net-(LED84-DOUT)*%
X188462500Y-128155000D03*
D23*
%TO.P,LED85,4,VSS*%
%TO.N,GND*%
X188462500Y-129655000D03*
%TD*%
D22*
%TO.P,LED84,1,VDD*%
%TO.N,VCC*%
X163962500Y-128155000D03*
%TO.P,LED84,2,DOUT*%
%TO.N,Net-(LED84-DOUT)*%
X163962500Y-129655000D03*
%TO.P,LED84,3,DIN*%
%TO.N,Net-(LED83-DOUT)*%
X169412500Y-128155000D03*
D23*
%TO.P,LED84,4,VSS*%
%TO.N,GND*%
X169412500Y-129655000D03*
%TD*%
D22*
%TO.P,LED83,1,VDD*%
%TO.N,VCC*%
X144912500Y-128155000D03*
%TO.P,LED83,2,DOUT*%
%TO.N,Net-(LED83-DOUT)*%
X144912500Y-129655000D03*
%TO.P,LED83,3,DIN*%
%TO.N,Net-(LED82-DOUT)*%
X150362500Y-128155000D03*
D23*
%TO.P,LED83,4,VSS*%
%TO.N,GND*%
X150362500Y-129655000D03*
%TD*%
D22*
%TO.P,LED82,1,VDD*%
%TO.N,VCC*%
X125862500Y-128155000D03*
%TO.P,LED82,2,DOUT*%
%TO.N,Net-(LED82-DOUT)*%
X125862500Y-129655000D03*
%TO.P,LED82,3,DIN*%
%TO.N,Net-(LED81-DOUT)*%
X131312500Y-128155000D03*
D23*
%TO.P,LED82,4,VSS*%
%TO.N,GND*%
X131312500Y-129655000D03*
%TD*%
D22*
%TO.P,LED81,1,VDD*%
%TO.N,VCC*%
X106812500Y-128155000D03*
%TO.P,LED81,2,DOUT*%
%TO.N,Net-(LED81-DOUT)*%
X106812500Y-129655000D03*
%TO.P,LED81,3,DIN*%
%TO.N,Net-(LED80-DOUT)*%
X112262500Y-128155000D03*
D23*
%TO.P,LED81,4,VSS*%
%TO.N,GND*%
X112262500Y-129655000D03*
%TD*%
D22*
%TO.P,LED80,1,VDD*%
%TO.N,VCC*%
X75856250Y-128155000D03*
%TO.P,LED80,2,DOUT*%
%TO.N,Net-(LED80-DOUT)*%
X75856250Y-129655000D03*
%TO.P,LED80,3,DIN*%
%TO.N,Net-(LED79-DOUT)*%
X81306250Y-128155000D03*
D23*
%TO.P,LED80,4,VSS*%
%TO.N,GND*%
X81306250Y-129655000D03*
%TD*%
D22*
%TO.P,LED79,1,VDD*%
%TO.N,VCC*%
X35375000Y-126250000D03*
%TO.P,LED79,2,DOUT*%
%TO.N,Net-(LED79-DOUT)*%
X35375000Y-127750000D03*
%TO.P,LED79,3,DIN*%
%TO.N,Net-(LED78-DOUT)*%
X40825000Y-126250000D03*
D23*
%TO.P,LED79,4,VSS*%
%TO.N,GND*%
X40825000Y-127750000D03*
%TD*%
D22*
%TO.P,LED78,1,VDD*%
%TO.N,VCC*%
X454475000Y-109105000D03*
%TO.P,LED78,2,DOUT*%
%TO.N,Net-(LED78-DOUT)*%
X454475000Y-110605000D03*
%TO.P,LED78,3,DIN*%
%TO.N,Net-(LED77-DOUT)*%
X459925000Y-109105000D03*
D23*
%TO.P,LED78,4,VSS*%
%TO.N,GND*%
X459925000Y-110605000D03*
%TD*%
D22*
%TO.P,LED77,1,VDD*%
%TO.N,VCC*%
X435425000Y-109105000D03*
%TO.P,LED77,2,DOUT*%
%TO.N,Net-(LED77-DOUT)*%
X435425000Y-110605000D03*
%TO.P,LED77,3,DIN*%
%TO.N,Net-(LED76-DOUT)*%
X440875000Y-109105000D03*
D23*
%TO.P,LED77,4,VSS*%
%TO.N,GND*%
X440875000Y-110605000D03*
%TD*%
D22*
%TO.P,LED76,1,VDD*%
%TO.N,VCC*%
X416375000Y-109105000D03*
%TO.P,LED76,2,DOUT*%
%TO.N,Net-(LED76-DOUT)*%
X416375000Y-110605000D03*
%TO.P,LED76,3,DIN*%
%TO.N,Net-(LED75-DOUT)*%
X421825000Y-109105000D03*
D23*
%TO.P,LED76,4,VSS*%
%TO.N,GND*%
X421825000Y-110605000D03*
%TD*%
D22*
%TO.P,LED75,1,VDD*%
%TO.N,VCC*%
X318743750Y-109105000D03*
%TO.P,LED75,2,DOUT*%
%TO.N,Net-(LED75-DOUT)*%
X318743750Y-110605000D03*
%TO.P,LED75,3,DIN*%
%TO.N,Net-(LED74-DOUT)*%
X324193750Y-109105000D03*
D23*
%TO.P,LED75,4,VSS*%
%TO.N,GND*%
X324193750Y-110605000D03*
%TD*%
D22*
%TO.P,LED74,1,VDD*%
%TO.N,VCC*%
X287787500Y-109105000D03*
%TO.P,LED74,2,DOUT*%
%TO.N,Net-(LED74-DOUT)*%
X287787500Y-110605000D03*
%TO.P,LED74,3,DIN*%
%TO.N,Net-(LED73-DOUT)*%
X293237500Y-109105000D03*
D23*
%TO.P,LED74,4,VSS*%
%TO.N,GND*%
X293237500Y-110605000D03*
%TD*%
D22*
%TO.P,LED73,1,VDD*%
%TO.N,VCC*%
X268737500Y-109105000D03*
%TO.P,LED73,2,DOUT*%
%TO.N,Net-(LED73-DOUT)*%
X268737500Y-110605000D03*
%TO.P,LED73,3,DIN*%
%TO.N,Net-(LED72-DOUT)*%
X274187500Y-109105000D03*
D23*
%TO.P,LED73,4,VSS*%
%TO.N,GND*%
X274187500Y-110605000D03*
%TD*%
D22*
%TO.P,LED72,1,VDD*%
%TO.N,VCC*%
X249687500Y-109105000D03*
%TO.P,LED72,2,DOUT*%
%TO.N,Net-(LED72-DOUT)*%
X249687500Y-110605000D03*
%TO.P,LED72,3,DIN*%
%TO.N,Net-(LED71-DOUT)*%
X255137500Y-109105000D03*
D23*
%TO.P,LED72,4,VSS*%
%TO.N,GND*%
X255137500Y-110605000D03*
%TD*%
D22*
%TO.P,LED71,1,VDD*%
%TO.N,VCC*%
X230637500Y-109105000D03*
%TO.P,LED71,2,DOUT*%
%TO.N,Net-(LED71-DOUT)*%
X230637500Y-110605000D03*
%TO.P,LED71,3,DIN*%
%TO.N,Net-(LED70-DOUT)*%
X236087500Y-109105000D03*
D23*
%TO.P,LED71,4,VSS*%
%TO.N,GND*%
X236087500Y-110605000D03*
%TD*%
D22*
%TO.P,LED70,1,VDD*%
%TO.N,VCC*%
X211587500Y-109105000D03*
%TO.P,LED70,2,DOUT*%
%TO.N,Net-(LED70-DOUT)*%
X211587500Y-110605000D03*
%TO.P,LED70,3,DIN*%
%TO.N,Net-(LED69-DOUT)*%
X217037500Y-109105000D03*
D23*
%TO.P,LED70,4,VSS*%
%TO.N,GND*%
X217037500Y-110605000D03*
%TD*%
D22*
%TO.P,LED69,1,VDD*%
%TO.N,VCC*%
X192537500Y-109105000D03*
%TO.P,LED69,2,DOUT*%
%TO.N,Net-(LED69-DOUT)*%
X192537500Y-110605000D03*
%TO.P,LED69,3,DIN*%
%TO.N,Net-(LED68-DOUT)*%
X197987500Y-109105000D03*
D23*
%TO.P,LED69,4,VSS*%
%TO.N,GND*%
X197987500Y-110605000D03*
%TD*%
D22*
%TO.P,LED68,1,VDD*%
%TO.N,VCC*%
X173487500Y-109105000D03*
%TO.P,LED68,2,DOUT*%
%TO.N,Net-(LED68-DOUT)*%
X173487500Y-110605000D03*
%TO.P,LED68,3,DIN*%
%TO.N,Net-(LED67-DOUT)*%
X178937500Y-109105000D03*
D23*
%TO.P,LED68,4,VSS*%
%TO.N,GND*%
X178937500Y-110605000D03*
%TD*%
D22*
%TO.P,LED67,1,VDD*%
%TO.N,VCC*%
X154437500Y-109105000D03*
%TO.P,LED67,2,DOUT*%
%TO.N,Net-(LED67-DOUT)*%
X154437500Y-110605000D03*
%TO.P,LED67,3,DIN*%
%TO.N,Net-(LED66-DOUT)*%
X159887500Y-109105000D03*
D23*
%TO.P,LED67,4,VSS*%
%TO.N,GND*%
X159887500Y-110605000D03*
%TD*%
D22*
%TO.P,LED66,1,VDD*%
%TO.N,VCC*%
X135387500Y-109105000D03*
%TO.P,LED66,2,DOUT*%
%TO.N,Net-(LED66-DOUT)*%
X135387500Y-110605000D03*
%TO.P,LED66,3,DIN*%
%TO.N,Net-(LED65-DOUT)*%
X140837500Y-109105000D03*
D23*
%TO.P,LED66,4,VSS*%
%TO.N,GND*%
X140837500Y-110605000D03*
%TD*%
D22*
%TO.P,LED65,1,VDD*%
%TO.N,VCC*%
X116337500Y-109105000D03*
%TO.P,LED65,2,DOUT*%
%TO.N,Net-(LED65-DOUT)*%
X116337500Y-110605000D03*
%TO.P,LED65,3,DIN*%
%TO.N,Net-(LED64-DOUT)*%
X121787500Y-109105000D03*
D23*
%TO.P,LED65,4,VSS*%
%TO.N,GND*%
X121787500Y-110605000D03*
%TD*%
D22*
%TO.P,LED64,1,VDD*%
%TO.N,VCC*%
X97287500Y-109105000D03*
%TO.P,LED64,2,DOUT*%
%TO.N,Net-(LED64-DOUT)*%
X97287500Y-110605000D03*
%TO.P,LED64,3,DIN*%
%TO.N,Net-(LED63-DOUT)*%
X102737500Y-109105000D03*
D23*
%TO.P,LED64,4,VSS*%
%TO.N,GND*%
X102737500Y-110605000D03*
%TD*%
D22*
%TO.P,LED63,1,VDD*%
%TO.N,VCC*%
X71093750Y-109105000D03*
%TO.P,LED63,2,DOUT*%
%TO.N,Net-(LED63-DOUT)*%
X71093750Y-110605000D03*
%TO.P,LED63,3,DIN*%
%TO.N,Net-(LED62-DOUT)*%
X76543750Y-109105000D03*
D23*
%TO.P,LED63,4,VSS*%
%TO.N,GND*%
X76543750Y-110605000D03*
%TD*%
D22*
%TO.P,LED62,1,VDD*%
%TO.N,VCC*%
X35375000Y-105295000D03*
%TO.P,LED62,2,DOUT*%
%TO.N,Net-(LED62-DOUT)*%
X35375000Y-106795000D03*
%TO.P,LED62,3,DIN*%
%TO.N,Net-(LED61-DOUT)*%
X40825000Y-105295000D03*
D23*
%TO.P,LED62,4,VSS*%
%TO.N,GND*%
X40825000Y-106795000D03*
%TD*%
D22*
%TO.P,LED61,1,VDD*%
%TO.N,VCC*%
X473525000Y-99580000D03*
%TO.P,LED61,2,DOUT*%
%TO.N,Net-(LED61-DOUT)*%
X473525000Y-101080000D03*
%TO.P,LED61,3,DIN*%
%TO.N,Net-(LED60-DOUT)*%
X478975000Y-99580000D03*
D23*
%TO.P,LED61,4,VSS*%
%TO.N,GND*%
X478975000Y-101080000D03*
%TD*%
D22*
%TO.P,LED60,1,VDD*%
%TO.N,VCC*%
X454475000Y-90055000D03*
%TO.P,LED60,2,DOUT*%
%TO.N,Net-(LED60-DOUT)*%
X454475000Y-91555000D03*
%TO.P,LED60,3,DIN*%
%TO.N,Net-(LED59-DOUT)*%
X459925000Y-90055000D03*
D23*
%TO.P,LED60,4,VSS*%
%TO.N,GND*%
X459925000Y-91555000D03*
%TD*%
D22*
%TO.P,LED59,1,VDD*%
%TO.N,VCC*%
X435425000Y-90055000D03*
%TO.P,LED59,2,DOUT*%
%TO.N,Net-(LED59-DOUT)*%
X435425000Y-91555000D03*
%TO.P,LED59,3,DIN*%
%TO.N,Net-(LED58-DOUT)*%
X440875000Y-90055000D03*
D23*
%TO.P,LED59,4,VSS*%
%TO.N,GND*%
X440875000Y-91555000D03*
%TD*%
D22*
%TO.P,LED58,1,VDD*%
%TO.N,VCC*%
X416375000Y-90055000D03*
%TO.P,LED58,2,DOUT*%
%TO.N,Net-(LED58-DOUT)*%
X416375000Y-91555000D03*
%TO.P,LED58,3,DIN*%
%TO.N,Net-(LED57-DOUT)*%
X421825000Y-90055000D03*
D23*
%TO.P,LED58,4,VSS*%
%TO.N,GND*%
X421825000Y-91555000D03*
%TD*%
D22*
%TO.P,LED57,1,VDD*%
%TO.N,VCC*%
X392562500Y-90055000D03*
%TO.P,LED57,2,DOUT*%
%TO.N,Net-(LED57-DOUT)*%
X392562500Y-91555000D03*
%TO.P,LED57,3,DIN*%
%TO.N,Net-(LED56-DOUT)*%
X398012500Y-90055000D03*
D23*
%TO.P,LED57,4,VSS*%
%TO.N,GND*%
X398012500Y-91555000D03*
%TD*%
D22*
%TO.P,LED56,1,VDD*%
%TO.N,VCC*%
X373512500Y-90055000D03*
%TO.P,LED56,2,DOUT*%
%TO.N,Net-(LED56-DOUT)*%
X373512500Y-91555000D03*
%TO.P,LED56,3,DIN*%
%TO.N,Net-(LED55-DOUT)*%
X378962500Y-90055000D03*
D23*
%TO.P,LED56,4,VSS*%
%TO.N,GND*%
X378962500Y-91555000D03*
%TD*%
D22*
%TO.P,LED55,1,VDD*%
%TO.N,VCC*%
X354462500Y-90055000D03*
%TO.P,LED55,2,DOUT*%
%TO.N,Net-(LED55-DOUT)*%
X354462500Y-91555000D03*
%TO.P,LED55,3,DIN*%
%TO.N,Net-(LED54-DOUT)*%
X359912500Y-90055000D03*
D23*
%TO.P,LED55,4,VSS*%
%TO.N,GND*%
X359912500Y-91555000D03*
%TD*%
D22*
%TO.P,LED54,1,VDD*%
%TO.N,VCC*%
X325887500Y-90055000D03*
%TO.P,LED54,2,DOUT*%
%TO.N,Net-(LED54-DOUT)*%
X325887500Y-91555000D03*
%TO.P,LED54,3,DIN*%
%TO.N,Net-(LED53-DOUT)*%
X331337500Y-90055000D03*
D23*
%TO.P,LED54,4,VSS*%
%TO.N,GND*%
X331337500Y-91555000D03*
%TD*%
D22*
%TO.P,LED53,1,VDD*%
%TO.N,VCC*%
X302075000Y-90055000D03*
%TO.P,LED53,2,DOUT*%
%TO.N,Net-(LED53-DOUT)*%
X302075000Y-91555000D03*
%TO.P,LED53,3,DIN*%
%TO.N,Net-(LED52-DOUT)*%
X307525000Y-90055000D03*
D23*
%TO.P,LED53,4,VSS*%
%TO.N,GND*%
X307525000Y-91555000D03*
%TD*%
D22*
%TO.P,LED52,1,VDD*%
%TO.N,VCC*%
X283025000Y-90055000D03*
%TO.P,LED52,2,DOUT*%
%TO.N,Net-(LED52-DOUT)*%
X283025000Y-91555000D03*
%TO.P,LED52,3,DIN*%
%TO.N,Net-(LED51-DOUT)*%
X288475000Y-90055000D03*
D23*
%TO.P,LED52,4,VSS*%
%TO.N,GND*%
X288475000Y-91555000D03*
%TD*%
D22*
%TO.P,LED51,1,VDD*%
%TO.N,VCC*%
X263975000Y-90055000D03*
%TO.P,LED51,2,DOUT*%
%TO.N,Net-(LED51-DOUT)*%
X263975000Y-91555000D03*
%TO.P,LED51,3,DIN*%
%TO.N,Net-(LED50-DOUT)*%
X269425000Y-90055000D03*
D23*
%TO.P,LED51,4,VSS*%
%TO.N,GND*%
X269425000Y-91555000D03*
%TD*%
D22*
%TO.P,LED50,1,VDD*%
%TO.N,VCC*%
X244925000Y-90055000D03*
%TO.P,LED50,2,DOUT*%
%TO.N,Net-(LED50-DOUT)*%
X244925000Y-91555000D03*
%TO.P,LED50,3,DIN*%
%TO.N,Net-(LED49-DOUT)*%
X250375000Y-90055000D03*
D23*
%TO.P,LED50,4,VSS*%
%TO.N,GND*%
X250375000Y-91555000D03*
%TD*%
D22*
%TO.P,LED49,1,VDD*%
%TO.N,VCC*%
X225875000Y-90055000D03*
%TO.P,LED49,2,DOUT*%
%TO.N,Net-(LED49-DOUT)*%
X225875000Y-91555000D03*
%TO.P,LED49,3,DIN*%
%TO.N,Net-(LED48-DOUT)*%
X231325000Y-90055000D03*
D23*
%TO.P,LED49,4,VSS*%
%TO.N,GND*%
X231325000Y-91555000D03*
%TD*%
D22*
%TO.P,LED48,1,VDD*%
%TO.N,VCC*%
X206825000Y-90055000D03*
%TO.P,LED48,2,DOUT*%
%TO.N,Net-(LED48-DOUT)*%
X206825000Y-91555000D03*
%TO.P,LED48,3,DIN*%
%TO.N,Net-(LED47-DOUT)*%
X212275000Y-90055000D03*
D23*
%TO.P,LED48,4,VSS*%
%TO.N,GND*%
X212275000Y-91555000D03*
%TD*%
D22*
%TO.P,LED47,1,VDD*%
%TO.N,VCC*%
X187775000Y-90055000D03*
%TO.P,LED47,2,DOUT*%
%TO.N,Net-(LED47-DOUT)*%
X187775000Y-91555000D03*
%TO.P,LED47,3,DIN*%
%TO.N,Net-(LED46-DOUT)*%
X193225000Y-90055000D03*
D23*
%TO.P,LED47,4,VSS*%
%TO.N,GND*%
X193225000Y-91555000D03*
%TD*%
D22*
%TO.P,LED46,1,VDD*%
%TO.N,VCC*%
X168725000Y-90055000D03*
%TO.P,LED46,2,DOUT*%
%TO.N,Net-(LED46-DOUT)*%
X168725000Y-91555000D03*
%TO.P,LED46,3,DIN*%
%TO.N,Net-(LED45-DOUT)*%
X174175000Y-90055000D03*
D23*
%TO.P,LED46,4,VSS*%
%TO.N,GND*%
X174175000Y-91555000D03*
%TD*%
D22*
%TO.P,LED45,1,VDD*%
%TO.N,VCC*%
X149675000Y-90055000D03*
%TO.P,LED45,2,DOUT*%
%TO.N,Net-(LED45-DOUT)*%
X149675000Y-91555000D03*
%TO.P,LED45,3,DIN*%
%TO.N,Net-(LED44-DOUT)*%
X155125000Y-90055000D03*
D23*
%TO.P,LED45,4,VSS*%
%TO.N,GND*%
X155125000Y-91555000D03*
%TD*%
D22*
%TO.P,LED44,1,VDD*%
%TO.N,VCC*%
X130625000Y-90055000D03*
%TO.P,LED44,2,DOUT*%
%TO.N,Net-(LED44-DOUT)*%
X130625000Y-91555000D03*
%TO.P,LED44,3,DIN*%
%TO.N,Net-(LED43-DOUT)*%
X136075000Y-90055000D03*
D23*
%TO.P,LED44,4,VSS*%
%TO.N,GND*%
X136075000Y-91555000D03*
%TD*%
D22*
%TO.P,LED43,1,VDD*%
%TO.N,VCC*%
X111575000Y-90055000D03*
%TO.P,LED43,2,DOUT*%
%TO.N,Net-(LED43-DOUT)*%
X111575000Y-91555000D03*
%TO.P,LED43,3,DIN*%
%TO.N,Net-(LED42-DOUT)*%
X117025000Y-90055000D03*
D23*
%TO.P,LED43,4,VSS*%
%TO.N,GND*%
X117025000Y-91555000D03*
%TD*%
D22*
%TO.P,LED42,1,VDD*%
%TO.N,VCC*%
X92525000Y-90055000D03*
%TO.P,LED42,2,DOUT*%
%TO.N,Net-(LED42-DOUT)*%
X92525000Y-91555000D03*
%TO.P,LED42,3,DIN*%
%TO.N,Net-(LED41-DOUT)*%
X97975000Y-90055000D03*
D23*
%TO.P,LED42,4,VSS*%
%TO.N,GND*%
X97975000Y-91555000D03*
%TD*%
D22*
%TO.P,LED41,1,VDD*%
%TO.N,VCC*%
X68712500Y-90055000D03*
%TO.P,LED41,2,DOUT*%
%TO.N,Net-(LED41-DOUT)*%
X68712500Y-91555000D03*
%TO.P,LED41,3,DIN*%
%TO.N,Net-(LED40-DOUT)*%
X74162500Y-90055000D03*
D23*
%TO.P,LED41,4,VSS*%
%TO.N,GND*%
X74162500Y-91555000D03*
%TD*%
D22*
%TO.P,LED40,1,VDD*%
%TO.N,VCC*%
X35375000Y-84340000D03*
%TO.P,LED40,2,DOUT*%
%TO.N,Net-(LED40-DOUT)*%
X35375000Y-85840000D03*
%TO.P,LED40,3,DIN*%
%TO.N,Net-(LED39-DOUT)*%
X40825000Y-84340000D03*
D23*
%TO.P,LED40,4,VSS*%
%TO.N,GND*%
X40825000Y-85840000D03*
%TD*%
D22*
%TO.P,LED39,1,VDD*%
%TO.N,VCC*%
X473525000Y-71005000D03*
%TO.P,LED39,2,DOUT*%
%TO.N,Net-(LED39-DOUT)*%
X473525000Y-72505000D03*
%TO.P,LED39,3,DIN*%
%TO.N,Net-(LED38-DOUT)*%
X478975000Y-71005000D03*
D23*
%TO.P,LED39,4,VSS*%
%TO.N,GND*%
X478975000Y-72505000D03*
%TD*%
D22*
%TO.P,LED38,1,VDD*%
%TO.N,VCC*%
X454475000Y-71005000D03*
%TO.P,LED38,2,DOUT*%
%TO.N,Net-(LED38-DOUT)*%
X454475000Y-72505000D03*
%TO.P,LED38,3,DIN*%
%TO.N,Net-(LED37-DOUT)*%
X459925000Y-71005000D03*
D23*
%TO.P,LED38,4,VSS*%
%TO.N,GND*%
X459925000Y-72505000D03*
%TD*%
D22*
%TO.P,LED37,1,VDD*%
%TO.N,VCC*%
X435425000Y-71005000D03*
%TO.P,LED37,2,DOUT*%
%TO.N,Net-(LED37-DOUT)*%
X435425000Y-72505000D03*
%TO.P,LED37,3,DIN*%
%TO.N,Net-(LED36-DOUT)*%
X440875000Y-71005000D03*
D23*
%TO.P,LED37,4,VSS*%
%TO.N,GND*%
X440875000Y-72505000D03*
%TD*%
D22*
%TO.P,LED36,1,VDD*%
%TO.N,VCC*%
X416375000Y-71005000D03*
%TO.P,LED36,2,DOUT*%
%TO.N,Net-(LED36-DOUT)*%
X416375000Y-72505000D03*
%TO.P,LED36,3,DIN*%
%TO.N,Net-(LED35-DOUT)*%
X421825000Y-71005000D03*
D23*
%TO.P,LED36,4,VSS*%
%TO.N,GND*%
X421825000Y-72505000D03*
%TD*%
D22*
%TO.P,LED35,1,VDD*%
%TO.N,VCC*%
X392562500Y-71005000D03*
%TO.P,LED35,2,DOUT*%
%TO.N,Net-(LED35-DOUT)*%
X392562500Y-72505000D03*
%TO.P,LED35,3,DIN*%
%TO.N,Net-(LED34-DOUT)*%
X398012500Y-71005000D03*
D23*
%TO.P,LED35,4,VSS*%
%TO.N,GND*%
X398012500Y-72505000D03*
%TD*%
D22*
%TO.P,LED34,1,VDD*%
%TO.N,VCC*%
X373512500Y-71005000D03*
%TO.P,LED34,2,DOUT*%
%TO.N,Net-(LED34-DOUT)*%
X373512500Y-72505000D03*
%TO.P,LED34,3,DIN*%
%TO.N,Net-(LED33-DOUT)*%
X378962500Y-71005000D03*
D23*
%TO.P,LED34,4,VSS*%
%TO.N,GND*%
X378962500Y-72505000D03*
%TD*%
D22*
%TO.P,LED33,1,VDD*%
%TO.N,VCC*%
X354462500Y-71005000D03*
%TO.P,LED33,2,DOUT*%
%TO.N,Net-(LED33-DOUT)*%
X354462500Y-72505000D03*
%TO.P,LED33,3,DIN*%
%TO.N,Net-(LED32-DOUT)*%
X359912500Y-71005000D03*
D23*
%TO.P,LED33,4,VSS*%
%TO.N,GND*%
X359912500Y-72505000D03*
%TD*%
D22*
%TO.P,LED32,1,VDD*%
%TO.N,VCC*%
X321125000Y-71005000D03*
%TO.P,LED32,2,DOUT*%
%TO.N,Net-(LED32-DOUT)*%
X321125000Y-72505000D03*
%TO.P,LED32,3,DIN*%
%TO.N,Net-(LED31-DOUT)*%
X326575000Y-71005000D03*
D23*
%TO.P,LED32,4,VSS*%
%TO.N,GND*%
X326575000Y-72505000D03*
%TD*%
D22*
%TO.P,LED31,1,VDD*%
%TO.N,VCC*%
X292550000Y-71005000D03*
%TO.P,LED31,2,DOUT*%
%TO.N,Net-(LED31-DOUT)*%
X292550000Y-72505000D03*
%TO.P,LED31,3,DIN*%
%TO.N,Net-(LED30-DOUT)*%
X298000000Y-71005000D03*
D23*
%TO.P,LED31,4,VSS*%
%TO.N,GND*%
X298000000Y-72505000D03*
%TD*%
D22*
%TO.P,LED30,1,VDD*%
%TO.N,VCC*%
X273500000Y-71005000D03*
%TO.P,LED30,2,DOUT*%
%TO.N,Net-(LED30-DOUT)*%
X273500000Y-72505000D03*
%TO.P,LED30,3,DIN*%
%TO.N,Net-(LED29-DOUT)*%
X278950000Y-71005000D03*
D23*
%TO.P,LED30,4,VSS*%
%TO.N,GND*%
X278950000Y-72505000D03*
%TD*%
D22*
%TO.P,LED29,1,VDD*%
%TO.N,VCC*%
X254450000Y-71005000D03*
%TO.P,LED29,2,DOUT*%
%TO.N,Net-(LED29-DOUT)*%
X254450000Y-72505000D03*
%TO.P,LED29,3,DIN*%
%TO.N,Net-(LED28-DOUT)*%
X259900000Y-71005000D03*
D23*
%TO.P,LED29,4,VSS*%
%TO.N,GND*%
X259900000Y-72505000D03*
%TD*%
D22*
%TO.P,LED28,1,VDD*%
%TO.N,VCC*%
X235400000Y-71005000D03*
%TO.P,LED28,2,DOUT*%
%TO.N,Net-(LED28-DOUT)*%
X235400000Y-72505000D03*
%TO.P,LED28,3,DIN*%
%TO.N,Net-(LED27-DOUT)*%
X240850000Y-71005000D03*
D23*
%TO.P,LED28,4,VSS*%
%TO.N,GND*%
X240850000Y-72505000D03*
%TD*%
D22*
%TO.P,LED27,1,VDD*%
%TO.N,VCC*%
X216350000Y-71005000D03*
%TO.P,LED27,2,DOUT*%
%TO.N,Net-(LED27-DOUT)*%
X216350000Y-72505000D03*
%TO.P,LED27,3,DIN*%
%TO.N,Net-(LED26-DOUT)*%
X221800000Y-71005000D03*
D23*
%TO.P,LED27,4,VSS*%
%TO.N,GND*%
X221800000Y-72505000D03*
%TD*%
D22*
%TO.P,LED26,1,VDD*%
%TO.N,VCC*%
X197300000Y-71005000D03*
%TO.P,LED26,2,DOUT*%
%TO.N,Net-(LED26-DOUT)*%
X197300000Y-72505000D03*
%TO.P,LED26,3,DIN*%
%TO.N,Net-(LED25-DOUT)*%
X202750000Y-71005000D03*
D23*
%TO.P,LED26,4,VSS*%
%TO.N,GND*%
X202750000Y-72505000D03*
%TD*%
D22*
%TO.P,LED25,1,VDD*%
%TO.N,VCC*%
X178250000Y-71005000D03*
%TO.P,LED25,2,DOUT*%
%TO.N,Net-(LED25-DOUT)*%
X178250000Y-72505000D03*
%TO.P,LED25,3,DIN*%
%TO.N,Net-(LED24-DOUT)*%
X183700000Y-71005000D03*
D23*
%TO.P,LED25,4,VSS*%
%TO.N,GND*%
X183700000Y-72505000D03*
%TD*%
D22*
%TO.P,LED24,1,VDD*%
%TO.N,VCC*%
X159200000Y-71005000D03*
%TO.P,LED24,2,DOUT*%
%TO.N,Net-(LED24-DOUT)*%
X159200000Y-72505000D03*
%TO.P,LED24,3,DIN*%
%TO.N,Net-(LED23-DOUT)*%
X164650000Y-71005000D03*
D23*
%TO.P,LED24,4,VSS*%
%TO.N,GND*%
X164650000Y-72505000D03*
%TD*%
D22*
%TO.P,LED23,1,VDD*%
%TO.N,VCC*%
X140150000Y-71005000D03*
%TO.P,LED23,2,DOUT*%
%TO.N,Net-(LED23-DOUT)*%
X140150000Y-72505000D03*
%TO.P,LED23,3,DIN*%
%TO.N,Net-(LED22-DOUT)*%
X145600000Y-71005000D03*
D23*
%TO.P,LED23,4,VSS*%
%TO.N,GND*%
X145600000Y-72505000D03*
%TD*%
D22*
%TO.P,LED22,1,VDD*%
%TO.N,VCC*%
X121100000Y-71005000D03*
%TO.P,LED22,2,DOUT*%
%TO.N,Net-(LED22-DOUT)*%
X121100000Y-72505000D03*
%TO.P,LED22,3,DIN*%
%TO.N,Net-(LED21-DOUT)*%
X126550000Y-71005000D03*
D23*
%TO.P,LED22,4,VSS*%
%TO.N,GND*%
X126550000Y-72505000D03*
%TD*%
D22*
%TO.P,LED21,1,VDD*%
%TO.N,VCC*%
X102050000Y-71005000D03*
%TO.P,LED21,2,DOUT*%
%TO.N,Net-(LED21-DOUT)*%
X102050000Y-72505000D03*
%TO.P,LED21,3,DIN*%
%TO.N,Net-(LED20-DOUT)*%
X107500000Y-71005000D03*
D23*
%TO.P,LED21,4,VSS*%
%TO.N,GND*%
X107500000Y-72505000D03*
%TD*%
D22*
%TO.P,LED20,1,VDD*%
%TO.N,VCC*%
X83000000Y-71005000D03*
%TO.P,LED20,2,DOUT*%
%TO.N,Net-(LED20-DOUT)*%
X83000000Y-72505000D03*
%TO.P,LED20,3,DIN*%
%TO.N,Net-(LED19-DOUT)*%
X88450000Y-71005000D03*
D23*
%TO.P,LED20,4,VSS*%
%TO.N,GND*%
X88450000Y-72505000D03*
%TD*%
D22*
%TO.P,LED19,1,VDD*%
%TO.N,VCC*%
X63950000Y-71005000D03*
%TO.P,LED19,2,DOUT*%
%TO.N,Net-(LED19-DOUT)*%
X63950000Y-72505000D03*
%TO.P,LED19,3,DIN*%
%TO.N,Net-(LED18-DOUT)*%
X69400000Y-71005000D03*
D23*
%TO.P,LED19,4,VSS*%
%TO.N,GND*%
X69400000Y-72505000D03*
%TD*%
D22*
%TO.P,LED18,1,VDD*%
%TO.N,VCC*%
X35375000Y-63385000D03*
%TO.P,LED18,2,DOUT*%
%TO.N,Net-(LED18-DOUT)*%
X35375000Y-64885000D03*
%TO.P,LED18,3,DIN*%
%TO.N,Net-(LED17-DOUT)*%
X40825000Y-63385000D03*
D23*
%TO.P,LED18,4,VSS*%
%TO.N,GND*%
X40825000Y-64885000D03*
%TD*%
D22*
%TO.P,LED17,1,VDD*%
%TO.N,VCC*%
X392562500Y-42430000D03*
%TO.P,LED17,2,DOUT*%
%TO.N,Net-(LED17-DOUT)*%
X392562500Y-43930000D03*
%TO.P,LED17,3,DIN*%
%TO.N,Net-(LED16-DOUT)*%
X398012500Y-42430000D03*
D23*
%TO.P,LED17,4,VSS*%
%TO.N,GND*%
X398012500Y-43930000D03*
%TD*%
D22*
%TO.P,LED16,1,VDD*%
%TO.N,VCC*%
X373512500Y-42430000D03*
%TO.P,LED16,2,DOUT*%
%TO.N,Net-(LED16-DOUT)*%
X373512500Y-43930000D03*
%TO.P,LED16,3,DIN*%
%TO.N,Net-(LED15-DOUT)*%
X378962500Y-42430000D03*
D23*
%TO.P,LED16,4,VSS*%
%TO.N,GND*%
X378962500Y-43930000D03*
%TD*%
D22*
%TO.P,LED15,1,VDD*%
%TO.N,VCC*%
X354462500Y-42430000D03*
%TO.P,LED15,2,DOUT*%
%TO.N,Net-(LED15-DOUT)*%
X354462500Y-43930000D03*
%TO.P,LED15,3,DIN*%
%TO.N,Net-(LED14-DOUT)*%
X359912500Y-42430000D03*
D23*
%TO.P,LED15,4,VSS*%
%TO.N,GND*%
X359912500Y-43930000D03*
%TD*%
D22*
%TO.P,LED14,1,VDD*%
%TO.N,VCC*%
X330650000Y-42430000D03*
%TO.P,LED14,2,DOUT*%
%TO.N,Net-(LED14-DOUT)*%
X330650000Y-43930000D03*
%TO.P,LED14,3,DIN*%
%TO.N,Net-(LED13-DOUT)*%
X336100000Y-42430000D03*
D23*
%TO.P,LED14,4,VSS*%
%TO.N,GND*%
X336100000Y-43930000D03*
%TD*%
D22*
%TO.P,LED13,1,VDD*%
%TO.N,VCC*%
X311600000Y-42430000D03*
%TO.P,LED13,2,DOUT*%
%TO.N,Net-(LED13-DOUT)*%
X311600000Y-43930000D03*
%TO.P,LED13,3,DIN*%
%TO.N,Net-(LED12-DOUT)*%
X317050000Y-42430000D03*
D23*
%TO.P,LED13,4,VSS*%
%TO.N,GND*%
X317050000Y-43930000D03*
%TD*%
D22*
%TO.P,LED12,1,VDD*%
%TO.N,VCC*%
X292550000Y-42430000D03*
%TO.P,LED12,2,DOUT*%
%TO.N,Net-(LED12-DOUT)*%
X292550000Y-43930000D03*
%TO.P,LED12,3,DIN*%
%TO.N,Net-(LED11-DOUT)*%
X298000000Y-42430000D03*
D23*
%TO.P,LED12,4,VSS*%
%TO.N,GND*%
X298000000Y-43930000D03*
%TD*%
D22*
%TO.P,LED11,1,VDD*%
%TO.N,VCC*%
X273500000Y-42430000D03*
%TO.P,LED11,2,DOUT*%
%TO.N,Net-(LED11-DOUT)*%
X273500000Y-43930000D03*
%TO.P,LED11,3,DIN*%
%TO.N,Net-(LED10-DOUT)*%
X278950000Y-42430000D03*
D23*
%TO.P,LED11,4,VSS*%
%TO.N,GND*%
X278950000Y-43930000D03*
%TD*%
D22*
%TO.P,LED10,1,VDD*%
%TO.N,VCC*%
X244925000Y-42430000D03*
%TO.P,LED10,2,DOUT*%
%TO.N,Net-(LED10-DOUT)*%
X244925000Y-43930000D03*
%TO.P,LED10,3,DIN*%
%TO.N,Net-(LED10-DIN)*%
X250375000Y-42430000D03*
D23*
%TO.P,LED10,4,VSS*%
%TO.N,GND*%
X250375000Y-43930000D03*
%TD*%
D22*
%TO.P,LED9,1,VDD*%
%TO.N,VCC*%
X225875000Y-42430000D03*
%TO.P,LED9,2,DOUT*%
%TO.N,Net-(LED10-DIN)*%
X225875000Y-43930000D03*
%TO.P,LED9,3,DIN*%
%TO.N,Net-(LED8-DOUT)*%
X231325000Y-42430000D03*
D23*
%TO.P,LED9,4,VSS*%
%TO.N,GND*%
X231325000Y-43930000D03*
%TD*%
D22*
%TO.P,LED8,1,VDD*%
%TO.N,VCC*%
X206825000Y-42430000D03*
%TO.P,LED8,2,DOUT*%
%TO.N,Net-(LED8-DOUT)*%
X206825000Y-43930000D03*
%TO.P,LED8,3,DIN*%
%TO.N,Net-(LED7-DOUT)*%
X212275000Y-42430000D03*
D23*
%TO.P,LED8,4,VSS*%
%TO.N,GND*%
X212275000Y-43930000D03*
%TD*%
D22*
%TO.P,LED7,1,VDD*%
%TO.N,VCC*%
X187775000Y-42430000D03*
%TO.P,LED7,2,DOUT*%
%TO.N,Net-(LED7-DOUT)*%
X187775000Y-43930000D03*
%TO.P,LED7,3,DIN*%
%TO.N,Net-(LED6-DOUT)*%
X193225000Y-42430000D03*
D23*
%TO.P,LED7,4,VSS*%
%TO.N,GND*%
X193225000Y-43930000D03*
%TD*%
D22*
%TO.P,LED6,1,VDD*%
%TO.N,VCC*%
X159200000Y-42430000D03*
%TO.P,LED6,2,DOUT*%
%TO.N,Net-(LED6-DOUT)*%
X159200000Y-43930000D03*
%TO.P,LED6,3,DIN*%
%TO.N,Net-(LED5-DOUT)*%
X164650000Y-42430000D03*
D23*
%TO.P,LED6,4,VSS*%
%TO.N,GND*%
X164650000Y-43930000D03*
%TD*%
D22*
%TO.P,LED5,1,VDD*%
%TO.N,VCC*%
X140150000Y-42430000D03*
%TO.P,LED5,2,DOUT*%
%TO.N,Net-(LED5-DOUT)*%
X140150000Y-43930000D03*
%TO.P,LED5,3,DIN*%
%TO.N,Net-(LED4-DOUT)*%
X145600000Y-42430000D03*
D23*
%TO.P,LED5,4,VSS*%
%TO.N,GND*%
X145600000Y-43930000D03*
%TD*%
D22*
%TO.P,LED4,1,VDD*%
%TO.N,VCC*%
X121100000Y-42430000D03*
%TO.P,LED4,2,DOUT*%
%TO.N,Net-(LED4-DOUT)*%
X121100000Y-43930000D03*
%TO.P,LED4,3,DIN*%
%TO.N,Net-(LED3-DOUT)*%
X126550000Y-42430000D03*
D23*
%TO.P,LED4,4,VSS*%
%TO.N,GND*%
X126550000Y-43930000D03*
%TD*%
D22*
%TO.P,LED3,1,VDD*%
%TO.N,VCC*%
X102050000Y-42430000D03*
%TO.P,LED3,2,DOUT*%
%TO.N,Net-(LED3-DOUT)*%
X102050000Y-43930000D03*
%TO.P,LED3,3,DIN*%
%TO.N,Net-(LED2-DOUT)*%
X107500000Y-42430000D03*
D23*
%TO.P,LED3,4,VSS*%
%TO.N,GND*%
X107500000Y-43930000D03*
%TD*%
D22*
%TO.P,LED2,1,VDD*%
%TO.N,VCC*%
X63950000Y-42430000D03*
%TO.P,LED2,2,DOUT*%
%TO.N,Net-(LED2-DOUT)*%
X63950000Y-43930000D03*
%TO.P,LED2,3,DIN*%
%TO.N,Net-(LED1-DOUT)*%
X69400000Y-42430000D03*
D23*
%TO.P,LED2,4,VSS*%
%TO.N,GND*%
X69400000Y-43930000D03*
%TD*%
D22*
%TO.P,LED1,1,VDD*%
%TO.N,VCC*%
X35375000Y-42430000D03*
%TO.P,LED1,2,DOUT*%
%TO.N,Net-(LED1-DOUT)*%
X35375000Y-43930000D03*
%TO.P,LED1,3,DIN*%
%TO.N,DIN*%
X40825000Y-42430000D03*
D23*
%TO.P,LED1,4,VSS*%
%TO.N,GND*%
X40825000Y-43930000D03*
%TD*%
D17*
%TO.P,D110,2,A*%
%TO.N,Net-(D110-A)*%
X464100000Y-145775000D03*
%TO.P,D110,1,K*%
%TO.N,ROW5*%
X464100000Y-149075000D03*
%TD*%
%TO.P,D109,2,A*%
%TO.N,Net-(D109-A)*%
X436900000Y-145775000D03*
%TO.P,D109,1,K*%
%TO.N,ROW5*%
X436900000Y-149075000D03*
%TD*%
%TO.P,D108,2,A*%
%TO.N,Net-(D108-A)*%
X404787500Y-145775000D03*
%TO.P,D108,1,K*%
%TO.N,ROW5*%
X404787500Y-149075000D03*
%TD*%
%TO.P,D107,2,A*%
%TO.N,Net-(D107-A)*%
X385737500Y-145775000D03*
%TO.P,D107,1,K*%
%TO.N,ROW5*%
X385737500Y-149075000D03*
%TD*%
%TO.P,D106,2,A*%
%TO.N,Net-(D106-A)*%
X366687500Y-145775000D03*
%TO.P,D106,1,K*%
%TO.N,ROW5*%
X366687500Y-149075000D03*
%TD*%
%TO.P,D105,2,A*%
%TO.N,Net-(D105-A)*%
X340493750Y-145775000D03*
%TO.P,D105,1,K*%
%TO.N,ROW5*%
X340493750Y-149075000D03*
%TD*%
%TO.P,D104,2,A*%
%TO.N,Net-(D104-A)*%
X316681250Y-145775000D03*
%TO.P,D104,1,K*%
%TO.N,ROW5*%
X316681250Y-149075000D03*
%TD*%
%TO.P,D103,2,A*%
%TO.N,Net-(D103-A)*%
X292868750Y-145775000D03*
%TO.P,D103,1,K*%
%TO.N,ROW5*%
X292868750Y-149075000D03*
%TD*%
%TO.P,D102,2,A*%
%TO.N,Net-(D102-A)*%
X269056250Y-145775000D03*
%TO.P,D102,1,K*%
%TO.N,ROW5*%
X269056250Y-149075000D03*
%TD*%
%TO.P,D101,2,A*%
%TO.N,Net-(D101-A)*%
X197618750Y-145775000D03*
%TO.P,D101,1,K*%
%TO.N,ROW5*%
X197618750Y-149075000D03*
%TD*%
%TO.P,D100,2,A*%
%TO.N,Net-(D100-A)*%
X126181250Y-145775000D03*
%TO.P,D100,1,K*%
%TO.N,ROW5*%
X126181250Y-149075000D03*
%TD*%
%TO.P,D99,2,A*%
%TO.N,Net-(D99-A)*%
X102368750Y-145775000D03*
%TO.P,D99,1,K*%
%TO.N,ROW5*%
X102368750Y-149075000D03*
%TD*%
%TO.P,D98,2,A*%
%TO.N,Net-(D98-A)*%
X78556250Y-145775000D03*
%TO.P,D98,1,K*%
%TO.N,ROW5*%
X78556250Y-149075000D03*
%TD*%
%TO.P,D97,2,A*%
%TO.N,Net-(D97-A)*%
X47600000Y-145775000D03*
%TO.P,D97,1,K*%
%TO.N,ROW5*%
X47600000Y-149075000D03*
%TD*%
%TO.P,D96,2,A*%
%TO.N,Net-(D96-A)*%
X476300000Y-143850000D03*
%TO.P,D96,1,K*%
%TO.N,ROW5*%
X476300000Y-147150000D03*
%TD*%
%TO.P,D95,2,A*%
%TO.N,Net-(D95-A)*%
X466700000Y-126725000D03*
%TO.P,D95,1,K*%
%TO.N,ROW4*%
X466700000Y-130025000D03*
%TD*%
%TO.P,D94,2,A*%
%TO.N,Net-(D94-A)*%
X447650000Y-126725000D03*
%TO.P,D94,1,K*%
%TO.N,ROW4*%
X447650000Y-130025000D03*
%TD*%
%TO.P,D93,2,A*%
%TO.N,Net-(D93-A)*%
X428600000Y-126725000D03*
%TO.P,D93,1,K*%
%TO.N,ROW4*%
X428600000Y-130025000D03*
%TD*%
%TO.P,D92,2,A*%
%TO.N,Net-(D92-A)*%
X385737500Y-126725000D03*
%TO.P,D92,1,K*%
%TO.N,ROW4*%
X385737500Y-130025000D03*
%TD*%
%TO.P,D91,2,A*%
%TO.N,Net-(D91-A)*%
X324900000Y-126725000D03*
%TO.P,D91,1,K*%
%TO.N,ROW4*%
X324900000Y-130025000D03*
%TD*%
%TO.P,D90,2,A*%
%TO.N,Net-(D90-A)*%
X290487500Y-126725000D03*
%TO.P,D90,1,K*%
%TO.N,ROW4*%
X290487500Y-130025000D03*
%TD*%
%TO.P,D89,2,A*%
%TO.N,Net-(D89-A)*%
X271437500Y-126725000D03*
%TO.P,D89,1,K*%
%TO.N,ROW4*%
X271437500Y-130025000D03*
%TD*%
%TO.P,D88,2,A*%
%TO.N,Net-(D88-A)*%
X252387500Y-126725000D03*
%TO.P,D88,1,K*%
%TO.N,ROW4*%
X252387500Y-130025000D03*
%TD*%
%TO.P,D87,2,A*%
%TO.N,Net-(D87-A)*%
X233337500Y-126725000D03*
%TO.P,D87,1,K*%
%TO.N,ROW4*%
X233337500Y-130025000D03*
%TD*%
%TO.P,D86,2,A*%
%TO.N,Net-(D86-A)*%
X214287500Y-126725000D03*
%TO.P,D86,1,K*%
%TO.N,ROW4*%
X214287500Y-130025000D03*
%TD*%
%TO.P,D85,2,A*%
%TO.N,Net-(D85-A)*%
X195237500Y-126725000D03*
%TO.P,D85,1,K*%
%TO.N,ROW4*%
X195237500Y-130025000D03*
%TD*%
%TO.P,D84,2,A*%
%TO.N,Net-(D84-A)*%
X176187500Y-126725000D03*
%TO.P,D84,1,K*%
%TO.N,ROW4*%
X176187500Y-130025000D03*
%TD*%
%TO.P,D83,2,A*%
%TO.N,Net-(D83-A)*%
X157137500Y-126725000D03*
%TO.P,D83,1,K*%
%TO.N,ROW4*%
X157137500Y-130025000D03*
%TD*%
%TO.P,D82,2,A*%
%TO.N,Net-(D82-A)*%
X138087500Y-126725000D03*
%TO.P,D82,1,K*%
%TO.N,ROW4*%
X138087500Y-130025000D03*
%TD*%
%TO.P,D81,2,A*%
%TO.N,Net-(D81-A)*%
X119037500Y-126725000D03*
%TO.P,D81,1,K*%
%TO.N,ROW4*%
X119037500Y-130025000D03*
%TD*%
%TO.P,D80,2,A*%
%TO.N,Net-(D80-A)*%
X88081250Y-126725000D03*
%TO.P,D80,1,K*%
%TO.N,ROW4*%
X88081250Y-130025000D03*
%TD*%
%TO.P,D79,2,A*%
%TO.N,Net-(D79-A)*%
X47600000Y-124820000D03*
%TO.P,D79,1,K*%
%TO.N,ROW4*%
X47600000Y-128120000D03*
%TD*%
%TO.P,D78,2,A*%
%TO.N,Net-(D78-A)*%
X464100000Y-107675000D03*
%TO.P,D78,1,K*%
%TO.N,ROW3*%
X464100000Y-110975000D03*
%TD*%
%TO.P,D77,2,A*%
%TO.N,Net-(D77-A)*%
X447650000Y-107675000D03*
%TO.P,D77,1,K*%
%TO.N,ROW3*%
X447650000Y-110975000D03*
%TD*%
%TO.P,D76,2,A*%
%TO.N,Net-(D76-A)*%
X428600000Y-107675000D03*
%TO.P,D76,1,K*%
%TO.N,ROW3*%
X428600000Y-110975000D03*
%TD*%
%TO.P,D75,2,A*%
%TO.N,Net-(D75-A)*%
X329700000Y-107675000D03*
%TO.P,D75,1,K*%
%TO.N,ROW3*%
X329700000Y-110975000D03*
%TD*%
%TO.P,D74,2,A*%
%TO.N,Net-(D74-A)*%
X300012500Y-107675000D03*
%TO.P,D74,1,K*%
%TO.N,ROW3*%
X300012500Y-110975000D03*
%TD*%
%TO.P,D73,2,A*%
%TO.N,Net-(D73-A)*%
X280962500Y-107675000D03*
%TO.P,D73,1,K*%
%TO.N,ROW3*%
X280962500Y-110975000D03*
%TD*%
%TO.P,D72,2,A*%
%TO.N,Net-(D72-A)*%
X261912500Y-107675000D03*
%TO.P,D72,1,K*%
%TO.N,ROW3*%
X261912500Y-110975000D03*
%TD*%
%TO.P,D71,2,A*%
%TO.N,Net-(D71-A)*%
X242862500Y-107675000D03*
%TO.P,D71,1,K*%
%TO.N,ROW3*%
X242862500Y-110975000D03*
%TD*%
%TO.P,D70,2,A*%
%TO.N,Net-(D70-A)*%
X223812500Y-107675000D03*
%TO.P,D70,1,K*%
%TO.N,ROW3*%
X223812500Y-110975000D03*
%TD*%
%TO.P,D69,2,A*%
%TO.N,Net-(D69-A)*%
X204762500Y-107675000D03*
%TO.P,D69,1,K*%
%TO.N,ROW3*%
X204762500Y-110975000D03*
%TD*%
%TO.P,D68,2,A*%
%TO.N,Net-(D68-A)*%
X185712500Y-107675000D03*
%TO.P,D68,1,K*%
%TO.N,ROW3*%
X185712500Y-110975000D03*
%TD*%
%TO.P,D67,2,A*%
%TO.N,Net-(D67-A)*%
X166662500Y-107675000D03*
%TO.P,D67,1,K*%
%TO.N,ROW3*%
X166662500Y-110975000D03*
%TD*%
%TO.P,D66,2,A*%
%TO.N,Net-(D66-A)*%
X147612500Y-107675000D03*
%TO.P,D66,1,K*%
%TO.N,ROW3*%
X147612500Y-110975000D03*
%TD*%
%TO.P,D65,2,A*%
%TO.N,Net-(D65-A)*%
X128562500Y-107675000D03*
%TO.P,D65,1,K*%
%TO.N,ROW3*%
X128562500Y-110975000D03*
%TD*%
%TO.P,D64,2,A*%
%TO.N,Net-(D64-A)*%
X109512500Y-107675000D03*
%TO.P,D64,1,K*%
%TO.N,ROW3*%
X109512500Y-110975000D03*
%TD*%
%TO.P,D63,2,A*%
%TO.N,Net-(D63-A)*%
X83318750Y-107675000D03*
%TO.P,D63,1,K*%
%TO.N,ROW3*%
X83318750Y-110975000D03*
%TD*%
%TO.P,D62,2,A*%
%TO.N,Net-(D62-A)*%
X47600000Y-103865000D03*
%TO.P,D62,1,K*%
%TO.N,ROW3*%
X47600000Y-107165000D03*
%TD*%
%TO.P,D61,2,A*%
%TO.N,Net-(D61-A)*%
X476300000Y-105750000D03*
%TO.P,D61,1,K*%
%TO.N,ROW5*%
X476300000Y-109050000D03*
%TD*%
%TO.P,D60,2,A*%
%TO.N,Net-(D60-A)*%
X466700000Y-88625000D03*
%TO.P,D60,1,K*%
%TO.N,ROW2*%
X466700000Y-91925000D03*
%TD*%
%TO.P,D59,2,A*%
%TO.N,Net-(D59-A)*%
X447650000Y-88625000D03*
%TO.P,D59,1,K*%
%TO.N,ROW4*%
X447650000Y-91925000D03*
%TD*%
%TO.P,D58,2,A*%
%TO.N,Net-(D58-A)*%
X428600000Y-88625000D03*
%TO.P,D58,1,K*%
%TO.N,ROW2*%
X428600000Y-91925000D03*
%TD*%
%TO.P,D57,2,A*%
%TO.N,Net-(D57-A)*%
X404787500Y-88625000D03*
%TO.P,D57,1,K*%
%TO.N,ROW2*%
X404787500Y-91925000D03*
%TD*%
%TO.P,D56,2,A*%
%TO.N,Net-(D56-A)*%
X385737500Y-88625000D03*
%TO.P,D56,1,K*%
%TO.N,ROW2*%
X385737500Y-91925000D03*
%TD*%
%TO.P,D55,2,A*%
%TO.N,Net-(D55-A)*%
X366687500Y-88625000D03*
%TO.P,D55,1,K*%
%TO.N,ROW2*%
X366687500Y-91925000D03*
%TD*%
%TO.P,D54,2,A*%
%TO.N,Net-(D54-A)*%
X338112500Y-88625000D03*
%TO.P,D54,1,K*%
%TO.N,ROW2*%
X338112500Y-91925000D03*
%TD*%
%TO.P,D53,2,A*%
%TO.N,Net-(D53-A)*%
X314300000Y-88625000D03*
%TO.P,D53,1,K*%
%TO.N,ROW2*%
X314300000Y-91925000D03*
%TD*%
%TO.P,D52,2,A*%
%TO.N,Net-(D52-A)*%
X295250000Y-88625000D03*
%TO.P,D52,1,K*%
%TO.N,ROW2*%
X295250000Y-91925000D03*
%TD*%
%TO.P,D51,2,A*%
%TO.N,Net-(D51-A)*%
X276200000Y-88625000D03*
%TO.P,D51,1,K*%
%TO.N,ROW2*%
X276200000Y-91925000D03*
%TD*%
%TO.P,D50,2,A*%
%TO.N,Net-(D50-A)*%
X257150000Y-88625000D03*
%TO.P,D50,1,K*%
%TO.N,ROW2*%
X257150000Y-91925000D03*
%TD*%
%TO.P,D49,2,A*%
%TO.N,Net-(D49-A)*%
X238100000Y-88625000D03*
%TO.P,D49,1,K*%
%TO.N,ROW2*%
X238100000Y-91925000D03*
%TD*%
%TO.P,D48,2,A*%
%TO.N,Net-(D48-A)*%
X219050000Y-88625000D03*
%TO.P,D48,1,K*%
%TO.N,ROW2*%
X219050000Y-91925000D03*
%TD*%
%TO.P,D47,2,A*%
%TO.N,Net-(D47-A)*%
X200000000Y-88625000D03*
%TO.P,D47,1,K*%
%TO.N,ROW2*%
X200000000Y-91925000D03*
%TD*%
%TO.P,D46,2,A*%
%TO.N,Net-(D46-A)*%
X180950000Y-88625000D03*
%TO.P,D46,1,K*%
%TO.N,ROW2*%
X180950000Y-91925000D03*
%TD*%
%TO.P,D45,2,A*%
%TO.N,Net-(D45-A)*%
X161900000Y-88625000D03*
%TO.P,D45,1,K*%
%TO.N,ROW2*%
X161900000Y-91925000D03*
%TD*%
%TO.P,D44,2,A*%
%TO.N,Net-(D44-A)*%
X142850000Y-88625000D03*
%TO.P,D44,1,K*%
%TO.N,ROW2*%
X142850000Y-91925000D03*
%TD*%
%TO.P,D43,2,A*%
%TO.N,Net-(D43-A)*%
X123800000Y-88625000D03*
%TO.P,D43,1,K*%
%TO.N,ROW2*%
X123800000Y-91925000D03*
%TD*%
%TO.P,D42,2,A*%
%TO.N,Net-(D42-A)*%
X104750000Y-88625000D03*
%TO.P,D42,1,K*%
%TO.N,ROW2*%
X104750000Y-91925000D03*
%TD*%
%TO.P,D41,2,A*%
%TO.N,Net-(D41-A)*%
X80937500Y-88625000D03*
%TO.P,D41,1,K*%
%TO.N,ROW2*%
X80937500Y-91925000D03*
%TD*%
%TO.P,D40,2,A*%
%TO.N,Net-(D40-A)*%
X47600000Y-82910000D03*
%TO.P,D40,1,K*%
%TO.N,ROW2*%
X47600000Y-86210000D03*
%TD*%
%TO.P,D39,2,A*%
%TO.N,Net-(D39-A)*%
X476300000Y-77175000D03*
%TO.P,D39,1,K*%
%TO.N,ROW5*%
X476300000Y-80475000D03*
%TD*%
%TO.P,D38,2,A*%
%TO.N,Net-(D38-A)*%
X466700000Y-69575000D03*
%TO.P,D38,1,K*%
%TO.N,ROW1*%
X466700000Y-72875000D03*
%TD*%
%TO.P,D37,2,A*%
%TO.N,Net-(D37-A)*%
X447650000Y-69575000D03*
%TO.P,D37,1,K*%
%TO.N,ROW3*%
X447650000Y-72875000D03*
%TD*%
%TO.P,D36,2,A*%
%TO.N,Net-(D36-A)*%
X428600000Y-69575000D03*
%TO.P,D36,1,K*%
%TO.N,ROW1*%
X428600000Y-72875000D03*
%TD*%
%TO.P,D35,2,A*%
%TO.N,Net-(D35-A)*%
X404787500Y-69575000D03*
%TO.P,D35,1,K*%
%TO.N,ROW1*%
X404787500Y-72875000D03*
%TD*%
%TO.P,D34,2,A*%
%TO.N,Net-(D34-A)*%
X385737500Y-69575000D03*
%TO.P,D34,1,K*%
%TO.N,ROW1*%
X385737500Y-72875000D03*
%TD*%
%TO.P,D33,2,A*%
%TO.N,Net-(D33-A)*%
X366687500Y-69575000D03*
%TO.P,D33,1,K*%
%TO.N,ROW1*%
X366687500Y-72875000D03*
%TD*%
%TO.P,D32,2,A*%
%TO.N,Net-(D32-A)*%
X333350000Y-69575000D03*
%TO.P,D32,1,K*%
%TO.N,ROW1*%
X333350000Y-72875000D03*
%TD*%
%TO.P,D31,2,A*%
%TO.N,Net-(D31-A)*%
X304775000Y-69575000D03*
%TO.P,D31,1,K*%
%TO.N,ROW1*%
X304775000Y-72875000D03*
%TD*%
%TO.P,D30,2,A*%
%TO.N,Net-(D30-A)*%
X285725000Y-69575000D03*
%TO.P,D30,1,K*%
%TO.N,ROW1*%
X285725000Y-72875000D03*
%TD*%
%TO.P,D29,2,A*%
%TO.N,Net-(D29-A)*%
X266675000Y-69575000D03*
%TO.P,D29,1,K*%
%TO.N,ROW1*%
X266675000Y-72875000D03*
%TD*%
%TO.P,D28,2,A*%
%TO.N,Net-(D28-A)*%
X247625000Y-69575000D03*
%TO.P,D28,1,K*%
%TO.N,ROW1*%
X247625000Y-72875000D03*
%TD*%
%TO.P,D27,2,A*%
%TO.N,Net-(D27-A)*%
X228575000Y-69575000D03*
%TO.P,D27,1,K*%
%TO.N,ROW1*%
X228575000Y-72875000D03*
%TD*%
%TO.P,D26,2,A*%
%TO.N,Net-(D26-A)*%
X209525000Y-69575000D03*
%TO.P,D26,1,K*%
%TO.N,ROW1*%
X209525000Y-72875000D03*
%TD*%
%TO.P,D25,2,A*%
%TO.N,Net-(D25-A)*%
X190475000Y-69575000D03*
%TO.P,D25,1,K*%
%TO.N,ROW1*%
X190475000Y-72875000D03*
%TD*%
%TO.P,D24,2,A*%
%TO.N,Net-(D24-A)*%
X171425000Y-69575000D03*
%TO.P,D24,1,K*%
%TO.N,ROW1*%
X171425000Y-72875000D03*
%TD*%
%TO.P,D23,2,A*%
%TO.N,Net-(D23-A)*%
X152375000Y-69575000D03*
%TO.P,D23,1,K*%
%TO.N,ROW1*%
X152375000Y-72875000D03*
%TD*%
%TO.P,D22,2,A*%
%TO.N,Net-(D22-A)*%
X133325000Y-69575000D03*
%TO.P,D22,1,K*%
%TO.N,ROW1*%
X133325000Y-72875000D03*
%TD*%
%TO.P,D21,2,A*%
%TO.N,Net-(D21-A)*%
X114275000Y-69575000D03*
%TO.P,D21,1,K*%
%TO.N,ROW1*%
X114275000Y-72875000D03*
%TD*%
%TO.P,D20,2,A*%
%TO.N,Net-(D20-A)*%
X95225000Y-69575000D03*
%TO.P,D20,1,K*%
%TO.N,ROW1*%
X95225000Y-72875000D03*
%TD*%
%TO.P,D19,2,A*%
%TO.N,Net-(D19-A)*%
X76175000Y-69575000D03*
%TO.P,D19,1,K*%
%TO.N,ROW1*%
X76175000Y-72875000D03*
%TD*%
%TO.P,D18,2,A*%
%TO.N,Net-(D18-A)*%
X47600000Y-61955000D03*
%TO.P,D18,1,K*%
%TO.N,ROW1*%
X47600000Y-65255000D03*
%TD*%
%TO.P,D17,2,A*%
%TO.N,Net-(D17-A)*%
X404787500Y-41000000D03*
%TO.P,D17,1,K*%
%TO.N,ROW0*%
X404787500Y-44300000D03*
%TD*%
%TO.P,D16,2,A*%
%TO.N,Net-(D16-A)*%
X385737500Y-41000000D03*
%TO.P,D16,1,K*%
%TO.N,ROW0*%
X385737500Y-44300000D03*
%TD*%
%TO.P,D15,2,A*%
%TO.N,Net-(D15-A)*%
X366687500Y-41000000D03*
%TO.P,D15,1,K*%
%TO.N,ROW0*%
X366687500Y-44300000D03*
%TD*%
%TO.P,D14,2,A*%
%TO.N,Net-(D14-A)*%
X342875000Y-41000000D03*
%TO.P,D14,1,K*%
%TO.N,ROW0*%
X342875000Y-44300000D03*
%TD*%
%TO.P,D13,2,A*%
%TO.N,Net-(D13-A)*%
X323825000Y-41000000D03*
%TO.P,D13,1,K*%
%TO.N,ROW0*%
X323825000Y-44300000D03*
%TD*%
%TO.P,D12,2,A*%
%TO.N,Net-(D12-A)*%
X304775000Y-41000000D03*
%TO.P,D12,1,K*%
%TO.N,ROW0*%
X304775000Y-44300000D03*
%TD*%
%TO.P,D11,2,A*%
%TO.N,Net-(D11-A)*%
X285725000Y-41000000D03*
%TO.P,D11,1,K*%
%TO.N,ROW0*%
X285725000Y-44300000D03*
%TD*%
%TO.P,D10,2,A*%
%TO.N,Net-(D10-A)*%
X257150000Y-41000000D03*
%TO.P,D10,1,K*%
%TO.N,ROW0*%
X257150000Y-44300000D03*
%TD*%
%TO.P,D9,2,A*%
%TO.N,Net-(D9-A)*%
X238100000Y-41000000D03*
%TO.P,D9,1,K*%
%TO.N,ROW0*%
X238100000Y-44300000D03*
%TD*%
%TO.P,D8,2,A*%
%TO.N,Net-(D8-A)*%
X219050000Y-41000000D03*
%TO.P,D8,1,K*%
%TO.N,ROW0*%
X219050000Y-44300000D03*
%TD*%
%TO.P,D7,2,A*%
%TO.N,Net-(D7-A)*%
X200000000Y-41000000D03*
%TO.P,D7,1,K*%
%TO.N,ROW0*%
X200000000Y-44300000D03*
%TD*%
%TO.P,D6,2,A*%
%TO.N,Net-(D6-A)*%
X171425000Y-41000000D03*
%TO.P,D6,1,K*%
%TO.N,ROW0*%
X171425000Y-44300000D03*
%TD*%
%TO.P,D5,2,A*%
%TO.N,Net-(D5-A)*%
X152375000Y-41000000D03*
%TO.P,D5,1,K*%
%TO.N,ROW0*%
X152375000Y-44300000D03*
%TD*%
%TO.P,D4,2,A*%
%TO.N,Net-(D4-A)*%
X133325000Y-41000000D03*
%TO.P,D4,1,K*%
%TO.N,ROW0*%
X133325000Y-44300000D03*
%TD*%
%TO.P,D3,2,A*%
%TO.N,Net-(D3-A)*%
X114275000Y-41000000D03*
%TO.P,D3,1,K*%
%TO.N,ROW0*%
X114275000Y-44300000D03*
%TD*%
%TO.P,D2,2,A*%
%TO.N,Net-(D2-A)*%
X76175000Y-41000000D03*
%TO.P,D2,1,K*%
%TO.N,ROW0*%
X76175000Y-44300000D03*
%TD*%
%TO.P,D1,2,A*%
%TO.N,Net-(D1-A)*%
X47600000Y-41000000D03*
%TO.P,D1,1,K*%
%TO.N,ROW0*%
X47600000Y-44300000D03*
%TD*%
D24*
%TO.P,C4,1*%
%TO.N,+3V3*%
X373473750Y-110250000D03*
%TO.P,C4,2*%
%TO.N,GND*%
X372513750Y-110250000D03*
%TD*%
D25*
%TO.P,U1,1,VBAT*%
%TO.N,+3V3*%
X381406250Y-103000000D03*
%TO.P,U1,2,PC13*%
%TO.N,/C13*%
X381406250Y-103500000D03*
%TO.P,U1,3,PC14*%
%TO.N,/C14*%
X381406250Y-104000000D03*
%TO.P,U1,4,PC15*%
%TO.N,/C15*%
X381406250Y-104500000D03*
%TO.P,U1,5,PF0*%
%TO.N,/F0*%
X381406250Y-105000000D03*
%TO.P,U1,6,PF1*%
%TO.N,/F1*%
X381406250Y-105500000D03*
%TO.P,U1,7,NRST*%
%TO.N,NRST*%
X381406250Y-106000000D03*
%TO.P,U1,8,VSSA*%
%TO.N,GND*%
X381406250Y-106500000D03*
%TO.P,U1,9,VDDA*%
%TO.N,+3V3*%
X381406250Y-107000000D03*
%TO.P,U1,10,PA0*%
%TO.N,/A0*%
X381406250Y-107500000D03*
%TO.P,U1,11,PA1*%
%TO.N,/A1*%
X381406250Y-108000000D03*
%TO.P,U1,12,PA2*%
%TO.N,/A2*%
X381406250Y-108500000D03*
D26*
%TO.P,U1,13,PA3*%
%TO.N,/A3*%
X379993750Y-109912500D03*
%TO.P,U1,14,PA4*%
%TO.N,/A4*%
X379493750Y-109912500D03*
%TO.P,U1,15,PA5*%
%TO.N,/A5*%
X378993750Y-109912500D03*
%TO.P,U1,16,PA6*%
%TO.N,/A6*%
X378493750Y-109912500D03*
%TO.P,U1,17,PA7*%
%TO.N,/A7*%
X377993750Y-109912500D03*
%TO.P,U1,18,PB0*%
%TO.N,/B0*%
X377493750Y-109912500D03*
%TO.P,U1,19,PB1*%
%TO.N,/B1*%
X376993750Y-109912500D03*
%TO.P,U1,20,PB2*%
%TO.N,/B2*%
X376493750Y-109912500D03*
%TO.P,U1,21,PB10*%
%TO.N,/B10*%
X375993750Y-109912500D03*
%TO.P,U1,22,PB11*%
%TO.N,/B11*%
X375493750Y-109912500D03*
%TO.P,U1,23,VSS*%
%TO.N,GND*%
X374993750Y-109912500D03*
%TO.P,U1,24,VDD*%
%TO.N,+3V3*%
X374493750Y-109912500D03*
D25*
%TO.P,U1,25,PB12*%
%TO.N,/B12*%
X373081250Y-108500000D03*
%TO.P,U1,26,PB13*%
%TO.N,/B13*%
X373081250Y-108000000D03*
%TO.P,U1,27,PB14*%
%TO.N,/B14*%
X373081250Y-107500000D03*
%TO.P,U1,28,PB15*%
%TO.N,/B15*%
X373081250Y-107000000D03*
%TO.P,U1,29,PA8*%
%TO.N,/A8*%
X373081250Y-106500000D03*
%TO.P,U1,30,PA9*%
%TO.N,/A9*%
X373081250Y-106000000D03*
%TO.P,U1,31,PA10*%
%TO.N,/A10*%
X373081250Y-105500000D03*
%TO.P,U1,32,PA11*%
%TO.N,D-*%
X373081250Y-105000000D03*
%TO.P,U1,33,PA12*%
%TO.N,D+*%
X373081250Y-104500000D03*
%TO.P,U1,34,PA13*%
%TO.N,/A13*%
X373081250Y-104000000D03*
%TO.P,U1,35,VSS*%
%TO.N,GND*%
X373081250Y-103500000D03*
%TO.P,U1,36,VDDIO2*%
%TO.N,+3V3*%
X373081250Y-103000000D03*
D26*
%TO.P,U1,37,PA14*%
%TO.N,/A14*%
X374493750Y-101587500D03*
%TO.P,U1,38,PA15*%
%TO.N,/A15*%
X374993750Y-101587500D03*
%TO.P,U1,39,PB3*%
%TO.N,/B3*%
X375493750Y-101587500D03*
%TO.P,U1,40,PB4*%
%TO.N,/B4*%
X375993750Y-101587500D03*
%TO.P,U1,41,PB5*%
%TO.N,/B5*%
X376493750Y-101587500D03*
%TO.P,U1,42,PB6*%
%TO.N,/B6*%
X376993750Y-101587500D03*
%TO.P,U1,43,PB7*%
%TO.N,/B7*%
X377493750Y-101587500D03*
%TO.P,U1,44,BOOT0*%
%TO.N,BOOT0*%
X377993750Y-101587500D03*
%TO.P,U1,45,PB8*%
%TO.N,/B8*%
X378493750Y-101587500D03*
%TO.P,U1,46,PB9*%
%TO.N,/B9*%
X378993750Y-101587500D03*
%TO.P,U1,47,VSS*%
%TO.N,GND*%
X379493750Y-101587500D03*
%TO.P,U1,48,VDD*%
%TO.N,+3V3*%
X379993750Y-101587500D03*
%TD*%
D27*
%TO.P,C3,1*%
%TO.N,+3V3*%
X372743750Y-101980000D03*
%TO.P,C3,2*%
%TO.N,GND*%
X372743750Y-101020000D03*
%TD*%
D28*
%TO.P,BOOT1,1,A*%
%TO.N,+3V3*%
X391093750Y-104650000D03*
X397393750Y-104650000D03*
%TO.P,BOOT1,2,B*%
%TO.N,BOOT0*%
X391093750Y-100850000D03*
X397393750Y-100850000D03*
%TD*%
D29*
%TO.P,U2,1,GND*%
%TO.N,GND*%
X360243750Y-106750000D03*
D30*
%TO.P,U2,2,I/O1*%
%TO.N,D-*%
X358543750Y-106750000D03*
%TO.P,U2,3,I/O2*%
%TO.N,D+*%
X358543750Y-104750000D03*
%TO.P,U2,4,VCC*%
%TO.N,+5V*%
X360443750Y-104750000D03*
%TD*%
D31*
%TO.P,C5,1*%
%TO.N,+3V3*%
X381013750Y-101250000D03*
%TO.P,C5,2*%
%TO.N,GND*%
X381973750Y-101250000D03*
%TD*%
D28*
%TO.P,RST1,1,A*%
%TO.N,NRST*%
X397393750Y-106850000D03*
X391093750Y-106850000D03*
%TO.P,RST1,2,B*%
%TO.N,GND*%
X397393750Y-110650000D03*
X391093750Y-110650000D03*
%TD*%
D32*
%TO.P,U3,1,GND*%
%TO.N,GND*%
X366043750Y-100562500D03*
%TO.P,U3,2,VO*%
%TO.N,+3V3*%
X367943750Y-100562500D03*
%TO.P,U3,3,VI*%
%TO.N,+5V*%
X366993750Y-102437500D03*
%TD*%
D27*
%TO.P,C6,1*%
%TO.N,+3V3*%
X382993750Y-102230000D03*
%TO.P,C6,2*%
%TO.N,GND*%
X382993750Y-101270000D03*
%TD*%
D33*
%TO.P,R1,1*%
%TO.N,GND*%
X360743750Y-102240000D03*
%TO.P,R1,2*%
%TO.N,Net-(J1-CC1)*%
X360743750Y-103260000D03*
%TD*%
D34*
%TO.P,C10,1*%
%TO.N,+3V3*%
X369493750Y-102520000D03*
%TO.P,C10,2*%
%TO.N,GND*%
X369493750Y-103480000D03*
%TD*%
D35*
%TO.P,F1,1*%
%TO.N,VBUS*%
X363743750Y-107150000D03*
%TO.P,F1,2*%
%TO.N,+5V*%
X363743750Y-104350000D03*
%TD*%
D24*
%TO.P,C9,1*%
%TO.N,+5V*%
X366473750Y-104250000D03*
%TO.P,C9,2*%
%TO.N,GND*%
X365513750Y-104250000D03*
%TD*%
D34*
%TO.P,C1,1*%
%TO.N,NRST*%
X384980327Y-106783423D03*
%TO.P,C1,2*%
%TO.N,GND*%
X384980327Y-107743423D03*
%TD*%
D33*
%TO.P,R4,1*%
%TO.N,Net-(R3-Pad2)*%
X387243750Y-106490000D03*
%TO.P,R4,2*%
%TO.N,GND*%
X387243750Y-107510000D03*
%TD*%
D27*
%TO.P,C7,1*%
%TO.N,+3V3*%
X383730327Y-107743423D03*
%TO.P,C7,2*%
%TO.N,GND*%
X383730327Y-106783423D03*
%TD*%
D36*
%TO.P,R2,1*%
%TO.N,Net-(J1-CC2)*%
X358243750Y-103260000D03*
%TO.P,R2,2*%
%TO.N,GND*%
X358243750Y-102240000D03*
%TD*%
D33*
%TO.P,R3,1*%
%TO.N,BOOT0*%
X387243750Y-103990000D03*
%TO.P,R3,2*%
%TO.N,Net-(R3-Pad2)*%
X387243750Y-105010000D03*
%TD*%
D37*
%TO.P,C2,1*%
%TO.N,+3V3*%
X369743750Y-101025000D03*
%TO.P,C2,2*%
%TO.N,GND*%
X369743750Y-99475000D03*
%TD*%
D24*
%TO.P,C8,1*%
%TO.N,+5V*%
X363223750Y-102750000D03*
%TO.P,C8,2*%
%TO.N,GND*%
X362263750Y-102750000D03*
%TD*%
D19*
%TO.P,MX54,1,1*%
%TO.N,COL13*%
X324802500Y-83185000D03*
D20*
X322977500Y-83185000D03*
D21*
X321252500Y-83185000D03*
%TO.P,MX54,2,2*%
%TO.N,Net-(D54-A)*%
X334702500Y-80645000D03*
D20*
X332952500Y-80645000D03*
D19*
X331152500Y-80645000D03*
%TD*%
D38*
%TO.N,COL02*%
X107300000Y-140300000D03*
X119300000Y-121100000D03*
X109900000Y-102100000D03*
X105100000Y-83100000D03*
X95500000Y-64100000D03*
X95700000Y-35500000D03*
%TO.N,Net-(MX20-Pad1)*%
X86300000Y-138100000D03*
X99700000Y-121300000D03*
X89900000Y-102100000D03*
X78500000Y-66100000D03*
X85700000Y-83100000D03*
%TO.N,COL01*%
X57500000Y-64300000D03*
X57500000Y-83300000D03*
X57500000Y-102300000D03*
X57500000Y-35500000D03*
X57500000Y-140300000D03*
%TO.N,COL00*%
X28900000Y-56500000D03*
X28900000Y-77500000D03*
X28900000Y-98500000D03*
X28900000Y-119300000D03*
X28900000Y-140300000D03*
X28900000Y-35500000D03*
%TO.N,Net-(D111-A)*%
X421700000Y-42900000D03*
%TO.N,Net-(D112-A)*%
X459700000Y-43100000D03*
%TO.N,GND*%
X386230327Y-109013423D03*
X368243750Y-103000000D03*
X361993750Y-104000000D03*
X359493750Y-101250000D03*
X383993750Y-101250000D03*
X371493750Y-110250000D03*
X361993750Y-107250000D03*
X389493750Y-109750000D03*
%TO.N,+3V3*%
X384730327Y-108763423D03*
X373743750Y-101500000D03*
X372993750Y-109250000D03*
X381493750Y-102250000D03*
X368493750Y-101750000D03*
%TO.N,NRST*%
X390493750Y-108750000D03*
X385943750Y-105800000D03*
%TD*%
D39*
%TO.N,COL02*%
X107300000Y-140300000D02*
X109286250Y-140300000D01*
X109286250Y-140300000D02*
X109321250Y-140335000D01*
X121227500Y-121285000D02*
X119485000Y-121285000D01*
X119485000Y-121285000D02*
X119300000Y-121100000D01*
X111567500Y-102100000D02*
X111702500Y-102235000D01*
X109900000Y-102100000D02*
X111567500Y-102100000D01*
X105185000Y-83185000D02*
X105100000Y-83100000D01*
X106940000Y-83185000D02*
X105185000Y-83185000D01*
X95535000Y-64135000D02*
X95500000Y-64100000D01*
X97415000Y-64135000D02*
X95535000Y-64135000D01*
X95760000Y-35560000D02*
X95700000Y-35500000D01*
X97415000Y-35560000D02*
X95760000Y-35560000D01*
%TO.N,Net-(MX20-Pad1)*%
X85508750Y-138891250D02*
X86300000Y-138100000D01*
X85508750Y-140335000D02*
X85508750Y-138891250D01*
X102162500Y-121300000D02*
X102177500Y-121285000D01*
X99700000Y-121300000D02*
X102162500Y-121300000D01*
X89900000Y-102100000D02*
X90035000Y-102235000D01*
X90035000Y-102235000D02*
X92652500Y-102235000D01*
X87805000Y-83100000D02*
X87890000Y-83185000D01*
X85700000Y-83100000D02*
X87805000Y-83100000D01*
X78365000Y-65965000D02*
X78500000Y-66100000D01*
X78365000Y-64135000D02*
X78365000Y-65965000D01*
%TO.N,COL01*%
X57665000Y-64135000D02*
X57500000Y-64300000D01*
X59315000Y-64135000D02*
X57665000Y-64135000D01*
X57615000Y-83185000D02*
X57500000Y-83300000D01*
X64077500Y-83185000D02*
X57615000Y-83185000D01*
X66458750Y-102235000D02*
X57565000Y-102235000D01*
X57565000Y-102235000D02*
X57500000Y-102300000D01*
X57535000Y-140335000D02*
X61696250Y-140335000D01*
X57560000Y-35560000D02*
X57500000Y-35500000D01*
X59315000Y-35560000D02*
X57560000Y-35560000D01*
X57500000Y-140300000D02*
X57535000Y-140335000D01*
%TO.N,ROW5*%
X78556250Y-152128750D02*
X78500000Y-152185000D01*
X78556250Y-149075000D02*
X78556250Y-152128750D01*
X78500000Y-152185000D02*
X102300000Y-152185000D01*
X50710000Y-152185000D02*
X78500000Y-152185000D01*
X102368750Y-152116250D02*
X102300000Y-152185000D01*
X102368750Y-149075000D02*
X102368750Y-152116250D01*
X102300000Y-152185000D02*
X126300000Y-152185000D01*
X126300000Y-152185000D02*
X197700000Y-152185000D01*
X126181250Y-152066250D02*
X126300000Y-152185000D01*
X126181250Y-149075000D02*
X126181250Y-152066250D01*
X197618750Y-152103750D02*
X197700000Y-152185000D01*
X197618750Y-149075000D02*
X197618750Y-152103750D01*
X197700000Y-152185000D02*
X269100000Y-152185000D01*
X269056250Y-149075000D02*
X269056250Y-152141250D01*
X269056250Y-152141250D02*
X269100000Y-152185000D01*
X269100000Y-152185000D02*
X292900000Y-152185000D01*
X292868750Y-149075000D02*
X292868750Y-152153750D01*
X292868750Y-152153750D02*
X292900000Y-152185000D01*
X292900000Y-152185000D02*
X316700000Y-152185000D01*
X316681250Y-152166250D02*
X316700000Y-152185000D01*
X316681250Y-149075000D02*
X316681250Y-152166250D01*
X316700000Y-152185000D02*
X340500000Y-152185000D01*
X340493750Y-152178750D02*
X340500000Y-152185000D01*
X340493750Y-149075000D02*
X340493750Y-152178750D01*
X340500000Y-152185000D02*
X366700000Y-152185000D01*
X366687500Y-152172500D02*
X366700000Y-152185000D01*
X366687500Y-149075000D02*
X366687500Y-152172500D01*
X366700000Y-152185000D02*
X385700000Y-152185000D01*
X385737500Y-149075000D02*
X385737500Y-152147500D01*
X385737500Y-152147500D02*
X385700000Y-152185000D01*
X385700000Y-152185000D02*
X404900000Y-152185000D01*
X404787500Y-152072500D02*
X404900000Y-152185000D01*
X404787500Y-149075000D02*
X404787500Y-152072500D01*
X404900000Y-152185000D02*
X436900000Y-152185000D01*
X436900000Y-149075000D02*
X436900000Y-152185000D01*
X436900000Y-152185000D02*
X464100000Y-152185000D01*
X464100000Y-149075000D02*
X464100000Y-152185000D01*
X464100000Y-152185000D02*
X471265000Y-152185000D01*
X471265000Y-152185000D02*
X476300000Y-147150000D01*
X47600000Y-149075000D02*
X50710000Y-152185000D01*
%TO.N,ROW4*%
X138087500Y-132238600D02*
X138100000Y-132251100D01*
X138087500Y-130025000D02*
X138087500Y-132238600D01*
X120548900Y-132251100D02*
X138100000Y-132251100D01*
X138100000Y-132251100D02*
X157100000Y-132251100D01*
X157137500Y-132213600D02*
X157100000Y-132251100D01*
X157137500Y-130025000D02*
X157137500Y-132213600D01*
X157100000Y-132251100D02*
X176100000Y-132251100D01*
X176187500Y-132163600D02*
X176100000Y-132251100D01*
X176100000Y-132251100D02*
X195300000Y-132251100D01*
X176187500Y-130025000D02*
X176187500Y-132163600D01*
X195237500Y-132188600D02*
X195300000Y-132251100D01*
X195237500Y-130025000D02*
X195237500Y-132188600D01*
X195300000Y-132251100D02*
X214300000Y-132251100D01*
X214287500Y-130025000D02*
X214287500Y-132238600D01*
X214287500Y-132238600D02*
X214300000Y-132251100D01*
X214300000Y-132251100D02*
X233300000Y-132251100D01*
X233337500Y-132213600D02*
X233300000Y-132251100D01*
X233300000Y-132251100D02*
X252500000Y-132251100D01*
X233337500Y-130025000D02*
X233337500Y-132213600D01*
X252387500Y-130025000D02*
X252387500Y-132138600D01*
X252500000Y-132251100D02*
X271500000Y-132251100D01*
X252387500Y-132138600D02*
X252500000Y-132251100D01*
X290487500Y-132238600D02*
X290500000Y-132251100D01*
X290500000Y-132251100D02*
X290700000Y-132251100D01*
X290487500Y-130025000D02*
X290487500Y-132238600D01*
X271500000Y-132251100D02*
X290500000Y-132251100D01*
X271437500Y-132188600D02*
X271500000Y-132251100D01*
X271437500Y-130025000D02*
X271437500Y-132188600D01*
X290700000Y-132251100D02*
X303032428Y-132251100D01*
X324900000Y-130025000D02*
X324900000Y-133055625D01*
X324900000Y-133055625D02*
X385700000Y-133055625D01*
X303836953Y-133055625D02*
X324900000Y-133055625D01*
X385737500Y-133018125D02*
X385700000Y-133055625D01*
X385737500Y-130025000D02*
X385737500Y-133018125D01*
X385700000Y-133055625D02*
X414744375Y-133055625D01*
X447650000Y-130025000D02*
X447650000Y-132050000D01*
X447650000Y-132050000D02*
X447700000Y-132100000D01*
X447700000Y-132100000D02*
X465900000Y-132100000D01*
X428700000Y-132100000D02*
X447700000Y-132100000D01*
X428600000Y-132000000D02*
X428700000Y-132100000D01*
X428600000Y-130025000D02*
X428600000Y-132000000D01*
X415700000Y-132100000D02*
X428700000Y-132100000D01*
X466700000Y-131100000D02*
X466700000Y-130025000D01*
X465900000Y-131900000D02*
X466700000Y-131100000D01*
X414744375Y-133055625D02*
X415700000Y-132100000D01*
X465900000Y-132100000D02*
X465900000Y-131900000D01*
X303032428Y-132251100D02*
X303836953Y-133055625D01*
X119100000Y-133700000D02*
X120548900Y-132251100D01*
X119100000Y-133300000D02*
X119037500Y-133237500D01*
X119100000Y-133700000D02*
X119100000Y-133300000D01*
X53180000Y-133700000D02*
X119100000Y-133700000D01*
X47600000Y-128120000D02*
X53180000Y-133700000D01*
X119037500Y-133237500D02*
X119037500Y-130025000D01*
%TO.N,ROW3*%
X83318750Y-112881250D02*
X83300000Y-112900000D01*
X83318750Y-110975000D02*
X83318750Y-112881250D01*
X83300000Y-112900000D02*
X109700000Y-112900000D01*
X53335000Y-112900000D02*
X83300000Y-112900000D01*
X109700000Y-112900000D02*
X128500000Y-112900000D01*
X109512500Y-110975000D02*
X109512500Y-112712500D01*
X109512500Y-112712500D02*
X109700000Y-112900000D01*
X128562500Y-110975000D02*
X128562500Y-112837500D01*
X128500000Y-112900000D02*
X147700000Y-112900000D01*
X128562500Y-112837500D02*
X128500000Y-112900000D01*
X147612500Y-110975000D02*
X147612500Y-112812500D01*
X147612500Y-112812500D02*
X147700000Y-112900000D01*
X147700000Y-112900000D02*
X166700000Y-112900000D01*
X166662500Y-110975000D02*
X166662500Y-112862500D01*
X166700000Y-112900000D02*
X185700000Y-112900000D01*
X166662500Y-112862500D02*
X166700000Y-112900000D01*
X185712500Y-112887500D02*
X185700000Y-112900000D01*
X185712500Y-110975000D02*
X185712500Y-112887500D01*
X185700000Y-112900000D02*
X204900000Y-112900000D01*
X204762500Y-112762500D02*
X204900000Y-112900000D01*
X204762500Y-110975000D02*
X204762500Y-112762500D01*
X204900000Y-112900000D02*
X223900000Y-112900000D01*
X223812500Y-112812500D02*
X223900000Y-112900000D01*
X223812500Y-110975000D02*
X223812500Y-112812500D01*
X223900000Y-112900000D02*
X242900000Y-112900000D01*
X242862500Y-112862500D02*
X242900000Y-112900000D01*
X242900000Y-112900000D02*
X261900000Y-112900000D01*
X242862500Y-110975000D02*
X242862500Y-112862500D01*
X261912500Y-112887500D02*
X261900000Y-112900000D01*
X261912500Y-110975000D02*
X261912500Y-112887500D01*
X261900000Y-112900000D02*
X281100000Y-112900000D01*
X280962500Y-112762500D02*
X281100000Y-112900000D01*
X280962500Y-110975000D02*
X280962500Y-112762500D01*
X281100000Y-112900000D02*
X298087500Y-112900000D01*
X447650000Y-114050000D02*
X447700000Y-114100000D01*
X447650000Y-110975000D02*
X447650000Y-114050000D01*
X447700000Y-114100000D02*
X460975000Y-114100000D01*
X428500000Y-114100000D02*
X447700000Y-114100000D01*
X428600000Y-114000000D02*
X428500000Y-114100000D01*
X428600000Y-110975000D02*
X428600000Y-114000000D01*
X332375000Y-114100000D02*
X428500000Y-114100000D01*
X460975000Y-114100000D02*
X464100000Y-110975000D01*
X329700000Y-111425000D02*
X332375000Y-114100000D01*
X329700000Y-110975000D02*
X329700000Y-111425000D01*
X326590000Y-114085000D02*
X329700000Y-110975000D01*
X308599453Y-114085000D02*
X326590000Y-114085000D01*
X300012500Y-110975000D02*
X305489453Y-110975000D01*
X305489453Y-110975000D02*
X308599453Y-114085000D01*
X298087500Y-112900000D02*
X300012500Y-110975000D01*
X47600000Y-107165000D02*
X53335000Y-112900000D01*
%TO.N,ROW2*%
X428600000Y-94051100D02*
X428700000Y-94151100D01*
X428600000Y-91925000D02*
X428600000Y-94051100D01*
X428700000Y-94151100D02*
X464473900Y-94151100D01*
X404900000Y-94151100D02*
X428700000Y-94151100D01*
X404787500Y-94038600D02*
X404900000Y-94151100D01*
X404787500Y-91925000D02*
X404787500Y-94038600D01*
X385900000Y-94151100D02*
X404900000Y-94151100D01*
X385737500Y-91925000D02*
X385737500Y-93988600D01*
X366700000Y-94151100D02*
X385900000Y-94151100D01*
X385737500Y-93988600D02*
X385900000Y-94151100D01*
X366687500Y-94138600D02*
X366700000Y-94151100D01*
X366687500Y-91925000D02*
X366687500Y-94138600D01*
X338100000Y-94151100D02*
X366700000Y-94151100D01*
X338112500Y-94138600D02*
X338100000Y-94151100D01*
X338112500Y-91925000D02*
X338112500Y-94138600D01*
X314300000Y-94151100D02*
X338100000Y-94151100D01*
X314300000Y-91925000D02*
X314300000Y-94151100D01*
X295300000Y-94151100D02*
X314300000Y-94151100D01*
X295250000Y-94101100D02*
X295300000Y-94151100D01*
X295250000Y-91925000D02*
X295250000Y-94101100D01*
X276300000Y-94151100D02*
X295300000Y-94151100D01*
X276200000Y-91925000D02*
X276200000Y-94051100D01*
X276200000Y-94051100D02*
X276300000Y-94151100D01*
X257300000Y-94151100D02*
X276300000Y-94151100D01*
X257150000Y-91925000D02*
X257150000Y-94001100D01*
X257150000Y-94001100D02*
X257300000Y-94151100D01*
X238100000Y-94151100D02*
X257300000Y-94151100D01*
X238100000Y-91925000D02*
X238100000Y-94151100D01*
X219100000Y-94151100D02*
X238100000Y-94151100D01*
X219050000Y-91925000D02*
X219050000Y-94101100D01*
X200100000Y-94151100D02*
X219100000Y-94151100D01*
X219050000Y-94101100D02*
X219100000Y-94151100D01*
X200000000Y-91925000D02*
X200000000Y-94051100D01*
X200000000Y-94051100D02*
X200100000Y-94151100D01*
X180900000Y-94151100D02*
X200100000Y-94151100D01*
X180950000Y-91925000D02*
X180950000Y-94101100D01*
X180950000Y-94101100D02*
X180900000Y-94151100D01*
X161900000Y-94151100D02*
X180900000Y-94151100D01*
X161900000Y-91925000D02*
X161900000Y-94151100D01*
X142900000Y-94151100D02*
X161900000Y-94151100D01*
X142850000Y-91925000D02*
X142850000Y-94101100D01*
X142850000Y-94101100D02*
X142900000Y-94151100D01*
X123900000Y-94151100D02*
X142900000Y-94151100D01*
X123800000Y-94051100D02*
X123900000Y-94151100D01*
X123800000Y-91925000D02*
X123800000Y-94051100D01*
X104700000Y-94151100D02*
X123900000Y-94151100D01*
X104750000Y-94101100D02*
X104700000Y-94151100D01*
X104750000Y-91925000D02*
X104750000Y-94101100D01*
X80900000Y-94151100D02*
X104700000Y-94151100D01*
X80937500Y-91925000D02*
X80937500Y-94113600D01*
X80937500Y-94113600D02*
X80900000Y-94151100D01*
X55541100Y-94151100D02*
X80900000Y-94151100D01*
X464473900Y-94151100D02*
X466700000Y-91925000D01*
X47600000Y-86210000D02*
X55541100Y-94151100D01*
%TO.N,ROW1*%
X76175000Y-76625000D02*
X76100000Y-76700000D01*
X76175000Y-72875000D02*
X76175000Y-76625000D01*
X59045000Y-76700000D02*
X76100000Y-76700000D01*
X76100000Y-76700000D02*
X95300000Y-76700000D01*
X95225000Y-76625000D02*
X95300000Y-76700000D01*
X95300000Y-76700000D02*
X114300000Y-76700000D01*
X95225000Y-72875000D02*
X95225000Y-76625000D01*
X114275000Y-76675000D02*
X114300000Y-76700000D01*
X114275000Y-72875000D02*
X114275000Y-76675000D01*
X114300000Y-76700000D02*
X133300000Y-76700000D01*
X133325000Y-76675000D02*
X133300000Y-76700000D01*
X133325000Y-72875000D02*
X133325000Y-76675000D01*
X133300000Y-76700000D02*
X152300000Y-76700000D01*
X152375000Y-76625000D02*
X152300000Y-76700000D01*
X152375000Y-72875000D02*
X152375000Y-76625000D01*
X152300000Y-76700000D02*
X171500000Y-76700000D01*
X171425000Y-76625000D02*
X171500000Y-76700000D01*
X171425000Y-72875000D02*
X171425000Y-76625000D01*
X171500000Y-76700000D02*
X190500000Y-76700000D01*
X190475000Y-76675000D02*
X190500000Y-76700000D01*
X190475000Y-72875000D02*
X190475000Y-76675000D01*
X190500000Y-76700000D02*
X209500000Y-76700000D01*
X209525000Y-76675000D02*
X209500000Y-76700000D01*
X209500000Y-76700000D02*
X228700000Y-76700000D01*
X209525000Y-72875000D02*
X209525000Y-76675000D01*
X228575000Y-76575000D02*
X228700000Y-76700000D01*
X228575000Y-72875000D02*
X228575000Y-76575000D01*
X228700000Y-76700000D02*
X247700000Y-76700000D01*
X247700000Y-76700000D02*
X266700000Y-76700000D01*
X247625000Y-72875000D02*
X247625000Y-76625000D01*
X247625000Y-76625000D02*
X247700000Y-76700000D01*
X266700000Y-76700000D02*
X285700000Y-76700000D01*
X266675000Y-72875000D02*
X266675000Y-76675000D01*
X266675000Y-76675000D02*
X266700000Y-76700000D01*
X285725000Y-76675000D02*
X285700000Y-76700000D01*
X285725000Y-72875000D02*
X285725000Y-76675000D01*
X285700000Y-76700000D02*
X304900000Y-76700000D01*
X304775000Y-72875000D02*
X304775000Y-76575000D01*
X304900000Y-76700000D02*
X333300000Y-76700000D01*
X304775000Y-76575000D02*
X304900000Y-76700000D01*
X333350000Y-72875000D02*
X333350000Y-76650000D01*
X333300000Y-76700000D02*
X366700000Y-76700000D01*
X333350000Y-76650000D02*
X333300000Y-76700000D01*
X366687500Y-76687500D02*
X366700000Y-76700000D01*
X366700000Y-76700000D02*
X385700000Y-76700000D01*
X366687500Y-72875000D02*
X366687500Y-76687500D01*
X385737500Y-76662500D02*
X385700000Y-76700000D01*
X385737500Y-72875000D02*
X385737500Y-76662500D01*
X385700000Y-76700000D02*
X404900000Y-76700000D01*
X404787500Y-76587500D02*
X404900000Y-76700000D01*
X404787500Y-72875000D02*
X404787500Y-76587500D01*
X404900000Y-76700000D02*
X428700000Y-76700000D01*
X428600000Y-72875000D02*
X428600000Y-76600000D01*
X428600000Y-76600000D02*
X428700000Y-76700000D01*
X428700000Y-76700000D02*
X462875000Y-76700000D01*
X462875000Y-76700000D02*
X466700000Y-72875000D01*
X47600000Y-65255000D02*
X59045000Y-76700000D01*
%TO.N,ROW0*%
X404787500Y-49237500D02*
X404900000Y-49350000D01*
X404900000Y-49350000D02*
X385700000Y-49350000D01*
X404787500Y-44300000D02*
X404787500Y-49237500D01*
X421700000Y-49350000D02*
X404900000Y-49350000D01*
X385737500Y-49312500D02*
X385700000Y-49350000D01*
X385700000Y-49350000D02*
X366700000Y-49350000D01*
X385737500Y-44300000D02*
X385737500Y-49312500D01*
X366687500Y-44300000D02*
X366687500Y-49337500D01*
X366700000Y-49350000D02*
X342900000Y-49350000D01*
X366687500Y-49337500D02*
X366700000Y-49350000D01*
X323825000Y-44300000D02*
X323825000Y-49275000D01*
X323900000Y-49350000D02*
X323700000Y-49350000D01*
X342900000Y-49350000D02*
X323900000Y-49350000D01*
X323825000Y-49275000D02*
X323900000Y-49350000D01*
X342875000Y-44300000D02*
X342875000Y-49325000D01*
X342875000Y-49325000D02*
X342900000Y-49350000D01*
X323700000Y-49350000D02*
X304700000Y-49350000D01*
X304775000Y-49275000D02*
X304700000Y-49350000D01*
X304775000Y-44300000D02*
X304775000Y-49275000D01*
X304700000Y-49350000D02*
X285700000Y-49350000D01*
X285725000Y-49325000D02*
X285700000Y-49350000D01*
X285725000Y-44300000D02*
X285725000Y-49325000D01*
X285700000Y-49350000D02*
X257100000Y-49350000D01*
X257150000Y-49300000D02*
X257100000Y-49350000D01*
X257100000Y-49350000D02*
X238300000Y-49350000D01*
X257150000Y-44300000D02*
X257150000Y-49300000D01*
X238100000Y-49150000D02*
X238300000Y-49350000D01*
X238100000Y-44300000D02*
X238100000Y-49150000D01*
X238300000Y-49350000D02*
X219100000Y-49350000D01*
X219100000Y-49350000D02*
X200100000Y-49350000D01*
X219050000Y-49300000D02*
X219100000Y-49350000D01*
X219050000Y-44300000D02*
X219050000Y-49300000D01*
X200000000Y-49250000D02*
X200100000Y-49350000D01*
X200100000Y-49350000D02*
X171500000Y-49350000D01*
X200000000Y-44300000D02*
X200000000Y-49250000D01*
X171425000Y-49275000D02*
X171500000Y-49350000D01*
X171425000Y-44300000D02*
X171425000Y-49275000D01*
X171500000Y-49350000D02*
X152500000Y-49350000D01*
X152375000Y-49225000D02*
X152500000Y-49350000D01*
X152375000Y-44300000D02*
X152375000Y-49225000D01*
X152500000Y-49350000D02*
X133300000Y-49350000D01*
X133325000Y-49325000D02*
X133300000Y-49350000D01*
X133300000Y-49350000D02*
X114300000Y-49350000D01*
X133325000Y-44300000D02*
X133325000Y-49325000D01*
X114275000Y-44300000D02*
X114275000Y-49325000D01*
X114300000Y-49350000D02*
X76100000Y-49350000D01*
X114275000Y-49325000D02*
X114300000Y-49350000D01*
X76175000Y-44300000D02*
X76175000Y-49275000D01*
X76100000Y-49350000D02*
X52650000Y-49350000D01*
X76175000Y-49275000D02*
X76100000Y-49350000D01*
X52650000Y-49350000D02*
X47600000Y-44300000D01*
X459700000Y-49350000D02*
X421700000Y-49350000D01*
X51400000Y-48100000D02*
X51500000Y-48100000D01*
X47600000Y-44300000D02*
X51400000Y-48100000D01*
%TO.N,COL00*%
X28915000Y-56515000D02*
X28900000Y-56500000D01*
X30740000Y-56515000D02*
X28915000Y-56515000D01*
X28930000Y-77470000D02*
X28900000Y-77500000D01*
X30740000Y-77470000D02*
X28930000Y-77470000D01*
X28975000Y-98425000D02*
X28900000Y-98500000D01*
X30740000Y-98425000D02*
X28975000Y-98425000D01*
X30740000Y-119380000D02*
X28980000Y-119380000D01*
X28980000Y-119380000D02*
X28900000Y-119300000D01*
X28935000Y-140335000D02*
X28900000Y-140300000D01*
X30740000Y-140335000D02*
X28935000Y-140335000D01*
X28960000Y-35560000D02*
X28900000Y-35500000D01*
X30740000Y-35560000D02*
X28960000Y-35560000D01*
%TO.N,Net-(D111-A)*%
X421700000Y-46050000D02*
X421700000Y-43100000D01*
%TO.N,Net-(D112-A)*%
X459700000Y-46050000D02*
X459700000Y-43100000D01*
%TO.N,Net-(D96-A)*%
X479975000Y-140175000D02*
X476300000Y-143850000D01*
X479975000Y-130635000D02*
X479975000Y-140175000D01*
X482340000Y-128270000D02*
X479975000Y-130635000D01*
%TO.N,Net-(D61-A)*%
X482580000Y-99470000D02*
X476300000Y-105750000D01*
X482580000Y-90410000D02*
X482580000Y-99470000D01*
X482340000Y-90170000D02*
X482580000Y-90410000D01*
%TO.N,Net-(D39-A)*%
X482580000Y-70895000D02*
X476300000Y-77175000D01*
X482580000Y-61835000D02*
X482580000Y-70895000D01*
X482340000Y-61595000D02*
X482580000Y-61835000D01*
%TO.N,Net-(D60-A)*%
X466700000Y-85398881D02*
X466700000Y-88625000D01*
X463290000Y-81988881D02*
X466700000Y-85398881D01*
X463290000Y-80645000D02*
X463290000Y-81988881D01*
%TO.N,Net-(D59-A)*%
X447650000Y-84055000D02*
X447650000Y-88625000D01*
X444240000Y-80645000D02*
X447650000Y-84055000D01*
%TO.N,Net-(D38-A)*%
X463290000Y-61595000D02*
X466700000Y-65005000D01*
X466700000Y-65005000D02*
X466700000Y-69575000D01*
%TO.N,Net-(D37-A)*%
X444240000Y-61595000D02*
X447650000Y-65005000D01*
X447650000Y-65005000D02*
X447650000Y-69575000D01*
%TO.N,Net-(D36-A)*%
X428600000Y-65005000D02*
X428600000Y-69575000D01*
X425190000Y-61595000D02*
X428600000Y-65005000D01*
%TO.N,Net-(D58-A)*%
X428600000Y-84055000D02*
X428600000Y-88625000D01*
X425190000Y-80645000D02*
X428600000Y-84055000D01*
%TO.N,Net-(D78-A)*%
X464100000Y-100505000D02*
X464100000Y-107675000D01*
X463290000Y-99695000D02*
X464100000Y-100505000D01*
%TO.N,Net-(D77-A)*%
X447650000Y-103105000D02*
X447650000Y-107675000D01*
X444240000Y-99695000D02*
X447650000Y-103105000D01*
%TO.N,Net-(D94-A)*%
X447650000Y-122155000D02*
X447650000Y-126725000D01*
X444240000Y-118745000D02*
X447650000Y-122155000D01*
%TO.N,Net-(D95-A)*%
X465900000Y-125925000D02*
X466700000Y-126725000D01*
X465900000Y-122605000D02*
X465900000Y-125925000D01*
X463290000Y-119995000D02*
X465900000Y-122605000D01*
X463290000Y-118745000D02*
X463290000Y-119995000D01*
%TO.N,Net-(D110-A)*%
X464100000Y-138605000D02*
X464100000Y-145775000D01*
X463290000Y-137795000D02*
X464100000Y-138605000D01*
%TO.N,Net-(D109-A)*%
X434715000Y-137795000D02*
X436900000Y-139980000D01*
X436900000Y-139980000D02*
X436900000Y-145775000D01*
%TO.N,Net-(D108-A)*%
X404787500Y-141205000D02*
X404787500Y-145775000D01*
X401377500Y-137795000D02*
X404787500Y-141205000D01*
%TO.N,Net-(D107-A)*%
X382327500Y-137795000D02*
X385737500Y-141205000D01*
X385737500Y-141205000D02*
X385737500Y-145775000D01*
%TO.N,Net-(D106-A)*%
X366687500Y-141205000D02*
X366687500Y-145775000D01*
X363277500Y-137795000D02*
X366687500Y-141205000D01*
%TO.N,Net-(D92-A)*%
X385737500Y-122155000D02*
X385737500Y-126725000D01*
X382327500Y-118745000D02*
X385737500Y-122155000D01*
%TO.N,Net-(D35-A)*%
X404787500Y-65005000D02*
X404787500Y-69575000D01*
X401377500Y-61595000D02*
X404787500Y-65005000D01*
%TO.N,Net-(D57-A)*%
X404787500Y-84055000D02*
X404787500Y-88625000D01*
X401377500Y-80645000D02*
X404787500Y-84055000D01*
%TO.N,Net-(D34-A)*%
X385737500Y-65005000D02*
X385737500Y-69575000D01*
X382327500Y-61595000D02*
X385737500Y-65005000D01*
%TO.N,Net-(D33-A)*%
X363277500Y-61595000D02*
X366687500Y-65005000D01*
X366687500Y-65005000D02*
X366687500Y-69575000D01*
%TO.N,Net-(D56-A)*%
X385737500Y-84055000D02*
X385737500Y-88625000D01*
X382327500Y-80645000D02*
X385737500Y-84055000D01*
%TO.N,Net-(D55-A)*%
X366687500Y-84055000D02*
X366687500Y-88625000D01*
X363277500Y-80645000D02*
X366687500Y-84055000D01*
%TO.N,Net-(D30-A)*%
X285725000Y-65005000D02*
X285725000Y-69575000D01*
X282315000Y-61595000D02*
X285725000Y-65005000D01*
%TO.N,Net-(D31-A)*%
X304775000Y-65005000D02*
X304775000Y-69575000D01*
X301365000Y-61595000D02*
X304775000Y-65005000D01*
%TO.N,Net-(D32-A)*%
X333350000Y-65005000D02*
X333350000Y-69575000D01*
X329940000Y-61595000D02*
X333350000Y-65005000D01*
%TO.N,Net-(D54-A)*%
X338112500Y-84055000D02*
X338112500Y-88625000D01*
X334702500Y-80645000D02*
X338112500Y-84055000D01*
%TO.N,Net-(D53-A)*%
X314300000Y-84055000D02*
X314300000Y-88625000D01*
X310890000Y-80645000D02*
X314300000Y-84055000D01*
%TO.N,Net-(D52-A)*%
X295250000Y-84055000D02*
X295250000Y-88625000D01*
X291840000Y-80645000D02*
X295250000Y-84055000D01*
%TO.N,Net-(D91-A)*%
X324900000Y-120848750D02*
X324900000Y-126725000D01*
X322796250Y-118745000D02*
X324900000Y-120848750D01*
%TO.N,Net-(D75-A)*%
X327558750Y-99695000D02*
X329700000Y-101836250D01*
X329700000Y-101836250D02*
X329700000Y-107675000D01*
%TO.N,Net-(D105-A)*%
X340493750Y-141205000D02*
X340493750Y-145775000D01*
X337083750Y-137795000D02*
X340493750Y-141205000D01*
%TO.N,Net-(D104-A)*%
X316681250Y-141205000D02*
X316681250Y-145775000D01*
X313271250Y-137795000D02*
X316681250Y-141205000D01*
%TO.N,Net-(D103-A)*%
X292868750Y-141205000D02*
X292868750Y-145775000D01*
X289458750Y-137795000D02*
X292868750Y-141205000D01*
%TO.N,Net-(D102-A)*%
X269056250Y-141205000D02*
X269056250Y-145775000D01*
X265646250Y-137795000D02*
X269056250Y-141205000D01*
%TO.N,Net-(D88-A)*%
X252387500Y-122155000D02*
X252387500Y-126725000D01*
X248977500Y-118745000D02*
X252387500Y-122155000D01*
%TO.N,Net-(D89-A)*%
X268027500Y-118745000D02*
X271437500Y-122155000D01*
X271437500Y-122155000D02*
X271437500Y-126725000D01*
%TO.N,Net-(D90-A)*%
X290487500Y-122155000D02*
X290487500Y-126725000D01*
X287077500Y-118745000D02*
X290487500Y-122155000D01*
%TO.N,Net-(D74-A)*%
X300012500Y-103105000D02*
X300012500Y-107675000D01*
X296602500Y-99695000D02*
X300012500Y-103105000D01*
%TO.N,Net-(D73-A)*%
X280962500Y-103105000D02*
X280962500Y-107675000D01*
X277552500Y-99695000D02*
X280962500Y-103105000D01*
%TO.N,Net-(D72-A)*%
X261912500Y-103105000D02*
X261912500Y-107675000D01*
X258502500Y-99695000D02*
X261912500Y-103105000D01*
%TO.N,Net-(D71-A)*%
X242862500Y-103105000D02*
X242862500Y-107675000D01*
X239452500Y-99695000D02*
X242862500Y-103105000D01*
%TO.N,Net-(D10-A)*%
X257150000Y-36430000D02*
X257150000Y-41000000D01*
X253740000Y-33020000D02*
X257150000Y-36430000D01*
%TO.N,Net-(D9-A)*%
X238100000Y-36430000D02*
X238100000Y-41000000D01*
X234690000Y-33020000D02*
X238100000Y-36430000D01*
%TO.N,Net-(D8-A)*%
X219050000Y-36430000D02*
X219050000Y-41000000D01*
X215640000Y-33020000D02*
X219050000Y-36430000D01*
%TO.N,Net-(D7-A)*%
X200000000Y-36430000D02*
X200000000Y-41000000D01*
X196590000Y-33020000D02*
X200000000Y-36430000D01*
%TO.N,Net-(D25-A)*%
X190475000Y-65005000D02*
X190475000Y-69575000D01*
X187065000Y-61595000D02*
X190475000Y-65005000D01*
%TO.N,Net-(D26-A)*%
X209525000Y-65005000D02*
X209525000Y-69575000D01*
X206115000Y-61595000D02*
X209525000Y-65005000D01*
%TO.N,Net-(D27-A)*%
X225165000Y-61595000D02*
X228575000Y-65005000D01*
X228575000Y-65005000D02*
X228575000Y-69575000D01*
%TO.N,Net-(D28-A)*%
X247625000Y-65005000D02*
X247625000Y-69575000D01*
X244215000Y-61595000D02*
X247625000Y-65005000D01*
%TO.N,Net-(D29-A)*%
X266675000Y-65005000D02*
X266675000Y-69575000D01*
X263265000Y-61595000D02*
X266675000Y-65005000D01*
%TO.N,Net-(D51-A)*%
X276200000Y-84055000D02*
X276200000Y-88625000D01*
X272790000Y-80645000D02*
X276200000Y-84055000D01*
%TO.N,Net-(D50-A)*%
X257150000Y-84055000D02*
X257150000Y-88625000D01*
X253740000Y-80645000D02*
X257150000Y-84055000D01*
%TO.N,Net-(D49-A)*%
X238100000Y-84055000D02*
X238100000Y-88625000D01*
X234690000Y-80645000D02*
X238100000Y-84055000D01*
%TO.N,Net-(D48-A)*%
X219050000Y-84055000D02*
X219050000Y-88625000D01*
X215640000Y-80645000D02*
X219050000Y-84055000D01*
%TO.N,Net-(D47-A)*%
X196590000Y-80645000D02*
X200000000Y-84055000D01*
X200000000Y-84055000D02*
X200000000Y-88625000D01*
%TO.N,Net-(D46-A)*%
X180950000Y-84055000D02*
X180950000Y-88625000D01*
X177540000Y-80645000D02*
X180950000Y-84055000D01*
%TO.N,Net-(D69-A)*%
X204762500Y-103105000D02*
X204762500Y-107675000D01*
X201352500Y-99695000D02*
X204762500Y-103105000D01*
%TO.N,Net-(D70-A)*%
X223812500Y-103105000D02*
X223812500Y-107675000D01*
X220402500Y-99695000D02*
X223812500Y-103105000D01*
%TO.N,Net-(D87-A)*%
X233337500Y-122155000D02*
X233337500Y-126725000D01*
X229927500Y-118745000D02*
X233337500Y-122155000D01*
%TO.N,Net-(D86-A)*%
X214287500Y-122155000D02*
X214287500Y-126725000D01*
X210877500Y-118745000D02*
X214287500Y-122155000D01*
%TO.N,Net-(D85-A)*%
X195237500Y-122155000D02*
X195237500Y-126725000D01*
X191827500Y-118745000D02*
X195237500Y-122155000D01*
%TO.N,Net-(D101-A)*%
X197618750Y-141205000D02*
X197618750Y-145775000D01*
X194208750Y-137795000D02*
X197618750Y-141205000D01*
%TO.N,Net-(D68-A)*%
X185712500Y-103105000D02*
X185712500Y-107675000D01*
X182302500Y-99695000D02*
X185712500Y-103105000D01*
%TO.N,Net-(D84-A)*%
X176187500Y-122155000D02*
X176187500Y-126725000D01*
X172777500Y-118745000D02*
X176187500Y-122155000D01*
%TO.N,Net-(D83-A)*%
X157137500Y-122155000D02*
X157137500Y-126725000D01*
X153727500Y-118745000D02*
X157137500Y-122155000D01*
%TO.N,Net-(D82-A)*%
X138087500Y-122155000D02*
X138087500Y-126725000D01*
X134677500Y-118745000D02*
X138087500Y-122155000D01*
%TO.N,Net-(D81-A)*%
X119037500Y-122155000D02*
X119037500Y-126725000D01*
X115627500Y-118745000D02*
X119037500Y-122155000D01*
%TO.N,Net-(D80-A)*%
X88081250Y-122155000D02*
X88081250Y-126725000D01*
X84671250Y-118745000D02*
X88081250Y-122155000D01*
%TO.N,Net-(D100-A)*%
X126181250Y-141205000D02*
X126181250Y-145775000D01*
X122771250Y-137795000D02*
X126181250Y-141205000D01*
%TO.N,Net-(D99-A)*%
X102368750Y-141205000D02*
X102368750Y-145775000D01*
X98958750Y-137795000D02*
X102368750Y-141205000D01*
%TO.N,Net-(D98-A)*%
X78556250Y-141205000D02*
X78556250Y-145775000D01*
X75146250Y-137795000D02*
X78556250Y-141205000D01*
%TO.N,Net-(D67-A)*%
X166662500Y-103105000D02*
X166662500Y-107675000D01*
X163252500Y-99695000D02*
X166662500Y-103105000D01*
%TO.N,Net-(D66-A)*%
X147612500Y-103105000D02*
X147612500Y-107675000D01*
X144202500Y-99695000D02*
X147612500Y-103105000D01*
%TO.N,Net-(D65-A)*%
X128562500Y-103105000D02*
X128562500Y-107675000D01*
X125152500Y-99695000D02*
X128562500Y-103105000D01*
%TO.N,Net-(D64-A)*%
X109512500Y-103105000D02*
X109512500Y-107675000D01*
X106102500Y-99695000D02*
X109512500Y-103105000D01*
%TO.N,Net-(D45-A)*%
X161900000Y-84055000D02*
X161900000Y-88625000D01*
X158490000Y-80645000D02*
X161900000Y-84055000D01*
%TO.N,Net-(D44-A)*%
X142850000Y-84055000D02*
X142850000Y-88625000D01*
X139440000Y-80645000D02*
X142850000Y-84055000D01*
%TO.N,Net-(D43-A)*%
X123800000Y-84055000D02*
X123800000Y-88625000D01*
X120390000Y-80645000D02*
X123800000Y-84055000D01*
%TO.N,Net-(D42-A)*%
X104750000Y-84055000D02*
X104750000Y-88625000D01*
X101340000Y-80645000D02*
X104750000Y-84055000D01*
%TO.N,Net-(D24-A)*%
X171425000Y-65005000D02*
X171425000Y-69575000D01*
X168015000Y-61595000D02*
X171425000Y-65005000D01*
%TO.N,Net-(D23-A)*%
X152375000Y-65005000D02*
X152375000Y-69575000D01*
X148965000Y-61595000D02*
X152375000Y-65005000D01*
%TO.N,Net-(D22-A)*%
X133325000Y-65005000D02*
X133325000Y-69575000D01*
X129915000Y-61595000D02*
X133325000Y-65005000D01*
%TO.N,Net-(D6-A)*%
X171425000Y-36430000D02*
X171425000Y-41000000D01*
X168015000Y-33020000D02*
X171425000Y-36430000D01*
%TO.N,Net-(D5-A)*%
X152375000Y-36430000D02*
X152375000Y-41000000D01*
X148965000Y-33020000D02*
X152375000Y-36430000D01*
%TO.N,Net-(D4-A)*%
X133325000Y-36430000D02*
X133325000Y-41000000D01*
X129915000Y-33020000D02*
X133325000Y-36430000D01*
%TO.N,Net-(D3-A)*%
X114275000Y-36430000D02*
X114275000Y-41000000D01*
X110865000Y-33020000D02*
X114275000Y-36430000D01*
%TO.N,Net-(D21-A)*%
X114275000Y-65005000D02*
X114275000Y-69575000D01*
X110865000Y-61595000D02*
X114275000Y-65005000D01*
%TO.N,Net-(D20-A)*%
X95225000Y-65005000D02*
X95225000Y-69575000D01*
X91815000Y-61595000D02*
X95225000Y-65005000D01*
%TO.N,Net-(D63-A)*%
X83318750Y-103105000D02*
X83318750Y-107675000D01*
X79908750Y-99695000D02*
X83318750Y-103105000D01*
%TO.N,Net-(D41-A)*%
X80937500Y-84055000D02*
X80937500Y-88625000D01*
X77527500Y-80645000D02*
X80937500Y-84055000D01*
%TO.N,Net-(D19-A)*%
X76175000Y-65005000D02*
X76175000Y-69575000D01*
X72765000Y-61595000D02*
X76175000Y-65005000D01*
%TO.N,Net-(D2-A)*%
X76175000Y-36430000D02*
X76175000Y-41000000D01*
X72765000Y-33020000D02*
X76175000Y-36430000D01*
%TO.N,Net-(D97-A)*%
X44190000Y-137795000D02*
X47600000Y-141205000D01*
X47600000Y-141205000D02*
X47600000Y-145775000D01*
%TO.N,Net-(D79-A)*%
X44190000Y-116840000D02*
X47600000Y-120250000D01*
X47600000Y-120250000D02*
X47600000Y-124820000D01*
%TO.N,Net-(D62-A)*%
X44190000Y-95885000D02*
X47600000Y-99295000D01*
X47600000Y-99295000D02*
X47600000Y-103865000D01*
%TO.N,Net-(D40-A)*%
X47600000Y-78340000D02*
X47600000Y-82910000D01*
X44190000Y-74930000D02*
X47600000Y-78340000D01*
%TO.N,Net-(D18-A)*%
X47600000Y-57385000D02*
X47600000Y-61955000D01*
X44190000Y-53975000D02*
X47600000Y-57385000D01*
%TO.N,Net-(D1-A)*%
X47600000Y-36430000D02*
X47600000Y-41000000D01*
X44190000Y-33020000D02*
X47600000Y-36430000D01*
D40*
%TO.N,+5V*%
X366243750Y-105000000D02*
X364393750Y-105000000D01*
X360693750Y-105000000D02*
X360443750Y-104750000D01*
X363743750Y-103270000D02*
X363223750Y-102750000D01*
X366993750Y-102437500D02*
X366993750Y-103730000D01*
X363093750Y-105000000D02*
X360693750Y-105000000D01*
X363743750Y-104350000D02*
X363093750Y-105000000D01*
X366993750Y-103730000D02*
X366473750Y-104250000D01*
X364393750Y-105000000D02*
X363743750Y-104350000D01*
X363743750Y-104350000D02*
X363743750Y-103270000D01*
X366473750Y-104250000D02*
X366473750Y-104770000D01*
X366473750Y-104770000D02*
X366243750Y-105000000D01*
D41*
%TO.N,GND*%
X372993750Y-111250000D02*
X372513750Y-110770000D01*
X372223750Y-101020000D02*
X372743750Y-101020000D01*
D40*
X383847883Y-106783423D02*
X383730327Y-106783423D01*
D41*
X381406250Y-106500000D02*
X383446904Y-106500000D01*
D40*
X367356250Y-99250000D02*
X366043750Y-100562500D01*
X382993750Y-101270000D02*
X383993750Y-101250000D01*
X366043750Y-100562500D02*
X366043750Y-101720000D01*
D41*
X381406250Y-106500000D02*
X377993750Y-106500000D01*
X377993750Y-106500000D02*
X377243750Y-105750000D01*
X373081250Y-103500000D02*
X374993750Y-103500000D01*
D40*
X360483750Y-102240000D02*
X360743750Y-102240000D01*
D41*
X374993750Y-109912500D02*
X374993750Y-108000000D01*
D40*
X359493750Y-101250000D02*
X358503750Y-102240000D01*
X368243750Y-103000000D02*
X368723750Y-103480000D01*
D41*
X379493750Y-101587500D02*
X379493750Y-100500000D01*
D40*
X389493750Y-109750000D02*
X390393750Y-110650000D01*
X366043750Y-101720000D02*
X365513750Y-102250000D01*
X381973750Y-101250000D02*
X382973750Y-101250000D01*
X361993750Y-107250000D02*
X361493750Y-106750000D01*
X372513750Y-110250000D02*
X371493750Y-110250000D01*
D41*
X379743750Y-100250000D02*
X381493750Y-100250000D01*
D40*
X369518750Y-99250000D02*
X367356250Y-99250000D01*
D41*
X377243750Y-105750000D02*
X379493750Y-103500000D01*
X381973750Y-100730000D02*
X381973750Y-101250000D01*
X383446904Y-106500000D02*
X383730327Y-106783423D01*
D40*
X390393750Y-110650000D02*
X391093750Y-110650000D01*
X384980327Y-107743423D02*
X384807883Y-107743423D01*
X391093750Y-110650000D02*
X397393750Y-110650000D01*
D41*
X374993750Y-103500000D02*
X377243750Y-105750000D01*
D40*
X361993750Y-104000000D02*
X361993750Y-103020000D01*
D41*
X372513750Y-110770000D02*
X372513750Y-110250000D01*
D40*
X384980327Y-107763423D02*
X386230327Y-109013423D01*
X361493750Y-106750000D02*
X360243750Y-106750000D01*
D41*
X374993750Y-108000000D02*
X377243750Y-105750000D01*
D40*
X387243750Y-107510000D02*
X387243750Y-108000000D01*
D41*
X374743750Y-111250000D02*
X372993750Y-111250000D01*
D40*
X361753750Y-102240000D02*
X362493750Y-101500000D01*
X364763750Y-101500000D02*
X365513750Y-102250000D01*
X361993750Y-103020000D02*
X362263750Y-102750000D01*
X361753750Y-102240000D02*
X360743750Y-102240000D01*
X358503750Y-102240000D02*
X358243750Y-102240000D01*
D41*
X381493750Y-100250000D02*
X381973750Y-100730000D01*
D40*
X365513750Y-104250000D02*
X365513750Y-102250000D01*
D41*
X379493750Y-100500000D02*
X379743750Y-100250000D01*
X371743750Y-103250000D02*
X371743750Y-101500000D01*
X374993750Y-109912500D02*
X374993750Y-111000000D01*
X371993750Y-103500000D02*
X371743750Y-103250000D01*
D40*
X362493750Y-101500000D02*
X364763750Y-101500000D01*
X387243750Y-108000000D02*
X386230327Y-109013423D01*
X359493750Y-101250000D02*
X360483750Y-102240000D01*
D41*
X374993750Y-111000000D02*
X374743750Y-111250000D01*
X379493750Y-103500000D02*
X379493750Y-101587500D01*
D40*
X368723750Y-103480000D02*
X369493750Y-103480000D01*
D41*
X371743750Y-101500000D02*
X372223750Y-101020000D01*
X373081250Y-103500000D02*
X371993750Y-103500000D01*
D40*
X384807883Y-107743423D02*
X383847883Y-106783423D01*
X362263750Y-102750000D02*
X361753750Y-102240000D01*
D41*
%TO.N,+3V3*%
X373081250Y-103000000D02*
X372743750Y-102662500D01*
D40*
X381513750Y-102230000D02*
X382993750Y-102230000D01*
X383730327Y-107763423D02*
X384730327Y-108763423D01*
X373743750Y-101500000D02*
X373263750Y-101980000D01*
X385837827Y-109870923D02*
X384730327Y-108763423D01*
X367943750Y-100562500D02*
X367943750Y-101200000D01*
D41*
X382993750Y-102230000D02*
X382223750Y-103000000D01*
D40*
X381013750Y-101770000D02*
X381013750Y-101250000D01*
X373473750Y-110250000D02*
X373473750Y-109730000D01*
D41*
X382223750Y-103000000D02*
X381406250Y-103000000D01*
D40*
X373263750Y-101980000D02*
X372743750Y-101980000D01*
D41*
X372743750Y-102662500D02*
X372743750Y-101980000D01*
D40*
X391093750Y-104650000D02*
X390093750Y-104650000D01*
X391093750Y-104650000D02*
X397393750Y-104650000D01*
X369263750Y-102520000D02*
X369493750Y-102520000D01*
X367943750Y-101200000D02*
X369263750Y-102520000D01*
D41*
X379993750Y-101587500D02*
X379993750Y-102500000D01*
D40*
X369743750Y-102270000D02*
X369743750Y-101025000D01*
D41*
X382743750Y-107000000D02*
X383487173Y-107743423D01*
X379993750Y-102500000D02*
X380493750Y-103000000D01*
D40*
X390093750Y-104650000D02*
X388843750Y-105900000D01*
X381493750Y-102250000D02*
X381013750Y-101770000D01*
D41*
X381406250Y-107000000D02*
X382743750Y-107000000D01*
D40*
X388843750Y-105900000D02*
X388843750Y-107650000D01*
D41*
X380493750Y-103000000D02*
X381406250Y-103000000D01*
D40*
X386622827Y-109870923D02*
X385837827Y-109870923D01*
D41*
X383487173Y-107743423D02*
X383730327Y-107743423D01*
D40*
X367943750Y-101200000D02*
X368493750Y-101750000D01*
X381493750Y-102250000D02*
X381513750Y-102230000D01*
X388843750Y-107650000D02*
X386622827Y-109870923D01*
D41*
X374156250Y-110250000D02*
X373473750Y-110250000D01*
D40*
X373473750Y-109730000D02*
X372993750Y-109250000D01*
D41*
X374493750Y-109912500D02*
X374156250Y-110250000D01*
X380331250Y-101250000D02*
X379993750Y-101587500D01*
X381013750Y-101250000D02*
X380331250Y-101250000D01*
D39*
%TO.N,NRST*%
X391093750Y-106850000D02*
X397393750Y-106850000D01*
X391093750Y-106850000D02*
X391093750Y-108150000D01*
X384196904Y-106000000D02*
X384980327Y-106783423D01*
X391093750Y-108150000D02*
X390493750Y-108750000D01*
X381406250Y-106000000D02*
X384196904Y-106000000D01*
X384980327Y-106783423D02*
X385943750Y-105820000D01*
X385943750Y-105820000D02*
X385943750Y-105800000D01*
%TO.N,BOOT0*%
X389893750Y-100850000D02*
X387743750Y-103000000D01*
X391093750Y-100850000D02*
X397393750Y-100850000D01*
X391093750Y-100850000D02*
X389893750Y-100850000D01*
X387743750Y-103000000D02*
X387243750Y-103500000D01*
X387243750Y-103500000D02*
X387243750Y-103990000D01*
D40*
%TO.N,Net-(R3-Pad2)*%
X387243750Y-106490000D02*
X387243750Y-105010000D01*
D42*
%TO.N,D+*%
X370057350Y-104525000D02*
X371949999Y-104525000D01*
X358593750Y-104750000D02*
X359368750Y-105525000D01*
X371949999Y-104525000D02*
X371974999Y-104500000D01*
X369057350Y-105525000D02*
X370057350Y-104525000D01*
X359368750Y-105525000D02*
X369057350Y-105525000D01*
X371974999Y-104500000D02*
X373081250Y-104500000D01*
%TO.N,D-*%
X370243750Y-104975000D02*
X371949999Y-104975000D01*
X371949999Y-104975000D02*
X371974999Y-105000000D01*
X369243750Y-105975000D02*
X370243750Y-104975000D01*
X358593750Y-106750000D02*
X359368750Y-105975000D01*
X369243750Y-105975000D02*
X359368750Y-105975000D01*
X371974999Y-105000000D02*
X373081250Y-105000000D01*
%TD*%
M02*
