%TF.GenerationSoftware,KiCad,Pcbnew,8.0.2*%
%TF.CreationDate,2024-05-15T22:30:44+02:00*%
%TF.ProjectId,micha_board,6d696368-615f-4626-9f61-72642e6b6963,rev?*%
%TF.SameCoordinates,Original*%
%TF.FileFunction,Copper,L1,Top*%
%TF.FilePolarity,Positive*%
%FSLAX46Y46*%
G04 Gerber Fmt 4.6, Leading zero omitted, Abs format (unit mm)*
G04 Created by KiCad (PCBNEW 8.0.2) date 2024-05-15 22:30:44*
%MOMM*%
%LPD*%
G01*
G04 APERTURE LIST*
G04 Aperture macros list*
%AMRoundRect*
0 Rectangle with rounded corners*
0 $1 Rounding radius*
0 $2 $3 $4 $5 $6 $7 $8 $9 X,Y pos of 4 corners*
0 Add a 4 corners polygon primitive as box body*
4,1,4,$2,$3,$4,$5,$6,$7,$8,$9,$2,$3,0*
0 Add four circle primitives for the rounded corners*
1,1,$1+$1,$2,$3*
1,1,$1+$1,$4,$5*
1,1,$1+$1,$6,$7*
1,1,$1+$1,$8,$9*
0 Add four rect primitives between the rounded corners*
20,1,$1+$1,$2,$3,$4,$5,0*
20,1,$1+$1,$4,$5,$6,$7,0*
20,1,$1+$1,$6,$7,$8,$9,0*
20,1,$1+$1,$8,$9,$2,$3,0*%
G04 Aperture macros list end*
%TA.AperFunction,ComponentPad*%
%ADD10O,1.000000X2.100000*%
%TD*%
%TA.AperFunction,ComponentPad*%
%ADD11O,1.000000X1.600000*%
%TD*%
%TA.AperFunction,ComponentPad*%
%ADD12C,2.000000*%
%TD*%
%TA.AperFunction,ComponentPad*%
%ADD13RoundRect,0.500000X0.500000X0.500000X-0.500000X0.500000X-0.500000X-0.500000X0.500000X-0.500000X0*%
%TD*%
%TA.AperFunction,ComponentPad*%
%ADD14RoundRect,0.550000X1.150000X0.550000X-1.150000X0.550000X-1.150000X-0.550000X1.150000X-0.550000X0*%
%TD*%
%TA.AperFunction,ComponentPad*%
%ADD15C,4.000000*%
%TD*%
%TA.AperFunction,ComponentPad*%
%ADD16C,3.300000*%
%TD*%
%TA.AperFunction,ViaPad*%
%ADD17C,0.800000*%
%TD*%
%TA.AperFunction,Conductor*%
%ADD18C,0.250000*%
%TD*%
%TA.AperFunction,Conductor*%
%ADD19C,0.400000*%
%TD*%
G04 APERTURE END LIST*
D10*
%TO.P,J1,S1,SHIELD*%
%TO.N,GND*%
X257580000Y-34630000D03*
D11*
X257580000Y-30450000D03*
D10*
X266220000Y-34630000D03*
D11*
X266220000Y-30450000D03*
%TD*%
D12*
%TO.P,SW2,A,A*%
%TO.N,ENC1_B*%
X474200000Y-40600000D03*
%TO.P,SW2,B,B*%
%TO.N,ENC1_A*%
X474200000Y-35600000D03*
D13*
%TO.P,SW2,C,C*%
%TO.N,GND*%
X474200000Y-38100000D03*
D14*
%TO.P,SW2,MP*%
%TO.N,N/C*%
X466700000Y-43700000D03*
X466700000Y-32500000D03*
D12*
%TO.P,SW2,S1,S1*%
%TO.N,COL19*%
X459700000Y-35600000D03*
%TO.P,SW2,S2,S2*%
%TO.N,Net-(D112-A)*%
X459700000Y-40600000D03*
%TD*%
%TO.P,SW1,A,A*%
%TO.N,ENC0_B*%
X436200000Y-40600000D03*
%TO.P,SW1,B,B*%
%TO.N,ENC0_A*%
X436200000Y-35600000D03*
D13*
%TO.P,SW1,C,C*%
%TO.N,GND*%
X436200000Y-38100000D03*
D14*
%TO.P,SW1,MP*%
%TO.N,N/C*%
X428700000Y-43700000D03*
X428700000Y-32500000D03*
D12*
%TO.P,SW1,S1,S1*%
%TO.N,COL17*%
X421700000Y-35600000D03*
%TO.P,SW1,S2,S2*%
%TO.N,Net-(D111-A)*%
X421700000Y-40600000D03*
%TD*%
D15*
%TO.P,S8,*%
%TO.N,*%
X335756250Y-73660000D03*
X311943750Y-73660000D03*
%TD*%
%TO.P,S4,*%
%TO.N,*%
X328612500Y-130730625D03*
X304800000Y-130730625D03*
%TD*%
%TO.P,S7,*%
%TO.N,*%
X483235000Y-83343750D03*
X483235000Y-107156250D03*
%TD*%
%TO.P,S6,*%
%TO.N,*%
X483235000Y-121443750D03*
X483235000Y-145256250D03*
%TD*%
%TO.P,S5,*%
%TO.N,*%
X440531250Y-149860000D03*
X416718750Y-149860000D03*
%TD*%
%TO.P,S3,*%
%TO.N,*%
X333375000Y-111760000D03*
X309562500Y-111760000D03*
%TD*%
%TO.P,S2,*%
%TO.N,*%
X90487500Y-130810000D03*
X66675000Y-130810000D03*
%TD*%
%TO.P,S1,*%
%TO.N,*%
X238125000Y-149860000D03*
X138112500Y-149860000D03*
%TD*%
D16*
%TO.P,MX110,1,1*%
%TO.N,COL19*%
X453390000Y-140335000D03*
%TO.P,MX110,2,2*%
%TO.N,Net-(D110-A)*%
X459740000Y-137795000D03*
%TD*%
%TO.P,MX109,1,1*%
%TO.N,COL17*%
X424815000Y-140335000D03*
%TO.P,MX109,2,2*%
%TO.N,Net-(D109-A)*%
X431165000Y-137795000D03*
%TD*%
%TO.P,MX108,1,1*%
%TO.N,COL16*%
X391477500Y-140335000D03*
%TO.P,MX108,2,2*%
%TO.N,Net-(D108-A)*%
X397827500Y-137795000D03*
%TD*%
%TO.P,MX107,1,1*%
%TO.N,COL15*%
X372427500Y-140335000D03*
%TO.P,MX107,2,2*%
%TO.N,Net-(D107-A)*%
X378777500Y-137795000D03*
%TD*%
%TO.P,MX106,1,1*%
%TO.N,COL14*%
X353377500Y-140335000D03*
%TO.P,MX106,2,2*%
%TO.N,Net-(D106-A)*%
X359727500Y-137795000D03*
%TD*%
%TO.P,MX105,1,1*%
%TO.N,COL13*%
X327183750Y-140335000D03*
%TO.P,MX105,2,2*%
%TO.N,Net-(D105-A)*%
X333533750Y-137795000D03*
%TD*%
%TO.P,MX104,1,1*%
%TO.N,COL12*%
X303371250Y-140335000D03*
%TO.P,MX104,2,2*%
%TO.N,Net-(D104-A)*%
X309721250Y-137795000D03*
%TD*%
%TO.P,MX103,1,1*%
%TO.N,COL10*%
X279558750Y-140335000D03*
%TO.P,MX103,2,2*%
%TO.N,Net-(D103-A)*%
X285908750Y-137795000D03*
%TD*%
%TO.P,MX102,1,1*%
%TO.N,COL09*%
X255746250Y-140335000D03*
%TO.P,MX102,2,2*%
%TO.N,Net-(D102-A)*%
X262096250Y-137795000D03*
%TD*%
%TO.P,MX101,1,1*%
%TO.N,COL05*%
X184308750Y-140335000D03*
%TO.P,MX101,2,2*%
%TO.N,Net-(D101-A)*%
X190658750Y-137795000D03*
%TD*%
%TO.P,MX100,1,1*%
%TO.N,COL02*%
X112871250Y-140335000D03*
%TO.P,MX100,2,2*%
%TO.N,Net-(D100-A)*%
X119221250Y-137795000D03*
%TD*%
%TO.P,MX99,1,1*%
%TO.N,Net-(MX20-Pad1)*%
X89058750Y-140335000D03*
%TO.P,MX99,2,2*%
%TO.N,Net-(D99-A)*%
X95408750Y-137795000D03*
%TD*%
%TO.P,MX98,1,1*%
%TO.N,COL01*%
X65246250Y-140335000D03*
%TO.P,MX98,2,2*%
%TO.N,Net-(D98-A)*%
X71596250Y-137795000D03*
%TD*%
%TO.P,MX97,1,1*%
%TO.N,COL00*%
X34290000Y-140335000D03*
%TO.P,MX97,2,2*%
%TO.N,Net-(D97-A)*%
X40640000Y-137795000D03*
%TD*%
%TO.P,MX96,1,1*%
%TO.N,COL08*%
X472440000Y-130810000D03*
%TO.P,MX96,2,2*%
%TO.N,Net-(D96-A)*%
X478790000Y-128270000D03*
%TD*%
%TO.P,MX95,1,1*%
%TO.N,COL19*%
X453390000Y-121285000D03*
%TO.P,MX95,2,2*%
%TO.N,Net-(D95-A)*%
X459740000Y-118745000D03*
%TD*%
%TO.P,MX94,1,1*%
%TO.N,COL14*%
X434340000Y-121285000D03*
%TO.P,MX94,2,2*%
%TO.N,Net-(D94-A)*%
X440690000Y-118745000D03*
%TD*%
%TO.P,MX93,1,1*%
%TO.N,COL17*%
X415290000Y-121285000D03*
%TO.P,MX93,2,2*%
%TO.N,Net-(D93-A)*%
X421640000Y-118745000D03*
%TD*%
%TO.P,MX92,1,1*%
%TO.N,COL15*%
X372427500Y-121285000D03*
%TO.P,MX92,2,2*%
%TO.N,Net-(D92-A)*%
X378777500Y-118745000D03*
%TD*%
%TO.P,MX91,1,1*%
%TO.N,COL13*%
X312896250Y-121285000D03*
%TO.P,MX91,2,2*%
%TO.N,Net-(D91-A)*%
X319246250Y-118745000D03*
%TD*%
%TO.P,MX90,1,1*%
%TO.N,COL10*%
X277177500Y-121285000D03*
%TO.P,MX90,2,2*%
%TO.N,Net-(D90-A)*%
X283527500Y-118745000D03*
%TD*%
%TO.P,MX89,1,1*%
%TO.N,COL09*%
X258127500Y-121285000D03*
%TO.P,MX89,2,2*%
%TO.N,Net-(D89-A)*%
X264477500Y-118745000D03*
%TD*%
%TO.P,MX88,1,1*%
%TO.N,COL08*%
X239077500Y-121285000D03*
%TO.P,MX88,2,2*%
%TO.N,Net-(D88-A)*%
X245427500Y-118745000D03*
%TD*%
%TO.P,MX87,1,1*%
%TO.N,COL07*%
X220027500Y-121285000D03*
%TO.P,MX87,2,2*%
%TO.N,Net-(D87-A)*%
X226377500Y-118745000D03*
%TD*%
%TO.P,MX86,1,1*%
%TO.N,COL06*%
X200977500Y-121285000D03*
%TO.P,MX86,2,2*%
%TO.N,Net-(D86-A)*%
X207327500Y-118745000D03*
%TD*%
%TO.P,MX85,1,1*%
%TO.N,COL05*%
X181927500Y-121285000D03*
%TO.P,MX85,2,2*%
%TO.N,Net-(D85-A)*%
X188277500Y-118745000D03*
%TD*%
%TO.P,MX84,1,1*%
%TO.N,COL04*%
X162877500Y-121285000D03*
%TO.P,MX84,2,2*%
%TO.N,Net-(D84-A)*%
X169227500Y-118745000D03*
%TD*%
%TO.P,MX83,1,1*%
%TO.N,COL03*%
X143827500Y-121285000D03*
%TO.P,MX83,2,2*%
%TO.N,Net-(D83-A)*%
X150177500Y-118745000D03*
%TD*%
%TO.P,MX82,1,1*%
%TO.N,COL02*%
X124777500Y-121285000D03*
%TO.P,MX82,2,2*%
%TO.N,Net-(D82-A)*%
X131127500Y-118745000D03*
%TD*%
%TO.P,MX81,1,1*%
%TO.N,Net-(MX20-Pad1)*%
X105727500Y-121285000D03*
%TO.P,MX81,2,2*%
%TO.N,Net-(D81-A)*%
X112077500Y-118745000D03*
%TD*%
%TO.P,MX80,1,1*%
%TO.N,COL01*%
X74771250Y-121285000D03*
%TO.P,MX80,2,2*%
%TO.N,Net-(D80-A)*%
X81121250Y-118745000D03*
%TD*%
%TO.P,MX79,1,1*%
%TO.N,COL00*%
X34290000Y-119380000D03*
%TO.P,MX79,2,2*%
%TO.N,Net-(D79-A)*%
X40640000Y-116840000D03*
%TD*%
%TO.P,MX78,1,1*%
%TO.N,COL19*%
X453390000Y-102235000D03*
%TO.P,MX78,2,2*%
%TO.N,Net-(D78-A)*%
X459740000Y-99695000D03*
%TD*%
%TO.P,MX77,1,1*%
%TO.N,COL14*%
X434340000Y-102235000D03*
%TO.P,MX77,2,2*%
%TO.N,Net-(D77-A)*%
X440690000Y-99695000D03*
%TD*%
%TO.P,MX76,1,1*%
%TO.N,COL17*%
X415290000Y-102235000D03*
%TO.P,MX76,2,2*%
%TO.N,Net-(D76-A)*%
X421640000Y-99695000D03*
%TD*%
%TO.P,MX75,1,1*%
%TO.N,COL13*%
X317658750Y-102235000D03*
%TO.P,MX75,2,2*%
%TO.N,Net-(D75-A)*%
X324008750Y-99695000D03*
%TD*%
%TO.P,MX74,1,1*%
%TO.N,COL11*%
X286702500Y-102235000D03*
%TO.P,MX74,2,2*%
%TO.N,Net-(D74-A)*%
X293052500Y-99695000D03*
%TD*%
%TO.P,MX73,1,1*%
%TO.N,COL10*%
X267652500Y-102235000D03*
%TO.P,MX73,2,2*%
%TO.N,Net-(D73-A)*%
X274002500Y-99695000D03*
%TD*%
%TO.P,MX72,1,1*%
%TO.N,COL09*%
X248602500Y-102235000D03*
%TO.P,MX72,2,2*%
%TO.N,Net-(D72-A)*%
X254952500Y-99695000D03*
%TD*%
%TO.P,MX71,1,1*%
%TO.N,COL08*%
X229552500Y-102235000D03*
%TO.P,MX71,2,2*%
%TO.N,Net-(D71-A)*%
X235902500Y-99695000D03*
%TD*%
%TO.P,MX70,1,1*%
%TO.N,COL07*%
X210502500Y-102235000D03*
%TO.P,MX70,2,2*%
%TO.N,Net-(D70-A)*%
X216852500Y-99695000D03*
%TD*%
%TO.P,MX69,1,1*%
%TO.N,COL06*%
X191452500Y-102235000D03*
%TO.P,MX69,2,2*%
%TO.N,Net-(D69-A)*%
X197802500Y-99695000D03*
%TD*%
%TO.P,MX68,1,1*%
%TO.N,COL05*%
X172402500Y-102235000D03*
%TO.P,MX68,2,2*%
%TO.N,Net-(D68-A)*%
X178752500Y-99695000D03*
%TD*%
%TO.P,MX67,1,1*%
%TO.N,COL04*%
X153352500Y-102235000D03*
%TO.P,MX67,2,2*%
%TO.N,Net-(D67-A)*%
X159702500Y-99695000D03*
%TD*%
%TO.P,MX66,1,1*%
%TO.N,COL03*%
X134302500Y-102235000D03*
%TO.P,MX66,2,2*%
%TO.N,Net-(D66-A)*%
X140652500Y-99695000D03*
%TD*%
%TO.P,MX65,1,1*%
%TO.N,COL02*%
X115252500Y-102235000D03*
%TO.P,MX65,2,2*%
%TO.N,Net-(D65-A)*%
X121602500Y-99695000D03*
%TD*%
%TO.P,MX64,1,1*%
%TO.N,Net-(MX20-Pad1)*%
X96202500Y-102235000D03*
%TO.P,MX64,2,2*%
%TO.N,Net-(D64-A)*%
X102552500Y-99695000D03*
%TD*%
%TO.P,MX63,1,1*%
%TO.N,COL01*%
X70008750Y-102235000D03*
%TO.P,MX63,2,2*%
%TO.N,Net-(D63-A)*%
X76358750Y-99695000D03*
%TD*%
%TO.P,MX62,1,1*%
%TO.N,COL00*%
X34290000Y-98425000D03*
%TO.P,MX62,2,2*%
%TO.N,Net-(D62-A)*%
X40640000Y-95885000D03*
%TD*%
%TO.P,MX61,1,1*%
%TO.N,COL07*%
X472440000Y-92710000D03*
%TO.P,MX61,2,2*%
%TO.N,Net-(D61-A)*%
X478790000Y-90170000D03*
%TD*%
%TO.P,MX60,1,1*%
%TO.N,COL19*%
X453390000Y-83185000D03*
%TO.P,MX60,2,2*%
%TO.N,Net-(D60-A)*%
X459740000Y-80645000D03*
%TD*%
%TO.P,MX59,1,1*%
%TO.N,COL16*%
X434340000Y-83185000D03*
%TO.P,MX59,2,2*%
%TO.N,Net-(D59-A)*%
X440690000Y-80645000D03*
%TD*%
%TO.P,MX58,1,1*%
%TO.N,COL17*%
X415290000Y-83185000D03*
%TO.P,MX58,2,2*%
%TO.N,Net-(D58-A)*%
X421640000Y-80645000D03*
%TD*%
%TO.P,MX57,1,1*%
%TO.N,COL16*%
X391477500Y-83185000D03*
%TO.P,MX57,2,2*%
%TO.N,Net-(D57-A)*%
X397827500Y-80645000D03*
%TD*%
%TO.P,MX56,1,1*%
%TO.N,COL15*%
X372427500Y-83185000D03*
%TO.P,MX56,2,2*%
%TO.N,Net-(D56-A)*%
X378777500Y-80645000D03*
%TD*%
%TO.P,MX55,1,1*%
%TO.N,COL14*%
X353377500Y-83185000D03*
%TO.P,MX55,2,2*%
%TO.N,Net-(D55-A)*%
X359727500Y-80645000D03*
%TD*%
%TO.P,MX53,1,1*%
%TO.N,COL12*%
X300990000Y-83185000D03*
%TO.P,MX53,2,2*%
%TO.N,Net-(D53-A)*%
X307340000Y-80645000D03*
%TD*%
%TO.P,MX52,1,1*%
%TO.N,COL11*%
X281940000Y-83185000D03*
%TO.P,MX52,2,2*%
%TO.N,Net-(D52-A)*%
X288290000Y-80645000D03*
%TD*%
%TO.P,MX51,1,1*%
%TO.N,COL10*%
X262890000Y-83185000D03*
%TO.P,MX51,2,2*%
%TO.N,Net-(D51-A)*%
X269240000Y-80645000D03*
%TD*%
%TO.P,MX50,1,1*%
%TO.N,COL09*%
X243840000Y-83185000D03*
%TO.P,MX50,2,2*%
%TO.N,Net-(D50-A)*%
X250190000Y-80645000D03*
%TD*%
%TO.P,MX49,1,1*%
%TO.N,COL08*%
X224790000Y-83185000D03*
%TO.P,MX49,2,2*%
%TO.N,Net-(D49-A)*%
X231140000Y-80645000D03*
%TD*%
%TO.P,MX48,1,1*%
%TO.N,COL07*%
X205740000Y-83185000D03*
%TO.P,MX48,2,2*%
%TO.N,Net-(D48-A)*%
X212090000Y-80645000D03*
%TD*%
%TO.P,MX47,1,1*%
%TO.N,COL06*%
X186690000Y-83185000D03*
%TO.P,MX47,2,2*%
%TO.N,Net-(D47-A)*%
X193040000Y-80645000D03*
%TD*%
%TO.P,MX46,1,1*%
%TO.N,COL05*%
X167640000Y-83185000D03*
%TO.P,MX46,2,2*%
%TO.N,Net-(D46-A)*%
X173990000Y-80645000D03*
%TD*%
%TO.P,MX45,1,1*%
%TO.N,COL04*%
X148590000Y-83185000D03*
%TO.P,MX45,2,2*%
%TO.N,Net-(D45-A)*%
X154940000Y-80645000D03*
%TD*%
%TO.P,MX44,1,1*%
%TO.N,COL03*%
X129540000Y-83185000D03*
%TO.P,MX44,2,2*%
%TO.N,Net-(D44-A)*%
X135890000Y-80645000D03*
%TD*%
%TO.P,MX43,1,1*%
%TO.N,COL02*%
X110490000Y-83185000D03*
%TO.P,MX43,2,2*%
%TO.N,Net-(D43-A)*%
X116840000Y-80645000D03*
%TD*%
%TO.P,MX42,1,1*%
%TO.N,Net-(MX20-Pad1)*%
X91440000Y-83185000D03*
%TO.P,MX42,2,2*%
%TO.N,Net-(D42-A)*%
X97790000Y-80645000D03*
%TD*%
%TO.P,MX41,1,1*%
%TO.N,COL01*%
X67627500Y-83185000D03*
%TO.P,MX41,2,2*%
%TO.N,Net-(D41-A)*%
X73977500Y-80645000D03*
%TD*%
%TO.P,MX40,1,1*%
%TO.N,COL00*%
X34290000Y-77470000D03*
%TO.P,MX40,2,2*%
%TO.N,Net-(D40-A)*%
X40640000Y-74930000D03*
%TD*%
%TO.P,MX39,1,1*%
%TO.N,COL06*%
X472440000Y-64135000D03*
%TO.P,MX39,2,2*%
%TO.N,Net-(D39-A)*%
X478790000Y-61595000D03*
%TD*%
%TO.P,MX38,1,1*%
%TO.N,COL19*%
X453390000Y-64135000D03*
%TO.P,MX38,2,2*%
%TO.N,Net-(D38-A)*%
X459740000Y-61595000D03*
%TD*%
%TO.P,MX37,1,1*%
%TO.N,COL16*%
X434340000Y-64135000D03*
%TO.P,MX37,2,2*%
%TO.N,Net-(D37-A)*%
X440690000Y-61595000D03*
%TD*%
%TO.P,MX36,1,1*%
%TO.N,COL17*%
X415290000Y-64135000D03*
%TO.P,MX36,2,2*%
%TO.N,Net-(D36-A)*%
X421640000Y-61595000D03*
%TD*%
%TO.P,MX35,1,1*%
%TO.N,COL16*%
X391477500Y-64135000D03*
%TO.P,MX35,2,2*%
%TO.N,Net-(D35-A)*%
X397827500Y-61595000D03*
%TD*%
%TO.P,MX34,1,1*%
%TO.N,COL15*%
X372427500Y-64135000D03*
%TO.P,MX34,2,2*%
%TO.N,Net-(D34-A)*%
X378777500Y-61595000D03*
%TD*%
%TO.P,MX33,1,1*%
%TO.N,COL14*%
X353377500Y-64135000D03*
%TO.P,MX33,2,2*%
%TO.N,Net-(D33-A)*%
X359727500Y-61595000D03*
%TD*%
%TO.P,MX32,1,1*%
%TO.N,COL13*%
X320040000Y-64135000D03*
%TO.P,MX32,2,2*%
%TO.N,Net-(D32-A)*%
X326390000Y-61595000D03*
%TD*%
%TO.P,MX31,1,1*%
%TO.N,COL12*%
X291465000Y-64135000D03*
%TO.P,MX31,2,2*%
%TO.N,Net-(D31-A)*%
X297815000Y-61595000D03*
%TD*%
%TO.P,MX30,1,1*%
%TO.N,COL11*%
X272415000Y-64135000D03*
%TO.P,MX30,2,2*%
%TO.N,Net-(D30-A)*%
X278765000Y-61595000D03*
%TD*%
%TO.P,MX29,1,1*%
%TO.N,COL10*%
X253365000Y-64135000D03*
%TO.P,MX29,2,2*%
%TO.N,Net-(D29-A)*%
X259715000Y-61595000D03*
%TD*%
%TO.P,MX28,1,1*%
%TO.N,COL09*%
X234315000Y-64135000D03*
%TO.P,MX28,2,2*%
%TO.N,Net-(D28-A)*%
X240665000Y-61595000D03*
%TD*%
%TO.P,MX27,1,1*%
%TO.N,COL08*%
X215265000Y-64135000D03*
%TO.P,MX27,2,2*%
%TO.N,Net-(D27-A)*%
X221615000Y-61595000D03*
%TD*%
%TO.P,MX26,1,1*%
%TO.N,COL07*%
X196215000Y-64135000D03*
%TO.P,MX26,2,2*%
%TO.N,Net-(D26-A)*%
X202565000Y-61595000D03*
%TD*%
%TO.P,MX25,1,1*%
%TO.N,COL06*%
X177165000Y-64135000D03*
%TO.P,MX25,2,2*%
%TO.N,Net-(D25-A)*%
X183515000Y-61595000D03*
%TD*%
%TO.P,MX24,1,1*%
%TO.N,COL05*%
X158115000Y-64135000D03*
%TO.P,MX24,2,2*%
%TO.N,Net-(D24-A)*%
X164465000Y-61595000D03*
%TD*%
%TO.P,MX23,1,1*%
%TO.N,COL04*%
X139065000Y-64135000D03*
%TO.P,MX23,2,2*%
%TO.N,Net-(D23-A)*%
X145415000Y-61595000D03*
%TD*%
%TO.P,MX22,1,1*%
%TO.N,COL03*%
X120015000Y-64135000D03*
%TO.P,MX22,2,2*%
%TO.N,Net-(D22-A)*%
X126365000Y-61595000D03*
%TD*%
%TO.P,MX21,1,1*%
%TO.N,COL02*%
X100965000Y-64135000D03*
%TO.P,MX21,2,2*%
%TO.N,Net-(D21-A)*%
X107315000Y-61595000D03*
%TD*%
%TO.P,MX20,1,1*%
%TO.N,Net-(MX20-Pad1)*%
X81915000Y-64135000D03*
%TO.P,MX20,2,2*%
%TO.N,Net-(D20-A)*%
X88265000Y-61595000D03*
%TD*%
%TO.P,MX19,1,1*%
%TO.N,COL01*%
X62865000Y-64135000D03*
%TO.P,MX19,2,2*%
%TO.N,Net-(D19-A)*%
X69215000Y-61595000D03*
%TD*%
%TO.P,MX18,1,1*%
%TO.N,COL00*%
X34290000Y-56515000D03*
%TO.P,MX18,2,2*%
%TO.N,Net-(D18-A)*%
X40640000Y-53975000D03*
%TD*%
%TO.P,MX17,1,1*%
%TO.N,COL16*%
X391477500Y-35560000D03*
%TO.P,MX17,2,2*%
%TO.N,Net-(D17-A)*%
X397827500Y-33020000D03*
%TD*%
%TO.P,MX16,1,1*%
%TO.N,COL15*%
X372427500Y-35560000D03*
%TO.P,MX16,2,2*%
%TO.N,Net-(D16-A)*%
X378777500Y-33020000D03*
%TD*%
%TO.P,MX15,1,1*%
%TO.N,COL14*%
X353377500Y-35560000D03*
%TO.P,MX15,2,2*%
%TO.N,Net-(D15-A)*%
X359727500Y-33020000D03*
%TD*%
%TO.P,MX14,1,1*%
%TO.N,COL13*%
X329565000Y-35560000D03*
%TO.P,MX14,2,2*%
%TO.N,Net-(D14-A)*%
X335915000Y-33020000D03*
%TD*%
%TO.P,MX13,1,1*%
%TO.N,COL12*%
X310515000Y-35560000D03*
%TO.P,MX13,2,2*%
%TO.N,Net-(D13-A)*%
X316865000Y-33020000D03*
%TD*%
%TO.P,MX12,1,1*%
%TO.N,COL11*%
X291465000Y-35560000D03*
%TO.P,MX12,2,2*%
%TO.N,Net-(D12-A)*%
X297815000Y-33020000D03*
%TD*%
%TO.P,MX11,1,1*%
%TO.N,COL10*%
X272415000Y-35560000D03*
%TO.P,MX11,2,2*%
%TO.N,Net-(D11-A)*%
X278765000Y-33020000D03*
%TD*%
%TO.P,MX10,1,1*%
%TO.N,COL09*%
X243840000Y-35560000D03*
%TO.P,MX10,2,2*%
%TO.N,Net-(D10-A)*%
X250190000Y-33020000D03*
%TD*%
%TO.P,MX9,1,1*%
%TO.N,COL08*%
X224790000Y-35560000D03*
%TO.P,MX9,2,2*%
%TO.N,Net-(D9-A)*%
X231140000Y-33020000D03*
%TD*%
%TO.P,MX8,1,1*%
%TO.N,COL07*%
X205740000Y-35560000D03*
%TO.P,MX8,2,2*%
%TO.N,Net-(D8-A)*%
X212090000Y-33020000D03*
%TD*%
%TO.P,MX7,1,1*%
%TO.N,COL06*%
X186690000Y-35560000D03*
%TO.P,MX7,2,2*%
%TO.N,Net-(D7-A)*%
X193040000Y-33020000D03*
%TD*%
%TO.P,MX6,1,1*%
%TO.N,COL05*%
X158115000Y-35560000D03*
%TO.P,MX6,2,2*%
%TO.N,Net-(D6-A)*%
X164465000Y-33020000D03*
%TD*%
%TO.P,MX5,1,1*%
%TO.N,COL04*%
X139065000Y-35560000D03*
%TO.P,MX5,2,2*%
%TO.N,Net-(D5-A)*%
X145415000Y-33020000D03*
%TD*%
%TO.P,MX4,1,1*%
%TO.N,COL03*%
X120015000Y-35560000D03*
%TO.P,MX4,2,2*%
%TO.N,Net-(D4-A)*%
X126365000Y-33020000D03*
%TD*%
%TO.P,MX3,1,1*%
%TO.N,COL02*%
X100965000Y-35560000D03*
%TO.P,MX3,2,2*%
%TO.N,Net-(D3-A)*%
X107315000Y-33020000D03*
%TD*%
%TO.P,MX2,1,1*%
%TO.N,COL01*%
X62865000Y-35560000D03*
%TO.P,MX2,2,2*%
%TO.N,Net-(D2-A)*%
X69215000Y-33020000D03*
%TD*%
%TO.P,MX1,1,1*%
%TO.N,COL00*%
X34290000Y-35560000D03*
%TO.P,MX1,2,2*%
%TO.N,Net-(D1-A)*%
X40640000Y-33020000D03*
%TD*%
%TO.P,MX54,1,1*%
%TO.N,COL13*%
X324802500Y-83185000D03*
%TO.P,MX54,2,2*%
%TO.N,Net-(D54-A)*%
X331152500Y-80645000D03*
%TD*%
D17*
%TO.N,COL02*%
X107300000Y-140300000D03*
X119300000Y-121100000D03*
X109900000Y-102100000D03*
X105100000Y-83100000D03*
X95500000Y-64100000D03*
X95700000Y-35500000D03*
%TO.N,Net-(MX20-Pad1)*%
X86300000Y-138100000D03*
X99700000Y-121300000D03*
X89900000Y-102100000D03*
X78500000Y-66100000D03*
X85700000Y-83100000D03*
%TO.N,COL01*%
X57500000Y-64300000D03*
X57500000Y-83300000D03*
X57500000Y-102300000D03*
X57500000Y-35500000D03*
X57500000Y-140300000D03*
%TO.N,COL00*%
X28900000Y-56500000D03*
X28900000Y-77500000D03*
X28900000Y-98500000D03*
X28900000Y-119300000D03*
X28900000Y-140300000D03*
X28900000Y-35500000D03*
%TO.N,Net-(D111-A)*%
X421700000Y-42900000D03*
%TO.N,Net-(D112-A)*%
X459700000Y-43100000D03*
%TO.N,GND*%
X386230327Y-109013423D03*
X368243750Y-103000000D03*
X361993750Y-104000000D03*
X359493750Y-101250000D03*
X383993750Y-101250000D03*
X371493750Y-110250000D03*
X361993750Y-107250000D03*
X389493750Y-109750000D03*
%TO.N,+3V3*%
X384730327Y-108763423D03*
X373743750Y-101500000D03*
X372993750Y-109250000D03*
X381493750Y-102250000D03*
X368493750Y-101750000D03*
%TO.N,NRST*%
X390493750Y-108750000D03*
X385943750Y-105800000D03*
%TD*%
D18*
%TO.N,COL02*%
X119300000Y-128300000D02*
X107300000Y-140300000D01*
X119300000Y-121100000D02*
X119300000Y-128300000D01*
X109900000Y-111700000D02*
X119300000Y-121100000D01*
X109900000Y-102100000D02*
X109900000Y-111700000D01*
X105300000Y-97500000D02*
X109900000Y-102100000D01*
X105300000Y-83300000D02*
X105300000Y-97500000D01*
X105100000Y-83100000D02*
X105300000Y-83300000D01*
X95500000Y-73500000D02*
X105100000Y-83100000D01*
X95500000Y-64100000D02*
X95500000Y-73500000D01*
X95500000Y-36300000D02*
X95500000Y-64100000D01*
X95700000Y-35500000D02*
X95700000Y-36100000D01*
X95700000Y-36100000D02*
X95500000Y-36300000D01*
%TO.N,Net-(MX20-Pad1)*%
X86485547Y-138100000D02*
X86300000Y-138100000D01*
X99700000Y-124885547D02*
X86485547Y-138100000D01*
X99700000Y-121300000D02*
X99700000Y-124885547D01*
X89900000Y-111500000D02*
X99700000Y-121300000D01*
X89900000Y-102100000D02*
X89900000Y-111500000D01*
X85700000Y-97900000D02*
X89900000Y-102100000D01*
X85700000Y-83100000D02*
X85700000Y-97900000D01*
X78500000Y-75900000D02*
X85700000Y-83100000D01*
X78500000Y-66100000D02*
X78500000Y-75900000D01*
%TO.N,COL01*%
X57500000Y-64300000D02*
X57500000Y-83300000D01*
X57500000Y-35500000D02*
X57500000Y-64300000D01*
X57500000Y-83300000D02*
X57500000Y-102300000D01*
X57500000Y-102300000D02*
X57500000Y-140300000D01*
%TO.N,COL00*%
X28900000Y-56500000D02*
X28900000Y-77500000D01*
X28900000Y-35500000D02*
X28900000Y-56500000D01*
X28900000Y-77500000D02*
X28900000Y-98500000D01*
X28900000Y-98500000D02*
X28900000Y-119300000D01*
X28900000Y-119300000D02*
X28900000Y-140300000D01*
%TO.N,Net-(D111-A)*%
X421700000Y-40600000D02*
X421700000Y-42900000D01*
%TO.N,Net-(D112-A)*%
X459700000Y-40600000D02*
X459700000Y-43100000D01*
D19*
%TO.N,GND*%
X386230327Y-109013423D02*
X386966904Y-109750000D01*
X362493750Y-103000000D02*
X361993750Y-103500000D01*
X386966904Y-109750000D02*
X389493750Y-109750000D01*
X371493750Y-110250000D02*
X384993750Y-110250000D01*
X361993750Y-104000000D02*
X361993750Y-103500000D01*
X359743750Y-101250000D02*
X361993750Y-103500000D01*
X371493750Y-110250000D02*
X371493750Y-106250000D01*
X359493750Y-101250000D02*
X359743750Y-101250000D01*
X383993750Y-106776846D02*
X386230327Y-109013423D01*
X368243750Y-103000000D02*
X362493750Y-103000000D01*
X383993750Y-101250000D02*
X383993750Y-106776846D01*
X384993750Y-110250000D02*
X386230327Y-109013423D01*
X361993750Y-107250000D02*
X361993750Y-104000000D01*
X371493750Y-106250000D02*
X368243750Y-103000000D01*
%TO.N,+3V3*%
X373743750Y-101500000D02*
X380743750Y-101500000D01*
X373743750Y-101500000D02*
X372993750Y-102250000D01*
X380743750Y-101500000D02*
X381493750Y-102250000D01*
X372993750Y-102250000D02*
X372993750Y-103000000D01*
X384730327Y-108763423D02*
X381493750Y-105526846D01*
X368993750Y-102250000D02*
X372993750Y-102250000D01*
X381493750Y-105526846D02*
X381493750Y-102250000D01*
X368493750Y-101750000D02*
X368993750Y-102250000D01*
X372993750Y-109250000D02*
X372993750Y-103000000D01*
D18*
%TO.N,NRST*%
X388893750Y-108750000D02*
X385943750Y-105800000D01*
X390493750Y-108750000D02*
X388893750Y-108750000D01*
%TD*%
M02*
